<svg xmlns="http://www.w3.org/2000/svg" xmlns:xlink="http://www.w3.org/1999/xlink" width="135" zoomAndPan="magnify" viewBox="0 0 102 30.000001" height="40" preserveAspectRatio="xMidYMid meet" version="1.0"><defs><clipPath id="e02927e7a9"><path d="M 2.203125 0 L 98.734375 0 L 98.734375 29.03125 L 2.203125 29.03125 Z M 2.203125 0 " clip-rule="nonzero"/></clipPath></defs><g clip-path="url(#e02927e7a9)"><path fill="#000000" d="M 5.773438 0 L 95.160156 0 C 95.632812 0 96.089844 0.09375 96.527344 0.277344 C 96.964844 0.460938 97.351562 0.722656 97.6875 1.0625 C 98.023438 1.402344 98.28125 1.796875 98.464844 2.242188 C 98.644531 2.683594 98.734375 3.148438 98.734375 3.628906 L 98.734375 25.402344 C 98.734375 25.882812 98.644531 26.347656 98.464844 26.792969 C 98.28125 27.238281 98.023438 27.628906 97.6875 27.96875 C 97.351562 28.308594 96.964844 28.570312 96.527344 28.757812 C 96.089844 28.941406 95.632812 29.03125 95.160156 29.03125 L 5.773438 29.03125 C 5.300781 29.03125 4.84375 28.941406 4.40625 28.757812 C 3.96875 28.570312 3.582031 28.308594 3.246094 27.96875 C 2.910156 27.628906 2.652344 27.238281 2.46875 26.792969 C 2.289062 26.347656 2.199219 25.882812 2.199219 25.402344 L 2.199219 3.628906 C 2.199219 3.148438 2.289062 2.683594 2.46875 2.242188 C 2.652344 1.796875 2.910156 1.402344 3.246094 1.0625 C 3.582031 0.722656 3.96875 0.460938 4.40625 0.277344 C 4.84375 0.09375 5.300781 0 5.773438 0 Z M 5.773438 0 " fill-opacity="1" fill-rule="nonzero"/><path fill="#a6a6a6" d="M 95.164062 0.582031 C 96.820312 0.582031 98.167969 1.949219 98.167969 3.628906 L 98.167969 25.402344 C 98.167969 27.082031 96.820312 28.449219 95.164062 28.449219 L 5.773438 28.449219 C 4.117188 28.449219 2.769531 27.082031 2.769531 25.402344 L 2.769531 3.628906 C 2.769531 1.949219 4.117188 0.582031 5.773438 0.582031 L 95.164062 0.582031 M 95.164062 0 L 5.773438 0 C 3.808594 0 2.199219 1.632812 2.199219 3.628906 L 2.199219 25.402344 C 2.199219 27.398438 3.808594 29.03125 5.773438 29.03125 L 95.164062 29.03125 C 97.128906 29.03125 98.738281 27.398438 98.738281 25.402344 L 98.738281 3.628906 C 98.738281 1.632812 97.128906 0 95.164062 0 Z M 95.164062 0 " fill-opacity="1" fill-rule="nonzero"/></g><path stroke-linecap="butt" transform="matrix(0.403639, 0, 0, 0.409655, 2.241734, 0.00000193548)" fill-opacity="1" fill="#ffffff" fill-rule="nonzero" stroke-linejoin="miter" d="M 83.896023 18.145977 C 83.896023 19.633508 83.460532 20.815905 82.579873 21.702703 C 81.583082 22.751604 80.27661 23.266519 78.67981 23.266519 C 77.08301 23.266519 75.84428 22.742069 74.770069 21.683632 C 73.695859 20.615661 73.163592 19.299767 73.163592 17.716881 C 73.163592 16.14353 73.695859 14.827636 74.770069 13.759665 C 75.84428 12.701229 77.150753 12.157707 78.67981 12.157707 C 79.444338 12.157707 80.170156 12.310275 80.857264 12.596339 C 81.55405 12.901473 82.105671 13.292427 82.521807 13.788271 L 81.59276 14.732282 C 80.886297 13.893161 79.918539 13.473601 78.67981 13.473601 C 77.557211 13.473601 76.589454 13.864555 75.776537 14.646463 C 74.973299 15.437906 74.557163 16.4582 74.557163 17.707345 C 74.557163 18.956491 74.973299 19.98632 75.776537 20.768228 C 76.599131 21.559671 77.557211 21.950625 78.67981 21.950625 C 79.870152 21.950625 80.857264 21.550136 81.650825 20.758693 C 82.163737 20.243778 82.463742 19.528618 82.541162 18.613214 L 78.67981 18.613214 L 78.67981 17.325927 L 83.82828 17.325927 C 83.876668 17.611991 83.896023 17.869448 83.896023 18.126906 Z M 83.896023 18.145977 " stroke="#ffffff" stroke-width="0.2" stroke-opacity="1" stroke-miterlimit="10"/><path stroke-linecap="butt" transform="matrix(0.403639, 0, 0, 0.409655, 2.241734, 0.00000193548)" fill-opacity="1" fill="#ffffff" fill-rule="nonzero" stroke-linejoin="miter" d="M 92.073574 13.711987 L 87.234786 13.711987 L 87.234786 17.078005 L 91.599373 17.078005 L 91.599373 18.355757 L 87.234786 18.355757 L 87.234786 21.73131 L 92.073574 21.73131 L 92.073574 23.037668 L 85.860571 23.037668 L 85.860571 12.405629 L 92.073574 12.405629 L 92.073574 13.721523 Z M 92.073574 13.711987 " stroke="#ffffff" stroke-width="0.2" stroke-opacity="1" stroke-miterlimit="10"/><path stroke-linecap="butt" transform="matrix(0.403639, 0, 0, 0.409655, 2.241734, 0.00000193548)" fill-opacity="1" fill="#ffffff" fill-rule="nonzero" stroke-linejoin="miter" d="M 97.831731 23.028132 L 96.457515 23.028132 L 96.457515 13.711987 L 93.4865 13.711987 L 93.4865 12.396094 L 100.793069 12.396094 L 100.793069 13.711987 L 97.822053 13.711987 C 97.822053 13.711987 97.822053 23.028132 97.822053 23.028132 Z M 97.831731 23.028132 " stroke="#ffffff" stroke-width="0.2" stroke-opacity="1" stroke-miterlimit="10"/><path stroke-linecap="butt" transform="matrix(0.403639, 0, 0, 0.409655, 2.241734, 0.00000193548)" fill-opacity="1" fill="#ffffff" fill-rule="nonzero" stroke-linejoin="miter" d="M 106.077025 12.396094 L 107.441563 12.396094 L 107.441563 23.028132 L 106.077025 23.028132 Z M 106.077025 12.396094 " stroke="#ffffff" stroke-width="0.2" stroke-opacity="1" stroke-miterlimit="10"/><path stroke-linecap="butt" transform="matrix(0.403639, 0, 0, 0.409655, 2.241734, 0.00000193548)" fill-opacity="1" fill="#ffffff" fill-rule="nonzero" stroke-linejoin="miter" d="M 113.509403 23.028132 L 112.135187 23.028132 L 112.135187 13.711987 L 109.173849 13.711987 L 109.173849 12.396094 L 116.470741 12.396094 L 116.470741 13.711987 L 113.499725 13.711987 C 113.499725 13.711987 113.499725 23.028132 113.499725 23.028132 Z M 113.509403 23.028132 " stroke="#ffffff" stroke-width="0.2" stroke-opacity="1" stroke-miterlimit="10"/><path stroke-linecap="butt" transform="matrix(0.403639, 0, 0, 0.409655, 2.241734, 0.00000193548)" fill-opacity="1" fill="#ffffff" fill-rule="nonzero" stroke-linejoin="miter" d="M 130.299996 21.664561 C 129.254817 22.742069 127.958022 23.266519 126.399933 23.266519 C 124.841843 23.266519 123.554726 22.732533 122.49987 21.664561 C 121.454692 20.587054 120.932103 19.271161 120.932103 17.716881 C 120.932103 16.172136 121.454692 14.846707 122.49987 13.778736 C 123.535371 12.701229 124.841843 12.167243 126.399933 12.167243 C 127.958022 12.167243 129.235462 12.710764 130.290318 13.788271 C 131.335496 14.865778 131.858085 16.181672 131.858085 17.716881 C 131.858085 19.261625 131.335496 20.587054 130.290318 21.664561 Z M 123.516015 20.768228 C 124.309577 21.569207 125.267656 21.960161 126.40961 21.960161 C 127.551564 21.960161 128.509644 21.559671 129.303205 20.768228 C 130.087089 19.96725 130.483869 18.956491 130.483869 17.716881 C 130.483869 16.477271 130.077411 15.456977 129.303205 14.665533 C 128.519322 13.87409 127.551564 13.483136 126.40961 13.483136 C 125.267656 13.483136 124.309577 13.883626 123.516015 14.665533 C 122.741809 15.466512 122.335351 16.477271 122.335351 17.716881 C 122.335351 18.956491 122.741809 19.976785 123.516015 20.768228 Z M 123.516015 20.768228 " stroke="#ffffff" stroke-width="0.2" stroke-opacity="1" stroke-miterlimit="10"/><path stroke-linecap="butt" transform="matrix(0.403639, 0, 0, 0.409655, 2.241734, 0.00000193548)" fill-opacity="1" fill="#ffffff" fill-rule="nonzero" stroke-linejoin="miter" d="M 133.7936 23.028132 L 133.7936 12.396094 L 135.448465 12.396094 L 140.616291 20.672874 L 140.684034 20.672874 L 140.616291 18.62275 L 140.616291 12.396094 L 141.990506 12.396094 L 141.990506 23.028132 L 140.558225 23.028132 L 135.148461 14.360399 L 135.090395 14.360399 L 135.148461 16.410523 L 135.148461 23.028132 L 133.783923 23.028132 Z M 133.7936 23.028132 " stroke="#ffffff" stroke-width="0.2" stroke-opacity="1" stroke-miterlimit="10"/><path fill="#ffffff" d="M 50.925781 15.789062 C 49.242188 15.789062 47.875 17.085938 47.875 18.871094 C 47.875 20.660156 49.246094 21.957031 50.925781 21.957031 C 52.605469 21.957031 53.976562 20.648438 53.976562 18.871094 C 53.976562 17.097656 52.605469 15.789062 50.925781 15.789062 Z M 50.925781 20.746094 C 50.003906 20.746094 49.210938 19.976562 49.210938 18.871094 C 49.210938 17.769531 50.003906 17 50.925781 17 C 51.84375 17 52.640625 17.757812 52.640625 18.871094 C 52.640625 19.988281 51.84375 20.746094 50.925781 20.746094 Z M 44.265625 15.789062 C 42.582031 15.789062 41.214844 17.085938 41.214844 18.871094 C 41.214844 20.660156 42.585938 21.957031 44.265625 21.957031 C 45.945312 21.957031 47.316406 20.648438 47.316406 18.871094 C 47.316406 17.097656 45.945312 15.789062 44.265625 15.789062 Z M 44.265625 20.746094 C 43.34375 20.746094 42.550781 19.976562 42.550781 18.871094 C 42.550781 17.769531 43.34375 17 44.265625 17 C 45.183594 17 45.980469 17.757812 45.980469 18.871094 C 45.980469 19.988281 45.183594 20.746094 44.265625 20.746094 Z M 36.339844 16.734375 L 36.339844 18.046875 L 39.429688 18.046875 C 39.335938 18.78125 39.09375 19.320312 38.726562 19.695312 C 38.277344 20.152344 37.578125 20.65625 36.339844 20.65625 C 34.441406 20.65625 32.953125 19.097656 32.953125 17.167969 C 32.953125 15.238281 34.441406 13.683594 36.339844 13.683594 C 37.367188 13.683594 38.117188 14.09375 38.667969 14.617188 L 39.578125 13.691406 C 38.808594 12.941406 37.78125 12.371094 36.339844 12.371094 C 33.738281 12.371094 31.550781 14.523438 31.550781 17.164062 C 31.550781 19.808594 33.738281 21.957031 36.339844 21.957031 C 37.746094 21.957031 38.808594 21.492188 39.636719 20.613281 C 40.488281 19.75 40.753906 18.53125 40.753906 17.550781 C 40.753906 17.246094 40.730469 16.964844 40.683594 16.730469 L 36.339844 16.730469 Z M 68.742188 17.75 C 68.488281 17.0625 67.714844 15.785156 66.136719 15.785156 C 64.558594 15.785156 63.269531 17.035156 63.269531 18.867188 C 63.269531 20.597656 64.558594 21.953125 66.289062 21.953125 C 67.679688 21.953125 68.488281 21.089844 68.820312 20.585938 L 67.785156 19.882812 C 67.4375 20.402344 66.964844 20.738281 66.289062 20.738281 C 65.609375 20.738281 65.125 20.421875 64.8125 19.800781 L 68.882812 18.09375 L 68.746094 17.742188 Z M 64.59375 18.777344 C 64.554688 17.585938 65.503906 16.976562 66.183594 16.976562 C 66.710938 16.976562 67.164062 17.246094 67.3125 17.632812 Z M 61.285156 21.773438 L 62.621094 21.773438 L 62.621094 12.699219 L 61.285156 12.699219 Z M 59.097656 16.476562 L 59.054688 16.476562 C 58.753906 16.117188 58.179688 15.789062 57.453125 15.789062 C 55.929688 15.789062 54.539062 17.144531 54.539062 18.886719 C 54.539062 20.625 55.929688 21.960938 57.453125 21.960938 C 58.179688 21.960938 58.75 21.632812 59.054688 21.261719 L 59.097656 21.261719 L 59.097656 21.703125 C 59.097656 22.882812 58.476562 23.515625 57.472656 23.515625 C 56.652344 23.515625 56.148438 22.917969 55.9375 22.417969 L 54.777344 22.90625 C 55.109375 23.726562 56 24.730469 57.472656 24.730469 C 59.039062 24.730469 60.363281 23.796875 60.363281 21.515625 L 60.363281 15.972656 L 59.09375 15.972656 L 59.09375 16.476562 Z M 57.566406 20.746094 C 56.644531 20.746094 55.871094 19.960938 55.871094 18.886719 C 55.871094 17.808594 56.640625 17 57.566406 17 C 58.488281 17 59.191406 17.796875 59.191406 18.886719 C 59.191406 19.976562 58.476562 20.746094 57.566406 20.746094 Z M 75 12.699219 L 71.804688 12.699219 L 71.804688 21.773438 L 73.140625 21.773438 L 73.140625 18.335938 L 75.003906 18.335938 C 76.484375 18.335938 77.941406 17.25 77.941406 15.519531 C 77.941406 13.785156 76.488281 12.699219 75.003906 12.699219 Z M 75.035156 17.074219 L 73.136719 17.074219 L 73.136719 13.964844 L 75.035156 13.964844 C 76.03125 13.964844 76.597656 14.804688 76.597656 15.523438 C 76.597656 16.238281 76.03125 17.078125 75.035156 17.078125 Z M 83.28125 15.773438 C 82.316406 15.773438 81.316406 16.203125 80.898438 17.160156 L 82.085938 17.664062 C 82.339844 17.160156 82.808594 17 83.304688 17 C 83.996094 17 84.695312 17.421875 84.710938 18.167969 L 84.710938 18.261719 C 84.46875 18.125 83.949219 17.910156 83.316406 17.910156 C 82.042969 17.910156 80.742188 18.621094 80.742188 19.953125 C 80.742188 21.167969 81.785156 21.949219 82.960938 21.949219 C 83.859375 21.949219 84.355469 21.539062 84.664062 21.066406 L 84.710938 21.066406 L 84.710938 21.765625 L 85.996094 21.765625 L 85.996094 18.285156 C 85.996094 16.675781 84.808594 15.777344 83.28125 15.777344 Z M 83.121094 20.742188 C 82.6875 20.742188 82.078125 20.519531 82.078125 19.96875 C 82.078125 19.269531 82.835938 19 83.492188 19 C 84.074219 19 84.355469 19.125 84.710938 19.304688 C 84.605469 20.144531 83.894531 20.738281 83.121094 20.738281 Z M 90.6875 15.96875 L 89.15625 19.902344 L 89.113281 19.902344 L 87.527344 15.96875 L 86.089844 15.96875 L 88.472656 21.464844 L 87.113281 24.527344 L 88.507812 24.527344 L 92.175781 15.96875 Z M 78.671875 21.773438 L 80.007812 21.773438 L 80.007812 12.699219 L 78.671875 12.699219 Z M 78.671875 21.773438 " fill-opacity="1" fill-rule="nonzero"/><path fill="#ea4335" d="M 17.015625 14.097656 L 9.402344 22.296875 C 9.402344 22.296875 9.402344 22.296875 9.402344 22.300781 C 9.636719 23.191406 10.4375 23.847656 11.386719 23.847656 C 11.769531 23.847656 12.125 23.738281 12.429688 23.558594 L 12.453125 23.542969 L 21.023438 18.523438 L 17.011719 14.09375 Z M 17.015625 14.097656 " fill-opacity="1" fill-rule="nonzero"/><path fill="#fbbc04" d="M 24.714844 12.699219 L 24.707031 12.699219 C 24.707031 12.699219 21.007812 10.515625 21.007812 10.515625 L 16.835938 14.28125 L 21.019531 18.523438 L 24.699219 16.371094 C 25.347656 16.015625 25.78125 15.324219 25.78125 14.53125 C 25.78125 13.734375 25.351562 13.050781 24.710938 12.699219 Z M 24.714844 12.699219 " fill-opacity="1" fill-rule="nonzero"/><path fill="#4285f4" d="M 9.398438 6.734375 C 9.355469 6.90625 9.328125 7.085938 9.328125 7.269531 L 9.328125 21.765625 C 9.328125 21.949219 9.355469 22.128906 9.398438 22.300781 L 17.273438 14.308594 Z M 9.398438 6.734375 " fill-opacity="1" fill-rule="nonzero"/><path fill="#34a853" d="M 17.070312 14.515625 L 21.011719 10.515625 L 12.449219 5.476562 C 12.140625 5.289062 11.777344 5.179688 11.386719 5.179688 C 10.4375 5.179688 9.636719 5.832031 9.402344 6.726562 C 9.402344 6.726562 17.070312 14.511719 17.070312 14.511719 Z M 17.070312 14.515625 " fill-opacity="1" fill-rule="nonzero"/></svg>