<svg xmlns="http://www.w3.org/2000/svg" xmlns:xlink="http://www.w3.org/1999/xlink" width="100" zoomAndPan="magnify" viewBox="0 0 75.119995 83.04" height="100" preserveAspectRatio="xMidYMid meet" version="1.0"><defs><clipPath id="07daf8ec30"><path d="M 30 23 L 69.699219 23 L 69.699219 71.933594 L 30 71.933594 Z M 30 23 " clip-rule="nonzero"/></clipPath><clipPath id="86be8258c5"><path d="M 12.617188 15 L 55 15 L 55 71.933594 L 12.617188 71.933594 Z M 12.617188 15 " clip-rule="nonzero"/></clipPath><clipPath id="f042a4c095"><path d="M 2 3.101562 L 31.472656 3.101562 L 31.472656 31.269531 L 2 31.269531 Z M 2 3.101562 " clip-rule="nonzero"/></clipPath></defs><g clip-path="url(#07daf8ec30)"><path fill="#e4645a" d="M 69.609375 30.054688 C 69.566406 29.820312 69.449219 29.628906 69.265625 29.480469 C 69.082031 29.328125 68.871094 29.257812 68.632812 29.261719 L 62.855469 29.074219 L 60.796875 23.667969 C 60.714844 23.457031 60.574219 23.292969 60.378906 23.175781 C 60.179688 23.0625 59.96875 23.019531 59.742188 23.050781 C 59.515625 23.085938 59.324219 23.183594 59.167969 23.351562 C 59.011719 23.519531 58.925781 23.714844 58.90625 23.945312 L 58.25 33.902344 C 53.363281 36.679688 48.664062 39.746094 44.148438 43.097656 L 44.003906 41.445312 C 43.996094 41.226562 43.925781 41.035156 43.789062 40.867188 C 43.65625 40.699219 43.484375 40.585938 43.273438 40.53125 C 43.066406 40.476562 42.863281 40.488281 42.660156 40.570312 C 42.460938 40.648438 42.304688 40.78125 42.191406 40.964844 C 40.914062 42.753906 40.003906 44.710938 39.457031 46.839844 C 37.414062 48.585938 35.554688 50.511719 33.875 52.617188 C 33.828125 52.671875 33.785156 52.730469 33.75 52.792969 L 33.378906 53.253906 C 31.351562 56.082031 30.910156 61.488281 30.820312 63.046875 C 30.734375 64.605469 30.695312 67.941406 31.417969 69.902344 C 31.433594 69.960938 31.453125 70.015625 31.476562 70.066406 L 31.476562 70.1875 C 31.667969 70.679688 31.972656 71.085938 32.398438 71.398438 C 32.960938 71.746094 33.570312 71.898438 34.230469 71.859375 C 34.722656 71.851562 35.210938 71.808594 35.699219 71.722656 C 39.617188 71.085938 46.734375 68.023438 49.183594 64.664062 L 49.28125 64.527344 C 50.265625 63.15625 51.167969 61.734375 51.984375 60.253906 L 60.40625 55.566406 C 60.589844 55.460938 60.726562 55.3125 60.816406 55.117188 C 60.90625 54.925781 60.929688 54.726562 60.886719 54.515625 C 60.84375 54.308594 60.746094 54.128906 60.585938 53.984375 C 60.429688 53.839844 60.246094 53.757812 60.035156 53.734375 L 55.226562 53.253906 C 57.488281 47.40625 59.121094 41.386719 60.121094 35.195312 L 69.082031 31.152344 C 69.289062 31.050781 69.4375 30.898438 69.539062 30.695312 C 69.636719 30.488281 69.660156 30.277344 69.609375 30.054688 Z M 33.5625 69.804688 L 35.71875 65.789062 C 35.78125 65.675781 35.816406 65.550781 35.832031 65.421875 C 35.84375 65.292969 35.832031 65.167969 35.792969 65.042969 C 35.757812 64.917969 35.699219 64.804688 35.617188 64.707031 C 35.535156 64.605469 35.433594 64.523438 35.320312 64.460938 C 35.207031 64.398438 35.085938 64.363281 34.957031 64.347656 C 34.828125 64.335938 34.699219 64.347656 34.574219 64.386719 C 34.453125 64.421875 34.339844 64.480469 34.238281 64.5625 C 34.136719 64.644531 34.054688 64.742188 33.996094 64.859375 L 32.867188 66.953125 C 32.566406 63.273438 33.121094 57.160156 35.050781 54.46875 L 35.140625 54.351562 C 35.84375 54.335938 36.539062 54.378906 37.234375 54.480469 C 37.929688 54.585938 38.613281 54.746094 39.277344 54.964844 C 39.945312 55.183594 40.589844 55.460938 41.210938 55.789062 C 41.832031 56.117188 42.417969 56.5 42.972656 56.929688 C 43.53125 57.359375 44.042969 57.832031 44.519531 58.351562 C 44.992188 58.871094 45.421875 59.425781 45.800781 60.015625 C 46.179688 60.605469 46.507812 61.226562 46.78125 61.871094 C 47.054688 62.519531 47.269531 63.183594 47.429688 63.871094 C 44.335938 67.453125 34.894531 70.644531 33.5625 69.804688 Z M 56.722656 55.359375 L 53.5625 57.171875 C 53.875 56.503906 54.167969 55.839844 54.460938 55.210938 Z M 50.515625 58.816406 C 50.144531 59.5 49.769531 60.175781 49.371094 60.84375 L 48.78125 61.824219 C 48.332031 60.535156 47.707031 59.335938 46.90625 58.230469 C 46.109375 57.121094 45.167969 56.152344 44.089844 55.316406 C 43.007812 54.484375 41.832031 53.820312 40.558594 53.328125 C 39.285156 52.835938 37.96875 52.53125 36.609375 52.421875 C 37.511719 51.390625 38.464844 50.414062 39.46875 49.484375 C 39.503906 49.640625 39.550781 49.792969 39.605469 49.945312 C 39.652344 50.066406 39.71875 50.171875 39.808594 50.269531 C 39.898438 50.363281 40 50.4375 40.121094 50.492188 C 40.238281 50.542969 40.363281 50.574219 40.492188 50.578125 C 40.621094 50.582031 40.746094 50.558594 40.871094 50.511719 C 40.992188 50.46875 41.097656 50.398438 41.195312 50.308594 C 41.289062 50.222656 41.363281 50.117188 41.414062 50 C 41.46875 49.878906 41.496094 49.753906 41.5 49.625 C 41.503906 49.496094 41.484375 49.371094 41.4375 49.25 C 40.976562 48.035156 41.5625 46.210938 42.308594 44.65625 L 42.757812 49.785156 C 42.78125 50.039062 42.886719 50.253906 43.074219 50.421875 C 43.261719 50.59375 43.484375 50.679688 43.738281 50.679688 L 43.828125 50.679688 C 44.09375 50.65625 44.316406 50.539062 44.492188 50.332031 C 44.664062 50.128906 44.738281 49.890625 44.71875 49.621094 L 44.335938 45.417969 C 48.65625 42.125 53.164062 39.109375 57.859375 36.371094 C 57.136719 40.523438 55 50.394531 50.515625 58.816406 Z M 60.308594 32.933594 L 60.621094 28.535156 L 61.316406 30.378906 C 61.386719 30.5625 61.503906 30.710938 61.664062 30.824219 C 61.824219 30.9375 62 30.996094 62.199219 31.003906 L 64.421875 31.082031 Z M 60.308594 32.933594 " fill-opacity="1" fill-rule="nonzero"/></g><path fill="#e4645a" d="M 42.519531 64.019531 C 42.625 64.09375 42.710938 64.1875 42.78125 64.296875 C 42.847656 64.40625 42.894531 64.527344 42.914062 64.65625 C 42.9375 64.78125 42.929688 64.910156 42.902344 65.035156 C 42.871094 65.164062 42.820312 65.28125 42.746094 65.386719 C 42.667969 65.492188 42.578125 65.578125 42.464844 65.648438 C 42.355469 65.714844 42.238281 65.761719 42.109375 65.78125 C 41.980469 65.804688 41.851562 65.796875 41.726562 65.769531 C 41.601562 65.738281 41.484375 65.6875 41.378906 65.613281 C 41.273438 65.535156 41.1875 65.445312 41.117188 65.332031 C 41.046875 65.222656 41.003906 65.105469 40.980469 64.976562 C 40.960938 64.847656 40.964844 64.71875 40.996094 64.59375 C 41.023438 64.46875 41.074219 64.351562 41.152344 64.246094 C 41.226562 64.140625 41.320312 64.054688 41.429688 63.984375 C 41.539062 63.914062 41.660156 63.871094 41.789062 63.847656 C 41.914062 63.828125 42.042969 63.832031 42.167969 63.863281 C 42.296875 63.890625 42.414062 63.941406 42.519531 64.019531 Z M 42.519531 64.019531 " fill-opacity="1" fill-rule="nonzero"/><g clip-path="url(#86be8258c5)"><path fill="#e4645a" d="M 34.628906 36.242188 C 35.183594 36.15625 35.71875 36 36.238281 35.78125 C 38.042969 35.992188 39.855469 36.101562 41.671875 36.105469 C 46.792969 36.105469 53.121094 35.128906 54.402344 30.613281 C 56.800781 21.679688 48.234375 16.558594 43.367188 15.0625 C 43.234375 15.023438 43.105469 15.011719 42.96875 15.027344 C 42.835938 15.042969 42.710938 15.082031 42.589844 15.148438 C 42.472656 15.210938 42.371094 15.296875 42.285156 15.402344 C 42.203125 15.507812 42.140625 15.625 42.101562 15.757812 C 42.066406 15.886719 42.054688 16.019531 42.070312 16.152344 C 42.085938 16.289062 42.125 16.414062 42.1875 16.53125 C 42.253906 16.652344 42.339844 16.753906 42.445312 16.835938 C 42.550781 16.921875 42.667969 16.980469 42.796875 17.019531 C 43.296875 17.167969 55.011719 20.820312 52.472656 30.140625 C 51.847656 32.433594 49.054688 33.480469 45.953125 33.914062 C 47.066406 33.375 48.011719 32.625 48.785156 31.660156 C 49.554688 30.691406 50.082031 29.605469 50.359375 28.398438 C 50.566406 27.542969 50.585938 26.683594 50.414062 25.820312 C 50.242188 24.953125 49.898438 24.164062 49.378906 23.453125 C 46.253906 18.976562 37.460938 17.824219 37.089844 17.773438 C 36.820312 17.742188 36.582031 17.808594 36.371094 17.976562 C 36.15625 18.140625 36.035156 18.359375 36 18.625 C 35.96875 18.894531 36.039062 19.132812 36.203125 19.34375 C 36.371094 19.558594 36.585938 19.679688 36.855469 19.710938 C 36.933594 19.710938 45.148438 20.769531 47.800781 24.519531 C 48.15625 25.007812 48.390625 25.550781 48.503906 26.144531 C 48.617188 26.734375 48.597656 27.324219 48.449219 27.910156 C 47.46875 32.226562 42.574219 33.414062 39.066406 33.695312 C 39.566406 33.101562 39.957031 32.4375 40.230469 31.710938 L 42.894531 24.855469 C 43.039062 24.5 42.988281 24.171875 42.75 23.875 C 42.519531 23.582031 42.21875 23.460938 41.847656 23.511719 L 32.300781 24.855469 C 30.734375 25.082031 29.203125 25.453125 27.707031 25.96875 L 26.523438 26.441406 C 24.023438 27.414062 21.738281 28.753906 19.667969 30.457031 L 19.617188 30.457031 L 19.550781 30.503906 C 18.933594 31.039062 18.351562 31.605469 17.804688 32.207031 C 16.515625 33.582031 15.453125 35.117188 14.625 36.8125 C 14.59375 36.867188 14.566406 36.925781 14.546875 36.988281 C 13.480469 39.238281 12.902344 41.609375 12.8125 44.097656 L 12.8125 44.144531 C 12.636719 49.042969 14.230469 54.59375 17.5625 60.53125 C 17.605469 62.5 17.9375 64.421875 18.566406 66.292969 C 19.191406 68.164062 20.082031 69.898438 21.234375 71.496094 C 21.429688 71.742188 21.683594 71.863281 21.996094 71.859375 C 22.128906 71.859375 22.257812 71.832031 22.378906 71.78125 C 22.585938 71.695312 22.742188 71.554688 22.851562 71.363281 C 22.960938 71.167969 23 70.964844 22.96875 70.742188 L 22.3125 66.0625 C 24.074219 66.578125 25.859375 66.996094 27.667969 67.316406 C 27.898438 67.359375 28.113281 67.324219 28.316406 67.210938 C 28.523438 67.097656 28.667969 66.933594 28.753906 66.71875 C 28.84375 66.503906 28.851562 66.28125 28.78125 66.058594 C 28.710938 65.835938 28.578125 65.660156 28.382812 65.535156 L 19.433594 59.660156 C 18.945312 56.492188 18.847656 53.3125 19.136719 50.121094 L 20.324219 49.886719 L 21.125 51.050781 C 21.199219 51.160156 21.289062 51.25 21.398438 51.324219 C 21.507812 51.394531 21.625 51.445312 21.753906 51.46875 C 21.882812 51.492188 22.011719 51.492188 22.140625 51.464844 C 22.269531 51.4375 22.386719 51.390625 22.496094 51.316406 C 22.601562 51.242188 22.691406 51.148438 22.761719 51.039062 C 22.835938 50.929688 22.882812 50.808594 22.90625 50.679688 C 22.929688 50.550781 22.925781 50.425781 22.898438 50.296875 C 22.871094 50.167969 22.816406 50.050781 22.742188 49.945312 L 21.625 48.257812 C 21.515625 48.101562 21.375 47.984375 21.195312 47.910156 C 21.019531 47.835938 20.835938 47.8125 20.648438 47.847656 L 19.472656 48.0625 C 19.679688 47.011719 19.984375 45.992188 20.382812 45 L 21.625 45 L 23.4375 46.398438 C 23.542969 46.476562 23.65625 46.535156 23.78125 46.566406 C 23.910156 46.597656 24.035156 46.605469 24.164062 46.589844 C 24.292969 46.570312 24.414062 46.527344 24.527344 46.464844 C 24.640625 46.398438 24.734375 46.3125 24.8125 46.207031 C 24.894531 46.105469 24.949219 45.988281 24.980469 45.863281 C 25.015625 45.738281 25.023438 45.609375 25.003906 45.480469 C 24.984375 45.351562 24.945312 45.230469 24.878906 45.117188 C 24.8125 45.003906 24.726562 44.910156 24.621094 44.832031 L 22.546875 43.265625 C 22.367188 43.136719 22.167969 43.074219 21.949219 43.070312 L 21.371094 43.070312 C 22.285156 41.5625 23.488281 40.335938 24.976562 39.386719 L 26.179688 40.367188 L 27.257812 41.933594 C 27.328125 42.042969 27.421875 42.132812 27.527344 42.207031 C 27.636719 42.277344 27.757812 42.328125 27.886719 42.351562 C 28.015625 42.375 28.140625 42.375 28.269531 42.347656 C 28.398438 42.320312 28.515625 42.273438 28.625 42.199219 C 28.734375 42.125 28.824219 42.03125 28.894531 41.921875 C 28.964844 41.8125 29.011719 41.691406 29.035156 41.5625 C 29.058594 41.433594 29.054688 41.308594 29.027344 41.179688 C 29 41.050781 28.949219 40.933594 28.871094 40.828125 L 27.71875 39.054688 C 27.660156 38.972656 27.589844 38.898438 27.511719 38.839844 L 26.835938 38.308594 C 27.921875 37.808594 29.046875 37.410156 30.203125 37.113281 L 30.398438 37.113281 C 31.46875 36.839844 32.605469 36.617188 33.894531 36.410156 Z M 14.769531 43.980469 C 14.835938 42.785156 15.019531 41.609375 15.328125 40.453125 C 16.050781 42.035156 17.113281 43.339844 18.511719 44.371094 C 18.078125 45.445312 17.75 46.554688 17.53125 47.691406 C 16.242188 46.730469 15.320312 45.492188 14.769531 43.980469 Z M 17.050781 55.035156 C 16.082031 52.792969 15.40625 50.464844 15.023438 48.054688 C 15.667969 48.75 16.398438 49.34375 17.210938 49.835938 C 17.019531 51.566406 16.96875 53.296875 17.050781 55.035156 Z M 22.691406 64.132812 C 22.347656 64.042969 22.023438 63.910156 21.714844 63.730469 C 21.554688 63.613281 21.378906 63.546875 21.179688 63.539062 C 20.984375 63.527344 20.796875 63.570312 20.628906 63.671875 C 20.457031 63.773438 20.328125 63.914062 20.242188 64.089844 C 20.160156 64.269531 20.128906 64.457031 20.15625 64.652344 C 19.9375 63.816406 19.769531 62.964844 19.65625 62.105469 Z M 19.382812 42.589844 C 18.59375 41.953125 17.945312 41.195312 17.441406 40.316406 C 16.933594 39.4375 16.601562 38.5 16.445312 37.496094 C 17.171875 36.058594 18.089844 34.75 19.195312 33.578125 C 19.328125 33.441406 19.453125 33.316406 19.578125 33.199219 C 20.25 35.253906 21.460938 36.925781 23.203125 38.210938 C 21.609375 39.382812 20.335938 40.835938 19.382812 42.570312 Z M 25.042969 37.046875 C 24.113281 36.488281 23.324219 35.777344 22.679688 34.90625 C 22.03125 34.035156 21.578125 33.074219 21.3125 32.023438 C 21.3125 31.925781 21.3125 31.828125 21.253906 31.730469 C 22.890625 30.421875 24.671875 29.359375 26.601562 28.546875 C 26.445312 29.640625 26.472656 30.730469 26.675781 31.816406 C 26.878906 32.902344 27.253906 33.929688 27.796875 34.890625 C 27.796875 34.960938 28.039062 35.273438 28.304688 35.65625 C 27.171875 36.003906 26.085938 36.457031 25.042969 37.015625 Z M 30.332031 35.085938 C 30 34.648438 29.625 34.109375 29.5 33.882812 C 28.996094 33.003906 28.667969 32.066406 28.519531 31.0625 C 28.371094 29.996094 28.429688 28.941406 28.695312 27.898438 L 28.695312 27.753906 C 29.957031 27.324219 31.246094 27.007812 32.566406 26.8125 L 40.398438 25.726562 L 38.34375 31.035156 C 38.046875 31.820312 37.582031 32.488281 36.953125 33.042969 C 36.597656 33.355469 36.210938 33.617188 35.785156 33.824219 C 35.730469 33.835938 35.675781 33.859375 35.628906 33.894531 C 35.226562 34.066406 34.808594 34.1875 34.375 34.253906 L 33.613281 34.382812 C 32.398438 34.648438 31.332031 34.824219 30.332031 35.066406 Z M 30.332031 35.085938 " fill-opacity="1" fill-rule="nonzero"/></g><path fill="#e4645a" d="M 36.421875 28.09375 C 36.457031 28.34375 36.398438 28.570312 36.246094 28.773438 C 36.09375 28.976562 35.890625 29.097656 35.636719 29.128906 C 35.386719 29.164062 35.160156 29.105469 34.957031 28.953125 C 34.753906 28.800781 34.632812 28.597656 34.597656 28.347656 C 34.5625 28.09375 34.625 27.867188 34.777344 27.664062 C 34.929688 27.460938 35.132812 27.34375 35.382812 27.308594 C 35.636719 27.273438 35.863281 27.332031 36.066406 27.484375 C 36.269531 27.636719 36.386719 27.839844 36.421875 28.09375 Z M 36.421875 28.09375 " fill-opacity="1" fill-rule="nonzero"/><g clip-path="url(#f042a4c095)"><path fill="#e4645a" d="M 30.890625 15.0625 C 31.261719 14.703125 31.390625 14.175781 31.230469 13.6875 C 31.070312 13.195312 30.65625 12.847656 30.144531 12.773438 L 22.085938 11.601562 C 21.824219 11.5625 21.597656 11.398438 21.480469 11.160156 L 17.878906 3.859375 C 17.648438 3.398438 17.1875 3.109375 16.671875 3.109375 C 16.160156 3.109375 15.695312 3.398438 15.46875 3.859375 L 11.863281 11.160156 C 11.746094 11.398438 11.523438 11.5625 11.261719 11.601562 L 3.203125 12.773438 C 2.691406 12.847656 2.277344 13.195312 2.117188 13.6875 C 1.957031 14.175781 2.085938 14.703125 2.457031 15.0625 L 8.289062 20.746094 C 8.476562 20.933594 8.5625 21.199219 8.519531 21.457031 L 7.140625 29.484375 C 7.054688 29.992188 7.261719 30.496094 7.675781 30.800781 C 8.09375 31.101562 8.636719 31.140625 9.089844 30.902344 L 16.300781 27.113281 C 16.535156 26.988281 16.8125 26.988281 17.046875 27.113281 L 24.257812 30.902344 C 24.453125 31.003906 24.667969 31.058594 24.882812 31.058594 C 25.160156 31.058594 25.433594 30.96875 25.671875 30.800781 C 26.085938 30.496094 26.292969 29.992188 26.207031 29.484375 L 24.828125 21.457031 C 24.785156 21.199219 24.871094 20.933594 25.058594 20.746094 Z M 24.296875 21.550781 L 25.671875 29.574219 C 25.726562 29.882812 25.605469 30.179688 25.351562 30.363281 C 25.101562 30.546875 24.78125 30.570312 24.507812 30.421875 L 17.300781 26.632812 C 17.101562 26.53125 16.886719 26.480469 16.671875 26.480469 C 16.460938 26.480469 16.242188 26.53125 16.046875 26.632812 L 8.839844 30.421875 C 8.5625 30.570312 8.246094 30.546875 7.996094 30.363281 C 7.742188 30.179688 7.621094 29.882812 7.675781 29.574219 L 9.050781 21.550781 C 9.125 21.113281 8.980469 20.667969 8.664062 20.359375 L 2.832031 14.675781 C 2.609375 14.457031 2.53125 14.148438 2.628906 13.851562 C 2.726562 13.554688 2.96875 13.351562 3.277344 13.304688 L 11.335938 12.132812 C 11.773438 12.070312 12.152344 11.796875 12.347656 11.398438 L 15.953125 4.097656 C 16.089844 3.816406 16.359375 3.648438 16.671875 3.648438 C 16.984375 3.648438 17.253906 3.816406 17.394531 4.097656 L 21 11.398438 C 21.195312 11.796875 21.574219 12.070312 22.011719 12.132812 L 30.070312 13.304688 C 30.378906 13.351562 30.621094 13.554688 30.71875 13.851562 C 30.816406 14.148438 30.738281 14.457031 30.515625 14.675781 L 24.683594 20.359375 C 24.367188 20.667969 24.222656 21.113281 24.296875 21.550781 Z M 24.296875 21.550781 " fill-opacity="1" fill-rule="nonzero"/></g><path fill="#e4645a" d="M 16.671875 12.054688 C 13.054688 12.054688 10.113281 15 10.113281 18.617188 C 10.113281 22.234375 13.054688 25.175781 16.671875 25.175781 C 20.289062 25.175781 23.234375 22.234375 23.234375 18.617188 C 23.234375 15 20.289062 12.054688 16.671875 12.054688 Z M 16.671875 24.636719 C 13.355469 24.636719 10.652344 21.9375 10.652344 18.617188 C 10.652344 15.296875 13.355469 12.597656 16.671875 12.597656 C 19.992188 12.597656 22.695312 15.296875 22.695312 18.617188 C 22.695312 21.9375 19.992188 24.636719 16.671875 24.636719 Z M 16.671875 24.636719 " fill-opacity="1" fill-rule="nonzero"/><path fill="#e4645a" d="M 18.8125 15.65625 L 15.152344 19.3125 L 13.9375 18.101562 C 13.457031 17.617188 12.613281 17.617188 12.128906 18.101562 C 11.628906 18.601562 11.628906 19.410156 12.128906 19.910156 L 14.246094 22.03125 C 14.488281 22.273438 14.8125 22.40625 15.152344 22.40625 C 15.496094 22.40625 15.816406 22.273438 16.058594 22.03125 L 20.621094 17.464844 C 21.121094 16.96875 21.121094 16.15625 20.621094 15.65625 C 20.121094 15.15625 19.308594 15.15625 18.8125 15.65625 Z M 20.238281 17.085938 L 15.675781 21.648438 C 15.394531 21.929688 14.910156 21.929688 14.628906 21.648438 L 12.511719 19.53125 C 12.222656 19.242188 12.222656 18.769531 12.511719 18.484375 C 12.648438 18.34375 12.835938 18.265625 13.035156 18.265625 C 13.230469 18.265625 13.417969 18.34375 13.558594 18.484375 L 14.960938 19.886719 C 15.066406 19.992188 15.238281 19.992188 15.34375 19.886719 L 19.191406 16.039062 C 19.480469 15.75 19.949219 15.75 20.238281 16.039062 C 20.527344 16.328125 20.527344 16.796875 20.238281 17.085938 Z M 20.238281 17.085938 " fill-opacity="1" fill-rule="nonzero"/><path fill="#e4645a" d="M 13.503906 15.019531 C 13.570312 15.019531 13.640625 14.996094 13.691406 14.941406 C 13.996094 14.648438 14.332031 14.410156 14.703125 14.226562 C 15.644531 13.761719 16.566406 13.773438 17.171875 13.867188 C 17.320312 13.890625 17.457031 13.789062 17.480469 13.640625 C 17.503906 13.496094 17.402344 13.355469 17.253906 13.332031 C 16.570312 13.230469 15.53125 13.214844 14.464844 13.742188 C 14.042969 13.949219 13.65625 14.222656 13.316406 14.558594 C 13.207031 14.660156 13.207031 14.832031 13.308594 14.9375 C 13.363281 14.992188 13.433594 15.019531 13.503906 15.019531 Z M 13.503906 15.019531 " fill-opacity="1" fill-rule="nonzero"/></svg>