<svg xmlns="http://www.w3.org/2000/svg" xmlns:xlink="http://www.w3.org/1999/xlink" width="200" zoomAndPan="magnify" viewBox="0 0 150 157.92" height="200" preserveAspectRatio="xMidYMid meet" version="1.0"><defs><clipPath id="1a6aa6ca9b"><path d="M 24 23 L 127.0625 23 L 127.0625 134.804688 L 24 134.804688 Z M 24 23 " clip-rule="nonzero"/></clipPath></defs><path fill="#dc4a3f" d="M 101.039062 39.273438 C 102.320312 38.8125 103.390625 37.746094 103.925781 36.546875 C 104.480469 35.40625 104.679688 34.441406 105.421875 33.429688 C 104.882812 33.34375 104.355469 33.617188 103.972656 34 C 103.585938 33.3125 102.953125 32.445312 102.042969 32.007812 C 101.164062 31.585938 100.160156 31.542969 99.222656 31.890625 C 98.128906 32.296875 97.210938 33.191406 96.707031 34.34375 C 95.976562 36.007812 96.175781 37.890625 96.824219 38.988281 C 95.789062 39.558594 95.011719 40.539062 94.464844 41.566406 C 94.972656 41.207031 95.460938 40.851562 95.960938 40.539062 C 96.523438 40.195312 97.132812 39.816406 97.777344 39.765625 C 98.882812 39.710938 99.964844 39.65625 101.042969 39.273438 Z M 97.695312 35.035156 C 97.722656 34.960938 97.746094 34.886719 97.78125 34.816406 C 98.160156 33.953125 98.835938 33.289062 99.628906 32.992188 C 100.277344 32.753906 100.933594 32.777344 101.535156 33.066406 C 102.433594 33.5 103.015625 34.648438 103.230469 35.140625 C 102.859375 35.949219 102.65625 36.8125 102.023438 37.398438 C 101.191406 38.109375 100.140625 38.378906 99.054688 38.515625 C 97.292969 37.753906 97.476562 35.941406 97.695312 35.039062 Z M 97.695312 35.035156 " fill-opacity="1" fill-rule="nonzero"/><path fill="#dc4a3f" d="M 101.996094 35.640625 C 101.996094 35.878906 101.953125 36.105469 101.867188 36.324219 C 101.785156 36.542969 101.664062 36.734375 101.511719 36.902344 C 101.355469 37.066406 101.175781 37.195312 100.972656 37.285156 C 100.769531 37.378906 100.558594 37.421875 100.339844 37.421875 C 100.121094 37.421875 99.910156 37.378906 99.707031 37.285156 C 99.503906 37.195312 99.324219 37.066406 99.167969 36.902344 C 99.015625 36.734375 98.894531 36.542969 98.8125 36.324219 C 98.726562 36.105469 98.683594 35.878906 98.683594 35.640625 C 98.683594 35.40625 98.726562 35.179688 98.8125 34.960938 C 98.894531 34.742188 99.015625 34.550781 99.167969 34.382812 C 99.324219 34.214844 99.503906 34.085938 99.707031 33.996094 C 99.910156 33.90625 100.121094 33.863281 100.339844 33.863281 C 100.558594 33.863281 100.769531 33.90625 100.972656 33.996094 C 101.175781 34.085938 101.355469 34.214844 101.511719 34.382812 C 101.664062 34.550781 101.785156 34.742188 101.867188 34.960938 C 101.953125 35.179688 101.996094 35.40625 101.996094 35.640625 Z M 101.996094 35.640625 " fill-opacity="1" fill-rule="nonzero"/><g clip-path="url(#1a6aa6ca9b)"><path fill="#dc4a3f" d="M 126.996094 44.363281 C 126.90625 43.273438 126.269531 41.988281 125.011719 41.945312 C 124.320312 41.9375 123.683594 42.164062 123.15625 42.605469 C 122.605469 43.105469 122.347656 43.808594 121.9375 44.378906 C 121.59375 44.882812 121.183594 45.34375 120.722656 45.765625 C 119.789062 46.625 118.691406 47.355469 117.59375 47.992188 C 116.3125 48.703125 114.890625 49.292969 113.398438 49.777344 C 114.246094 47.792969 115.882812 43.859375 117.410156 39.765625 C 121.894531 27.75 121.042969 26.117188 120.722656 25.503906 C 119.09375 22.382812 116.03125 22.851562 113.25 23.722656 C 109.136719 25.007812 86.425781 32.417969 76.4375 36.433594 C 73.496094 37.613281 54.804688 45.390625 40.65625 57.398438 C 39.328125 56.335938 34.015625 52.585938 25.128906 52.585938 C 24.5625 52.585938 24.289062 52.847656 24.164062 53.066406 C 23.839844 53.621094 24.15625 54.191406 24.640625 55.054688 C 25.363281 56.351562 26.578125 58.53125 26.578125 61.675781 C 26.578125 63.816406 26.214844 65.914062 25.859375 67.945312 C 25.285156 71.257812 24.789062 74.117188 26.089844 76.148438 L 26.101562 76.140625 C 26.0625 76.246094 26.023438 76.355469 25.980469 76.457031 C 22.871094 84.9375 24.953125 92.699219 27.25 97.71875 C 29.351562 102.3125 31.945312 105.4375 32.761719 106.367188 C 32.5 107.144531 32.292969 108.015625 32.128906 108.972656 C 32.066406 109.308594 31.964844 109.671875 31.824219 109.972656 C 31.421875 110.816406 30.742188 111.15625 29.808594 111.3125 C 29.449219 111.382812 29.0625 111.40625 28.683594 111.535156 C 28.03125 111.742188 27.71875 112.394531 27.875 113.046875 C 28.324219 114.628906 30.03125 115.257812 31.441406 115.496094 C 34.460938 115.910156 37.359375 115.125 40.160156 114.15625 C 40.460938 114.054688 40.851562 113.890625 41.214844 113.738281 C 41 114.890625 40.453125 118.960938 42.144531 124.375 C 43.796875 129.671875 45.710938 132.683594 47.410156 132.683594 C 47.453125 132.683594 47.496094 132.683594 47.539062 132.675781 C 47.734375 132.660156 48.371094 132.527344 48.433594 131.5625 C 48.453125 131.25 48.421875 130.875 48.382812 130.433594 C 48.234375 128.652344 48.21875 127.136719 49.484375 126.703125 C 51.433594 126.035156 52.53125 125.253906 53.046875 124.171875 C 53.289062 123.660156 53.386719 123.089844 53.34375 122.457031 C 53.371094 122.472656 53.398438 122.488281 53.425781 122.503906 C 60.722656 126.929688 72.5625 132.675781 87.523438 134.894531 C 87.558594 134.898438 87.597656 134.902344 87.632812 134.902344 C 87.929688 134.902344 88.207031 134.726562 88.316406 134.445312 C 88.445312 134.128906 88.34375 133.773438 88.066406 133.574219 C 88.046875 133.558594 86.089844 132.019531 85.582031 126.59375 C 85.132812 121.808594 83.6875 118.996094 83.050781 117.957031 C 83.714844 116.96875 85.347656 114.347656 86.5625 110.945312 C 88.609375 105.21875 88.429688 100.042969 86.042969 95.984375 C 85.894531 95.738281 85.621094 95.601562 85.335938 95.628906 C 85.054688 95.65625 84.808594 95.847656 84.714844 96.117188 C 84.707031 96.136719 83.984375 98.148438 82.007812 100.351562 C 79.367188 103.296875 75.855469 105.167969 71.566406 105.921875 C 67.265625 106.675781 62.710938 106.226562 61.359375 106.0625 C 61.761719 103.015625 61.539062 100.664062 61.429688 99.820312 C 69.78125 94.820312 77.941406 89.378906 85.910156 83.691406 C 86.050781 83.832031 86.191406 83.960938 86.34375 84.085938 C 87.878906 85.339844 89.933594 85.847656 91.929688 85.691406 C 92.617188 85.925781 93.351562 86.085938 94.078125 86.121094 C 94.851562 86.167969 95.601562 86.117188 96.308594 86.097656 C 97.714844 86.050781 99.046875 86.242188 100.34375 86.746094 C 102.671875 87.578125 104.972656 89.140625 106.253906 91.320312 C 106.410156 91.585938 106.734375 91.683594 107.027344 91.570312 C 107.03125 91.566406 107.039062 91.5625 107.042969 91.5625 C 107.371094 91.429688 107.550781 91.066406 107.457031 90.730469 C 107.398438 90.511719 107.34375 90.320312 107.34375 90.320312 C 107.230469 89.851562 107 89.292969 106.839844 88.839844 C 106.558594 88.082031 106.148438 87.179688 105.769531 86.472656 C 103.535156 82.214844 100.117188 78.824219 96.234375 76.132812 C 100.273438 73.097656 104.265625 70.027344 108.207031 66.9375 C 109.871094 65.953125 111.457031 64.828125 112.984375 63.644531 C 116.175781 61.167969 119.132812 58.414062 121.84375 55.414062 C 123.664062 53.390625 125.476562 51.207031 126.359375 48.578125 C 126.828125 47.226562 127.148438 45.832031 127 44.363281 Z M 116.035156 39.246094 C 114.117188 44.378906 112.019531 49.265625 111.566406 50.320312 C 110.785156 50.527344 109.996094 50.710938 109.207031 50.871094 C 113.757812 42.664062 117.234375 34.53125 118.996094 30.160156 C 118.511719 32.109375 117.621094 34.992188 116.03125 39.25 Z M 25.921875 54.335938 C 25.871094 54.25 25.820312 54.15625 25.769531 54.0625 C 33.320312 54.230469 38.066406 57.296875 39.515625 58.382812 C 34.160156 63.105469 29.5625 68.445312 26.886719 74.273438 C 26.628906 73.164062 26.742188 71.761719 26.980469 70.183594 C 27.171875 69.945312 27.378906 69.707031 27.582031 69.476562 C 28.292969 68.6875 29.011719 67.898438 29.886719 67.285156 C 28.941406 67.628906 28.074219 68.128906 27.226562 68.667969 C 27.253906 68.515625 27.28125 68.359375 27.308594 68.203125 C 27.445312 67.402344 27.59375 66.554688 27.71875 65.683594 C 27.988281 65.492188 28.277344 65.300781 28.558594 65.121094 C 29.757812 64.363281 31.023438 63.695312 32.394531 63.292969 C 30.835938 63.429688 29.328125 63.863281 27.878906 64.445312 C 27.96875 63.648438 28.03125 62.84375 28.042969 62.03125 C 28.210938 61.949219 28.386719 61.871094 28.550781 61.804688 C 30.445312 61.03125 32.488281 60.621094 34.507812 60.320312 C 32.71875 60.28125 30.910156 60.34375 29.140625 60.640625 C 28.765625 60.710938 28.390625 60.78125 28.019531 60.875 C 27.964844 59.949219 27.816406 59.109375 27.617188 58.347656 C 28.691406 58.121094 29.792969 58 30.890625 57.914062 C 32.214844 57.816406 33.601562 57.804688 34.933594 57.851562 C 32.421875 57.40625 29.851562 57.117188 27.300781 57.296875 C 26.855469 56.015625 26.304688 55.027344 25.921875 54.339844 Z M 51.71875 123.542969 C 51.515625 123.96875 51.101562 124.351562 50.453125 124.699219 C 50.367188 124.617188 50.28125 124.523438 50.203125 124.441406 C 49.085938 123.21875 48.210938 121.777344 47.566406 120.25 C 47.917969 121.964844 48.511719 123.660156 49.441406 125.152344 C 49.304688 125.203125 49.160156 125.253906 49.011719 125.308594 C 48.289062 125.554688 47.800781 125.976562 47.472656 126.488281 C 46.738281 125.089844 46.085938 123.632812 45.527344 122.15625 C 45.082031 120.941406 44.707031 119.738281 44.28125 118.5 C 44.21875 121.503906 45.460938 125.234375 46.941406 127.960938 C 46.785156 128.886719 46.863281 129.855469 46.921875 130.550781 C 46.929688 130.65625 46.9375 130.777344 46.945312 130.890625 C 46.289062 130.300781 45.015625 128.621094 43.550781 123.929688 C 42.222656 119.675781 42.375 116.277344 42.5625 114.703125 C 44.253906 116.167969 47.308594 118.617188 51.609375 121.363281 C 51.933594 122.289062 51.972656 123 51.71875 123.535156 Z M 71.820312 107.367188 C 77.609375 106.351562 81.175781 103.492188 83.148438 101.277344 C 84.242188 100.050781 84.976562 98.890625 85.441406 98.027344 C 86.085938 99.496094 86.441406 101.085938 86.511719 102.792969 C 85.816406 103.347656 85.074219 103.859375 84.320312 104.332031 C 83.144531 105.089844 81.902344 105.75 80.648438 106.363281 C 78.4375 107.417969 76.070312 108.261719 73.707031 108.898438 C 73.402344 108.992188 72.992188 109.082031 72.675781 109.160156 L 71.640625 109.414062 C 71.640625 109.414062 72.699219 109.28125 72.699219 109.28125 C 77.394531 108.660156 82.484375 106.875 86.503906 104.195312 C 86.445312 105.414062 86.25 106.6875 85.917969 108.007812 C 85.164062 108.433594 84.339844 108.78125 83.539062 109.105469 C 82.433594 109.542969 81.1875 109.953125 80.046875 110.285156 C 77.710938 110.96875 75.1875 111.480469 72.792969 111.929688 C 72.488281 111.984375 72.183594 112.042969 71.875 112.105469 C 72.1875 112.101562 72.5 112.089844 72.8125 112.082031 C 74.984375 112.007812 77.203125 111.734375 79.339844 111.3125 C 81.429688 110.886719 83.535156 110.363281 85.496094 109.503906 C 85.402344 109.804688 85.300781 110.101562 85.191406 110.40625 C 84.859375 111.347656 84.488281 112.226562 84.113281 113.027344 C 83.71875 113.117188 83.3125 113.203125 82.90625 113.28125 C 81.667969 113.527344 80.386719 113.730469 79.132812 113.914062 C 77.046875 114.210938 74.355469 114.425781 72.234375 114.621094 C 74.546875 114.921875 76.890625 114.90625 79.21875 114.78125 C 80.648438 114.691406 82.066406 114.554688 83.476562 114.328125 C 82.667969 115.882812 81.941406 116.976562 81.679688 117.359375 C 80.992188 117.371094 80.300781 117.375 79.617188 117.371094 C 77.035156 117.359375 74.453125 117.296875 71.878906 117.054688 C 75.101562 117.726562 78.371094 118.140625 81.648438 118.480469 C 81.832031 118.75 82.394531 119.652344 82.949219 121.210938 C 79.074219 120.929688 75.226562 120.328125 71.398438 119.636719 C 74.324219 120.753906 77.394531 121.464844 80.476562 122.007812 C 81.421875 122.171875 82.375 122.296875 83.332031 122.402344 C 83.546875 123.164062 83.746094 124.03125 83.902344 125.007812 C 82.320312 124.777344 80.710938 124.535156 79.144531 124.25 C 76.164062 123.71875 73.214844 123.058594 70.265625 122.339844 C 73.574219 123.921875 77.152344 124.875 80.726562 125.640625 C 81.835938 125.871094 82.949219 126.058594 84.070312 126.222656 C 84.089844 126.386719 84.105469 126.554688 84.121094 126.722656 C 84.207031 127.605469 84.324219 128.390625 84.46875 129.101562 C 82.53125 128.738281 80.558594 128.363281 78.644531 127.921875 C 75.027344 127.109375 71.453125 126.132812 67.90625 125.039062 C 72.59375 127.359375 77.664062 128.828125 82.757812 129.957031 C 83.425781 130.097656 84.097656 130.226562 84.769531 130.351562 C 85.109375 131.5625 85.519531 132.472656 85.902344 133.140625 C 72.070312 130.78125 61.101562 125.429688 54.230469 121.265625 C 48.371094 117.714844 44.449219 114.425781 42.851562 113 C 45.289062 111.792969 47.550781 110.21875 49.511719 108.335938 C 49.964844 109.277344 50.898438 110.191406 51.871094 111.144531 C 53.058594 112.3125 54.40625 113.632812 54.355469 114.640625 C 54.265625 116.414062 55.03125 116.882812 55.492188 117 C 55.605469 117.03125 55.71875 117.042969 55.835938 117.042969 C 56.871094 117.042969 58.039062 115.898438 59.027344 113.886719 C 60.109375 111.667969 60.753906 109.484375 61.125 107.507812 C 62.492188 107.679688 67.214844 108.167969 71.820312 107.359375 Z M 50.703125 107.121094 C 51.160156 106.621094 51.59375 106.105469 52.007812 105.570312 C 52.152344 105.378906 52.289062 105.1875 52.429688 104.984375 C 54.984375 103.582031 57.519531 102.132812 60.035156 100.644531 C 60.203125 102.703125 60.300781 107.929688 57.703125 113.242188 C 56.929688 114.820312 56.183594 115.445312 55.898438 115.558594 C 55.855469 115.453125 55.792969 115.210938 55.820312 114.71875 C 55.835938 114.355469 55.777344 114 55.664062 113.65625 C 56.058594 113.0625 56.386719 112.429688 56.683594 111.785156 C 57.726562 109.515625 58.304688 107.066406 58.578125 104.597656 C 58.382812 105.378906 58.175781 106.199219 57.917969 106.964844 C 57.25 108.9375 56.371094 110.894531 55.097656 112.550781 C 54.832031 112.152344 54.507812 111.765625 54.152344 111.378906 C 54.824219 110.347656 55.382812 109.265625 55.875 108.140625 C 56.390625 106.96875 56.796875 105.753906 57.101562 104.515625 C 56.183594 106.707031 54.917969 108.769531 53.355469 110.558594 C 53.199219 110.40625 53.046875 110.253906 52.890625 110.101562 C 52.679688 109.894531 52.464844 109.683594 52.257812 109.472656 C 53.285156 108.308594 54.175781 107 54.664062 105.523438 C 53.878906 106.800781 52.753906 107.839844 51.535156 108.703125 C 51.007812 108.097656 50.640625 107.53125 50.699219 107.121094 Z M 88.46875 84.15625 C 87.808594 83.929688 87.207031 83.582031 86.679688 83.140625 C 86.984375 82.921875 87.292969 82.703125 87.597656 82.480469 C 87.996094 83.082031 88.40625 83.675781 88.824219 84.261719 C 88.707031 84.230469 88.585938 84.191406 88.46875 84.152344 Z M 92.738281 84.65625 C 92.738281 84.65625 92.261719 84.503906 92.261719 84.503906 C 92.261719 84.503906 92.121094 84.457031 92.121094 84.457031 C 91.429688 84.570312 90.722656 84.582031 90.03125 84.503906 C 89.324219 83.761719 88.628906 83.003906 87.953125 82.230469 C 88.53125 81.8125 89.113281 81.394531 89.6875 80.972656 L 92.898438 84.703125 C 92.84375 84.6875 92.792969 84.675781 92.738281 84.65625 Z M 96.339844 84.882812 C 95.582031 84.910156 94.867188 84.945312 94.164062 84.898438 L 89.863281 80.84375 C 90.402344 80.449219 90.941406 80.054688 91.480469 79.660156 C 91.828125 79.953125 92.175781 80.246094 92.511719 80.550781 C 93.71875 81.628906 94.878906 82.75 96.015625 83.902344 C 96.328125 84.226562 96.644531 84.550781 96.953125 84.878906 C 96.746094 84.875 96.539062 84.878906 96.335938 84.882812 Z M 98.609375 85.011719 C 98.46875 84.988281 98.332031 84.972656 98.191406 84.953125 C 96.074219 83.050781 93.882812 81.238281 91.5625 79.597656 C 92.105469 79.199219 92.652344 78.796875 93.191406 78.394531 C 95.765625 80.226562 98.171875 82.296875 100.449219 84.492188 C 101.007812 85.035156 101.5625 85.582031 102.105469 86.144531 C 101 85.617188 99.835938 85.210938 98.605469 85.011719 Z M 104.839844 87.777344 C 101.730469 83.945312 98.097656 80.550781 94.058594 77.753906 C 94.367188 77.523438 94.675781 77.296875 94.984375 77.066406 C 98.957031 79.871094 102.539062 83.414062 104.839844 87.777344 Z M 102.601562 69.472656 C 102.617188 69.457031 102.632812 69.445312 102.644531 69.429688 C 102.652344 69.429688 102.660156 69.425781 102.667969 69.421875 C 102.644531 69.4375 102.625 69.457031 102.601562 69.472656 Z M 125.113281 48.136719 C 124.28125 50.609375 122.570312 52.59375 120.84375 54.507812 C 117.257812 58.367188 113.277344 61.882812 108.960938 64.90625 C 107.335938 66.023438 105.660156 67.09375 103.882812 67.953125 C 104.242188 67.46875 104.566406 66.960938 104.84375 66.421875 C 100.605469 69.398438 101.183594 69.898438 97.035156 69.984375 C 97.699219 69.140625 98.230469 68.144531 98.488281 67.230469 C 97.855469 68.207031 96.925781 68.988281 95.945312 69.59375 C 95.652344 69.761719 95.429688 69.824219 95.070312 69.996094 C 95 70.035156 94.925781 70.074219 94.925781 70.074219 C 94.265625 70.476562 93.664062 70.769531 92.957031 71.054688 C 91.5625 71.617188 89.871094 71.925781 88.464844 71.378906 C 89.832031 70.546875 90.976562 69.363281 91.902344 68.070312 C 91.152344 68.714844 90.328125 69.289062 89.449219 69.742188 C 88.628906 70.140625 87.769531 70.488281 86.863281 70.59375 C 85.199219 70.820312 83.289062 70.761719 81.792969 69.964844 C 83.4375 69.507812 85.023438 68.746094 86.46875 68.003906 C 87.414062 67.496094 88.3125 66.957031 89.207031 66.359375 C 91.566406 67.011719 94.046875 67.25 96.484375 67.074219 C 103.867188 66.507812 111.21875 62.414062 116.148438 56.980469 C 108.789062 63.035156 98.914062 67.773438 89.277344 65.003906 L 88.972656 64.921875 C 88.4375 65.289062 87.863281 65.609375 87.289062 65.929688 C 84.707031 67.308594 81.0625 69.101562 78.121094 68.695312 C 76.578125 68.417969 75.191406 67.585938 73.921875 66.636719 C 71.96875 65.109375 69.757812 62.878906 68.996094 60.496094 C 68.515625 58.769531 70.113281 54.574219 70.800781 52.800781 C 71.421875 51.285156 72.074219 49.714844 72.964844 48.367188 C 73.085938 48.199219 73.242188 47.972656 73.382812 47.902344 C 74.730469 47.148438 76.109375 46.433594 77.464844 45.683594 C 77.492188 47.214844 77.621094 55.261719 77.621094 55.261719 L 77.621094 55.414062 C 77.621094 55.414062 77.703125 55.535156 77.703125 55.535156 C 79.808594 58.675781 83.429688 62.144531 87.46875 61.921875 C 89.476562 61.78125 91.523438 60.972656 92.722656 59.300781 C 93.148438 58.714844 93.488281 58.039062 93.628906 57.332031 C 93.476562 57.769531 93.25 58.167969 92.996094 58.546875 C 92.339844 59.484375 91.390625 60.222656 90.332031 60.636719 C 86.511719 62.082031 83.554688 60.414062 80.867188 57.710938 C 80.066406 56.898438 79.3125 56.015625 78.648438 55.085938 C 78.644531 54.78125 78.496094 45.761719 78.488281 45.105469 C 78.996094 44.808594 79.5 44.507812 79.996094 44.191406 C 81.917969 42.941406 83.871094 41.597656 85.308594 39.773438 C 82.511719 41.515625 79.25 43.085938 76.335938 44.640625 C 75.09375 45.296875 73.808594 45.921875 72.5625 46.597656 C 71.3125 47.347656 69.875 50.785156 69.273438 52.179688 C 68.613281 53.796875 68.023438 55.449219 67.585938 57.148438 C 67.039062 59.355469 66.902344 60.679688 68.085938 62.714844 C 70.019531 66.019531 73.996094 69.667969 77.859375 70.332031 C 78.503906 70.414062 79.152344 70.414062 79.792969 70.347656 C 80.707031 71.214844 81.929688 71.730469 83.136719 71.980469 C 84.328125 72.226562 85.546875 72.230469 86.738281 72.089844 C 87.980469 73.050781 89.710938 73.285156 91.21875 73.058594 C 92.652344 72.84375 93.980469 72.285156 95.21875 71.578125 C 97.195312 72.011719 98.535156 72.035156 99.363281 71.960938 C 84.089844 83.621094 68.269531 94.644531 51.410156 103.867188 C 50.769531 104.78125 49.960938 105.648438 49.160156 106.433594 C 47.019531 108.523438 44.515625 110.257812 41.796875 111.515625 C 41.171875 111.835938 40.382812 112.121094 39.730469 112.386719 C 37.636719 113.101562 35.457031 113.710938 33.246094 113.777344 C 32.179688 113.777344 30.972656 113.707031 30.09375 113.097656 C 30.105469 113.09375 30.117188 113.09375 30.132812 113.089844 C 31.144531 112.929688 31.992188 112.507812 32.625 111.867188 C 35.5625 111.300781 38.425781 110.480469 41.183594 109.339844 C 42.144531 108.933594 43.078125 108.472656 43.984375 107.964844 C 40.65625 109.429688 37.058594 110.214844 33.457031 110.636719 C 33.605469 110.296875 33.722656 109.925781 33.796875 109.527344 C 33.90625 108.90625 34.015625 108.324219 34.148438 107.777344 C 35.355469 107.703125 36.519531 107.558594 37.707031 107.382812 C 38.984375 107.1875 40.246094 106.945312 41.5 106.660156 C 39.164062 106.816406 36.792969 106.859375 34.460938 106.671875 C 34.789062 105.691406 35.234375 104.886719 35.925781 104.292969 C 35.980469 104.304688 36.039062 104.316406 36.097656 104.328125 C 37.554688 104.59375 39.054688 104.644531 40.535156 104.644531 C 40.230469 104.574219 39.617188 104.421875 39.316406 104.339844 C 38.558594 104.125 37.792969 103.902344 37.050781 103.617188 C 37.722656 103.34375 38.546875 103.1875 39.570312 103.167969 C 40.609375 103.144531 41.660156 103.253906 42.660156 103.550781 C 43.289062 103.734375 43.996094 104.015625 44.6875 104.1875 C 45.433594 104.371094 46.226562 104.382812 46.976562 104.242188 C 47.839844 104.066406 48.648438 103.734375 49.414062 103.3125 C 49.128906 103.335938 48.84375 103.367188 48.566406 103.402344 C 47.765625 103.46875 46.925781 103.53125 46.136719 103.382812 C 45.046875 103.21875 44.175781 102.621094 43.113281 102.222656 C 42.269531 101.898438 41.351562 101.726562 40.449219 101.664062 C 36.769531 101.449219 34.660156 102.566406 33.410156 104.871094 C 32.359375 103.597656 30.285156 100.84375 28.582031 97.117188 C 26.402344 92.347656 24.421875 84.984375 27.355469 76.976562 C 35.398438 55.054688 72.75 39.5 76.984375 37.796875 C 86.9375 33.796875 109.582031 26.40625 113.6875 25.125 C 117.132812 24.046875 118.441406 24.585938 119.242188 25.882812 C 118.125 25.835938 116.945312 26.382812 116.121094 27.035156 C 111.003906 31.132812 107.054688 39.882812 104.308594 45.832031 C 103.160156 48.488281 102.226562 51.277344 100.585938 53.644531 C 100.332031 53.996094 100.015625 54.445312 99.597656 54.371094 C 98.945312 54.242188 98.882812 53.53125 98.957031 52.9375 C 99.164062 51.484375 99.90625 50 100.4375 48.605469 C 100.519531 48.382812 100.707031 47.925781 100.796875 47.707031 C 103.078125 42.25 106.179688 37.128906 109.511719 32.230469 C 105.089844 36.378906 101.402344 41.3125 98.695312 46.753906 C 98.066406 48.007812 97.539062 49.285156 97.28125 50.679688 C 97.03125 52.1875 96.824219 54.199219 98.148438 55.351562 C 99.425781 56.371094 100.910156 55.890625 101.953125 54.855469 C 102.492188 54.339844 102.886719 53.714844 103.234375 53.074219 C 104.367188 52.976562 105.480469 52.839844 106.605469 52.671875 C 111.269531 51.925781 116.074219 50.824219 119.988281 48.042969 C 121.132812 47.234375 122.226562 46.308594 123.03125 45.132812 C 123.5625 44.402344 123.71875 43.714844 124.296875 43.433594 C 124.515625 43.320312 124.972656 43.199219 125.152344 43.324219 C 125.492188 43.519531 125.640625 44.085938 125.6875 44.519531 C 125.808594 45.714844 125.515625 46.992188 125.113281 48.140625 Z M 125.113281 48.136719 " fill-opacity="1" fill-rule="nonzero"/></g><path fill="#dc4a3f" d="M 46.308594 77.636719 C 45.832031 77.992188 45.210938 78.410156 44.773438 78.808594 C 44.773438 78.808594 44.585938 78.964844 44.375 79.144531 C 44.046875 79.421875 43.996094 79.90625 44.25 80.246094 C 44.257812 80.253906 44.261719 80.257812 44.265625 80.265625 C 44.496094 80.570312 44.90625 80.675781 45.25 80.511719 C 48.085938 79.140625 51.582031 79.042969 54.609375 79.703125 C 56.324219 80.027344 57.863281 80.6875 59.324219 81.636719 C 60.0625 82.109375 60.824219 82.640625 61.671875 83.089844 C 62.464844 83.519531 63.355469 83.832031 64.242188 84.035156 C 65.582031 84.996094 67.148438 85.671875 68.78125 85.933594 C 65.996094 87.796875 56.464844 94.464844 50.535156 102.132812 C 50.535156 102.132812 64.195312 90.519531 72.59375 85.734375 C 73.355469 85.515625 74.089844 85.203125 74.796875 84.855469 C 77.296875 83.574219 79.535156 81.746094 81.359375 79.628906 C 80.746094 80.136719 80.113281 80.613281 79.46875 81.074219 C 77.578125 82.425781 75.515625 83.671875 73.332031 84.421875 C 71.925781 84.925781 70.410156 85.054688 68.949219 84.714844 C 68.800781 84.679688 68.648438 84.640625 68.5 84.601562 C 70.632812 83.777344 72.730469 82.878906 74.8125 81.9375 C 72.25 82.730469 69.664062 83.464844 67.054688 84.066406 C 66.269531 83.699219 65.535156 83.230469 64.878906 82.679688 L 64.695312 82.632812 C 64.695312 82.632812 64.089844 82.484375 64.089844 82.484375 C 64.023438 82.46875 63.957031 82.449219 63.890625 82.429688 L 72.261719 80.03125 L 62.414062 81.816406 C 61.636719 81.410156 60.90625 80.910156 60.121094 80.402344 C 59.90625 80.265625 59.691406 80.132812 59.46875 80 C 60.019531 79.871094 60.570312 79.746094 61.121094 79.625 C 63.105469 79.195312 65.097656 78.808594 67.101562 78.5 C 68.105469 78.34375 69.113281 78.210938 70.125 78.101562 C 66.09375 78.203125 62.085938 78.660156 58.101562 79.289062 C 57.945312 79.214844 57.785156 79.144531 57.625 79.078125 C 56.191406 78.492188 54.679688 78.152344 53.15625 77.976562 C 54.109375 77.761719 55.066406 77.5625 56.023438 77.375 C 61.949219 76.246094 68 75.578125 74.039062 75.902344 C 75.636719 75.980469 77.210938 76.082031 78.851562 75.945312 C 78.25 75.679688 77.632812 75.460938 76.996094 75.304688 C 75.117188 74.8125 73.132812 74.742188 71.203125 74.671875 C 63.738281 74.492188 56.25 75.621094 49.132812 77.875 C 54.742188 74.839844 61.226562 73.585938 67.578125 73.382812 C 72.550781 73.167969 77.480469 73.894531 82.453125 74.027344 C 79.375 72.578125 75.96875 72.066406 72.609375 71.808594 C 64.605469 71.207031 56.203125 72.070312 49.046875 75.953125 C 48.171875 76.421875 47.121094 77.066406 46.3125 77.644531 Z M 46.308594 77.636719 " fill-opacity="1" fill-rule="nonzero"/><path fill="#dc4a3f" d="M 29.121094 79.304688 C 26.117188 86.859375 32.308594 97.378906 32.308594 97.378906 C 32.308594 97.378906 28.121094 84.980469 32.6875 76.855469 C 40.480469 62.988281 60.742188 48.78125 60.742188 48.78125 C 60.742188 48.78125 36.703125 60.234375 29.121094 79.304688 Z M 29.121094 79.304688 " fill-opacity="1" fill-rule="nonzero"/></svg>