<svg width="26" height="27" viewBox="0 0 26 27" fill="none" xmlns="http://www.w3.org/2000/svg">
<path d="M24.9232 11.9321C25.3412 12.006 25.5691 12.2656 25.6069 12.7109C25.6448 13.1563 25.4598 13.4569 25.0519 13.613L20.036 15.719L23.2829 20.1114C23.5426 20.4641 23.5398 20.8237 23.2747 21.1901C23.0097 21.5565 22.6713 21.6703 22.2598 21.5316L17.1267 19.8481L16.7799 25.3583C16.7544 25.6174 16.6437 25.8273 16.448 25.9879C16.2522 26.1485 16.0248 26.2161 15.7656 26.1905C15.5065 26.165 15.2909 26.0292 15.1189 25.7833L12.2408 21.1329L8.51026 25.132C8.29354 25.3396 8.0556 25.4306 7.79644 25.4051C7.53728 25.3795 7.32739 25.2689 7.16678 25.0731C7.00617 24.8774 6.93863 24.65 6.96418 24.3908L7.69975 18.919L2.3368 19.5679C2.27201 19.5616 2.20722 19.5552 2.14243 19.5488C1.75369 19.5105 1.49509 19.3133 1.36664 18.9571C1.23819 18.601 1.31951 18.2738 1.6106 17.9754L5.65257 14.3014L1.14433 11.2566C0.77475 11.0239 0.652004 10.6929 0.776097 10.2635C0.900189 9.83419 1.1744 9.62407 1.59873 9.63319L7.02055 9.38254L5.47776 4.12775C5.3573 3.69065 5.47261 3.35038 5.8237 3.10695C6.17479 2.86352 6.53353 2.87435 6.89992 3.13943L11.1803 6.5052L13.3449 1.46862C13.516 1.06026 13.8121 0.876831 14.2332 0.918339C14.6544 0.959848 14.909 1.19756 14.997 1.63146L16.1367 6.99372L20.9918 4.52837C21.4029 4.33991 21.7568 4.39933 22.0536 4.70662C22.3505 5.01391 22.3971 5.37014 22.1936 5.77531L19.6546 10.6278L24.9232 11.9321ZM16.7721 16.4768L15.2144 14.3606L17.6179 13.3709L15.0808 12.7284L16.2922 10.3945L13.9666 11.5882L13.4334 9.03331L12.4116 11.4349L10.3639 9.8102L11.0963 12.3356L8.48252 12.4705L10.6466 13.9104L8.70573 15.6817L11.29 15.3477L10.9342 17.9621L12.7389 16.0793L14.1413 18.2782L14.3028 15.6446L16.7721 16.4768Z" fill="#4b5966"/>
</svg>
