<svg xmlns="http://www.w3.org/2000/svg" xmlns:xlink="http://www.w3.org/1999/xlink" width="200" zoomAndPan="magnify" viewBox="0 0 150 157.92" height="200" preserveAspectRatio="xMidYMid meet" version="1.0"><defs><clipPath id="072fd2ce38"><path d="M 22.71875 21.953125 L 126.914062 21.953125 L 126.914062 94 L 22.71875 94 Z M 22.71875 21.953125 " clip-rule="nonzero"/></clipPath><clipPath id="1cd05b9795"><path d="M 43 102 L 96 102 L 96 127.648438 L 43 127.648438 Z M 43 102 " clip-rule="nonzero"/></clipPath></defs><path fill="#dc4a3f" d="M 66.664062 42.597656 L 67.894531 43.015625 L 68.457031 42.910156 L 69.015625 42.800781 L 69.796875 41.996094 L 70.574219 41.191406 L 70.722656 39.839844 L 70.875 38.488281 L 70.320312 37.933594 C 69.644531 37.257812 68.355469 36.699219 67.476562 36.699219 L 66.816406 36.703125 L 65.292969 37.632812 L 64.949219 38.449219 C 64.367188 39.84375 64.386719 40.820312 65.007812 41.628906 L 65.433594 42.183594 Z M 68.035156 41.570312 L 68.945312 41.0625 L 69.523438 40.171875 L 70.097656 39.285156 L 70.308594 39.65625 L 70.515625 40.023438 L 70.234375 40.867188 L 69.957031 41.710938 L 69.164062 42.042969 C 68.335938 42.390625 67.980469 42.421875 67.441406 42.210938 L 67.121094 42.082031 Z M 68.035156 41.570312 " fill-opacity="1" fill-rule="nonzero"/><path fill="#dc4a3f" d="M 89.515625 43.605469 L 87.152344 43.636719 L 84.789062 43.664062 L 82.480469 42.980469 L 80.175781 42.296875 L 80.015625 42.457031 L 79.855469 42.621094 L 80.097656 42.863281 C 80.230469 42.996094 81.074219 43.363281 81.972656 43.679688 L 83.605469 44.257812 L 88.808594 44.273438 L 89.398438 44.605469 C 90.085938 44.988281 90.621094 44.976562 90.753906 44.578125 L 90.847656 44.292969 L 90.179688 43.949219 Z M 89.515625 43.605469 " fill-opacity="1" fill-rule="nonzero"/><path fill="#dc4a3f" d="M 91.015625 59.824219 L 89.984375 60.085938 C 89.410156 60.230469 88.832031 60.316406 88.242188 60.34375 C 87.769531 60.363281 87.316406 60.460938 86.878906 60.640625 L 86.230469 60.9375 L 86.929688 61.085938 C 87.359375 61.175781 87.792969 61.234375 88.230469 61.261719 L 88.832031 61.289062 L 91.824219 60.28125 L 91.417969 60.054688 Z M 91.015625 59.824219 " fill-opacity="1" fill-rule="nonzero"/><path fill="#dc4a3f" d="M 88.808594 61.847656 C 86.609375 61.683594 85.574219 61.570312 84.609375 61.394531 L 83.722656 61.230469 L 83.722656 61.488281 C 83.722656 61.929688 84.710938 62.316406 86.5625 62.605469 L 88.335938 62.882812 L 90.9375 62.65625 L 92.230469 62.082031 C 92.8125 61.839844 93.363281 61.539062 93.886719 61.1875 C 94.082031 61.011719 94.832031 60.628906 95.546875 60.332031 C 96.097656 60.117188 96.628906 59.863281 97.140625 59.570312 L 97.433594 59.34375 L 97.191406 58.953125 L 96.210938 59.296875 C 95.429688 59.613281 94.691406 60.003906 93.988281 60.46875 L 92.746094 61.289062 L 91.488281 61.621094 L 90.226562 61.953125 Z M 88.808594 61.847656 " fill-opacity="1" fill-rule="nonzero"/><path fill="#dc4a3f" d="M 112.535156 59.953125 L 111.703125 61.269531 C 111.058594 62.226562 110.339844 63.121094 109.539062 63.949219 L 108.210938 65.3125 L 108.445312 65.3125 C 108.738281 65.3125 111.765625 62.222656 112.730469 60.9375 L 113.445312 59.992188 L 113.835938 58.824219 L 114.226562 57.660156 L 114.226562 54.761719 L 113.890625 54.300781 L 113.554688 53.84375 L 113.164062 54.234375 L 113.242188 55.746094 L 113.316406 57.257812 Z M 112.535156 59.953125 " fill-opacity="1" fill-rule="nonzero"/><path fill="#dc4a3f" d="M 120.980469 72.035156 L 120.054688 72.203125 L 118.261719 73.121094 C 117.40625 73.550781 116.570312 74.023438 115.761719 74.542969 L 115.054688 75.046875 L 115.65625 74.917969 C 115.984375 74.84375 117.136719 74.261719 118.210938 73.621094 L 120.164062 72.460938 L 121.117188 72.308594 C 121.765625 72.183594 122.382812 71.980469 122.976562 71.695312 L 123.878906 71.234375 L 124.367188 70.609375 L 124.859375 69.984375 L 124.660156 69.625 L 124.457031 69.265625 L 125.089844 68.046875 L 124.945312 67.449219 C 124.433594 65.300781 122.207031 60.972656 121.164062 60.097656 C 120.925781 59.898438 120.332031 59.382812 119.84375 58.949219 L 118.957031 58.167969 L 118.960938 58.488281 L 118.960938 58.808594 L 120.367188 60.460938 L 121.769531 62.113281 L 122.414062 63.886719 C 122.675781 64.660156 122.988281 65.410156 123.351562 66.136719 C 123.617188 66.667969 123.828125 67.21875 123.984375 67.792969 L 124.320312 68.976562 L 124.136719 69.652344 C 123.785156 70.914062 122.71875 71.722656 120.980469 72.035156 Z M 120.980469 72.035156 " fill-opacity="1" fill-rule="nonzero"/><path fill="#dc4a3f" d="M 107.054688 73.089844 C 105.992188 72.039062 104.925781 71.074219 104.6875 70.941406 L 104.25 70.707031 L 104.417969 71.238281 L 104.585938 71.765625 L 105.460938 72.617188 C 105.898438 73.03125 106.304688 73.476562 106.675781 73.949219 C 106.976562 74.324219 107.316406 74.660156 107.695312 74.953125 L 108.378906 75.476562 L 109.707031 75.476562 L 109.851562 75.242188 L 110 75.003906 L 108.988281 75.003906 Z M 107.054688 73.089844 " fill-opacity="1" fill-rule="nonzero"/><path fill="#dc4a3f" d="M 123.683594 84.550781 L 123.683594 84.9375 L 124.15625 84.9375 L 124.160156 84.523438 C 124.164062 84.292969 124.421875 83.277344 124.738281 82.261719 C 125.09375 81.078125 125.375 79.871094 125.578125 78.652344 L 125.847656 76.886719 L 125.449219 75.691406 L 125.054688 74.5 L 124.707031 74.367188 L 124.363281 74.234375 L 124.148438 74.449219 L 123.933594 74.660156 L 124.238281 75.246094 C 124.363281 75.472656 124.46875 75.707031 124.5625 75.949219 C 124.574219 76.015625 124.65625 76.554688 124.746094 77.148438 L 124.90625 78.226562 L 124.296875 81.195312 C 123.960938 82.828125 123.683594 84.335938 123.683594 84.550781 Z M 123.683594 84.550781 " fill-opacity="1" fill-rule="nonzero"/><g clip-path="url(#072fd2ce38)"><path fill="#dc4a3f" d="M 126.976562 71.441406 L 127.128906 70.636719 L 127.277344 69.828125 L 126.660156 67.15625 C 125.765625 63.285156 125.585938 62.683594 125.035156 61.761719 L 124.542969 60.9375 L 121.570312 57.96875 L 118.601562 55 L 117.300781 54.472656 L 116 53.941406 L 115.628906 53.183594 L 115.257812 52.421875 L 113.382812 51.066406 C 112.28125 50.277344 111.136719 49.550781 109.953125 48.890625 L 108.402344 48.070312 L 107.351562 47.902344 L 106.304688 47.734375 L 105.554688 47.027344 L 104.800781 46.320312 L 102.902344 45.316406 C 101.855469 44.761719 99.589844 43.753906 97.859375 43.078125 C 96.132812 42.398438 93.015625 41.175781 90.933594 40.355469 C 88.855469 39.535156 86.460938 38.703125 85.613281 38.503906 C 84.769531 38.308594 83.605469 37.976562 83.027344 37.773438 C 82.453125 37.566406 81.300781 37.242188 80.472656 37.050781 L 78.964844 36.699219 L 75.433594 36.699219 L 73.492188 36.195312 L 71.546875 35.6875 L 70.363281 35.632812 C 69.066406 35.570312 64.226562 36.074219 61.613281 36.542969 L 59.960938 36.839844 L 59.25 36.699219 L 58.542969 36.558594 L 57.824219 36.980469 L 52.980469 34.683594 C 48.109375 32.375 45.195312 30.753906 43.882812 29.625 L 43.171875 29.015625 L 43.882812 29.808594 L 44.589844 30.605469 L 46.601562 31.957031 L 48.609375 33.308594 L 56.007812 36.816406 L 55.597656 36.886719 C 55.144531 36.964844 54.320312 36.6875 51.328125 35.433594 C 50.222656 34.972656 47.699219 33.949219 45.722656 33.164062 C 41.832031 31.621094 41.585938 31.507812 34.894531 28.066406 L 30.402344 25.757812 L 28.039062 24.21875 C 26.738281 23.375 25.40625 22.519531 25.082031 22.320312 L 24.492188 21.957031 L 24.847656 22.328125 C 25.042969 22.53125 26.53125 23.585938 28.15625 24.675781 L 31.113281 26.652344 L 36.667969 29.527344 L 42.226562 32.398438 L 45.773438 33.808594 C 47.722656 34.582031 49.734375 35.351562 50.246094 35.515625 C 50.753906 35.679688 51.964844 36.175781 52.933594 36.621094 L 54.699219 37.421875 L 56.980469 37.867188 L 59.265625 38.308594 L 60.324219 38.863281 L 61.378906 39.414062 L 59.863281 39.601562 L 58.351562 39.792969 L 57.382812 39.34375 C 56.847656 39.09375 56.292969 38.890625 55.726562 38.730469 C 55.347656 38.636719 53.324219 37.890625 51.234375 37.070312 C 49.140625 36.246094 47.054688 35.453125 46.601562 35.308594 C 45.820312 35.003906 45.074219 34.632812 44.363281 34.191406 C 43.140625 33.457031 40.160156 32.207031 39.621094 32.207031 C 39.242188 32.207031 41.3125 33.464844 42.222656 33.78125 C 42.84375 34.015625 43.441406 34.3125 44.003906 34.667969 C 45.402344 35.589844 46.542969 36.105469 51.09375 37.871094 C 53.5 38.808594 55.574219 39.6875 55.703125 39.824219 L 55.941406 40.078125 L 55.679688 39.933594 L 55.421875 39.789062 L 54.558594 40.03125 L 53.695312 40.269531 L 53.695312 41.191406 L 54.226562 41.203125 C 55.582031 41.230469 58.386719 41.484375 59.132812 41.644531 C 59.945312 41.777344 60.761719 41.855469 61.582031 41.878906 L 63.203125 41.9375 L 63.101562 41.621094 L 63 41.308594 L 61.714844 41.136719 C 61.011719 41.039062 59.792969 40.878906 59.015625 40.78125 L 57.59375 40.605469 L 59.015625 40.546875 C 59.792969 40.515625 61.097656 40.425781 61.910156 40.347656 L 63.386719 40.207031 L 63.386719 39.339844 L 61.59375 38.4375 L 59.796875 37.539062 L 60.941406 37.265625 C 61.570312 37.117188 63.207031 36.820312 64.570312 36.609375 L 67.054688 36.226562 L 68.828125 36.242188 L 70.601562 36.261719 L 71.363281 36.539062 C 71.785156 36.691406 72.128906 36.871094 72.125 36.9375 C 72.121094 37 72.628906 37.605469 73.253906 38.285156 L 74.390625 39.511719 L 76.191406 40.4375 C 78.269531 41.507812 78.894531 41.65625 81.476562 41.683594 L 83.367188 41.703125 L 85.3125 42.429688 L 87.257812 43.160156 L 88.335938 42.660156 L 87.863281 42.496094 C 87.601562 42.40625 86.75 42.054688 85.96875 41.714844 L 84.550781 41.097656 L 83.367188 41.042969 C 81.136719 40.9375 79.785156 40.617188 78.082031 39.773438 C 77.347656 39.410156 76.359375 38.953125 75.882812 38.753906 C 75.40625 38.558594 74.972656 38.292969 74.578125 37.957031 L 74.140625 37.519531 L 76.035156 37.554688 L 77.929688 37.585938 L 79.347656 37.878906 C 80.351562 38.105469 81.335938 38.382812 82.304688 38.71875 C 83.148438 39.019531 84.320312 39.386719 84.90625 39.535156 C 85.890625 39.785156 88.320312 40.75 91.171875 42.027344 C 92.484375 42.617188 96.867188 44.269531 97.433594 44.390625 C 98.984375 44.71875 104.191406 47.113281 105.019531 47.882812 L 105.476562 48.304688 L 105.472656 48.945312 C 105.464844 49.695312 105.28125 50.476562 104.425781 53.355469 L 103.796875 55.464844 L 103.878906 56.308594 L 103.957031 57.152344 L 104.507812 55.96875 C 104.808594 55.320312 105.375 53.832031 105.761719 52.660156 L 106.464844 50.53125 L 106.328125 49.320312 L 106.1875 48.105469 L 107.074219 48.421875 C 107.496094 48.582031 107.933594 48.691406 108.378906 48.746094 C 109.015625 48.761719 111.320312 50.003906 112.972656 51.214844 L 114.4375 52.292969 L 114.683594 53.183594 L 114.933594 54.078125 L 114.929688 55.617188 L 114.929688 57.152344 L 114.457031 58.65625 C 114.039062 59.867188 113.550781 61.050781 112.988281 62.203125 L 111.988281 64.246094 L 110.914062 65.308594 C 110.09375 66.074219 109.21875 66.765625 108.28125 67.382812 L 106.730469 68.394531 L 105.097656 68.738281 C 104.234375 68.925781 103.359375 69.042969 102.476562 69.089844 L 101.488281 69.09375 L 100.824219 68.839844 C 99.273438 68.253906 96.253906 65.984375 96.253906 65.410156 L 96.253906 65.125 L 96.792969 64.992188 L 97.328125 64.855469 L 99.007812 63.441406 C 100.539062 62.152344 101.160156 61.386719 100.894531 61.121094 C 100.742188 60.96875 99.328125 61.742188 99.328125 61.976562 C 99.328125 62.089844 99.011719 62.3125 98.621094 62.472656 C 98.230469 62.632812 97.910156 62.839844 97.910156 62.929688 C 97.910156 63.019531 97.492188 63.277344 96.976562 63.503906 L 96.042969 63.914062 L 94.433594 63.941406 C 93.371094 63.945312 92.308594 63.890625 91.246094 63.777344 L 89.667969 63.589844 L 85.175781 64.183594 L 84.507812 63.714844 C 84 63.378906 83.472656 63.082031 82.921875 62.820312 L 82.003906 62.390625 L 80.625 61.109375 L 79.242188 59.832031 L 78.417969 58.214844 C 77.964844 57.324219 77.332031 55.949219 77.007812 55.15625 L 76.421875 53.714844 L 75.582031 52.730469 C 75.117188 52.191406 74.738281 51.648438 74.738281 51.527344 C 74.738281 51.410156 74.488281 50.816406 74.183594 50.207031 C 73.777344 49.347656 73.421875 48.464844 73.117188 47.5625 L 72.605469 46.019531 L 71.910156 45.261719 C 70.636719 43.863281 70.300781 44.402344 71.429688 46.039062 L 72.136719 47.070312 L 72.136719 47.539062 C 72.179688 47.945312 72.296875 48.324219 72.488281 48.679688 C 73.019531 49.6875 73.792969 51.539062 73.792969 51.796875 C 73.792969 51.921875 74.152344 52.457031 74.59375 52.984375 C 75.316406 53.847656 75.648438 54.453125 76.757812 56.917969 C 76.933594 57.304688 77.390625 58.316406 77.773438 59.164062 L 78.464844 60.699219 L 79.664062 61.824219 C 80.324219 62.441406 80.78125 62.945312 80.679688 62.945312 C 80.425781 62.945312 77.8125 61.519531 77.25 61.070312 C 76.8125 60.691406 76.394531 60.292969 75.996094 59.871094 L 75.207031 59.042969 L 73.363281 55.496094 L 73.015625 54.195312 C 72.824219 53.480469 72.285156 51.957031 71.8125 50.804688 L 70.960938 48.714844 L 69.878906 46.976562 L 68.792969 45.238281 L 67.863281 44.398438 C 67.351562 43.933594 66.855469 43.546875 66.757812 43.535156 C 65.992188 43.453125 65.441406 43.28125 64.128906 42.730469 L 62.621094 42.09375 L 61.527344 42.230469 C 60.925781 42.304688 58.25 42.519531 55.585938 42.707031 L 50.738281 43.046875 L 48.964844 43.421875 C 47.988281 43.625 47.164062 43.792969 47.132812 43.792969 C 47.101562 43.792969 47.074219 43.902344 47.074219 44.03125 L 47.074219 44.273438 L 48.433594 44.136719 C 49.179688 44.0625 50.671875 43.855469 51.75 43.671875 L 53.710938 43.339844 L 54.03125 43.464844 L 54.355469 43.589844 L 56.683594 43.324219 L 59.015625 43.058594 L 61.355469 43.070312 L 63.699219 43.082031 L 64.964844 43.660156 C 65.65625 43.980469 66.226562 44.3125 66.226562 44.402344 L 66.226562 44.5625 L 64.394531 44.417969 C 63.386719 44.339844 61.65625 44.210938 60.550781 44.132812 C 59.597656 44.074219 58.652344 43.957031 57.714844 43.773438 C 57.21875 43.652344 56.71875 43.578125 56.207031 43.558594 L 55.53125 43.558594 L 55.675781 44.03125 C 55.757812 44.289062 55.886719 44.710938 55.964844 44.964844 L 56.105469 45.425781 L 55.210938 45.175781 L 54.3125 44.929688 L 52.527344 45.089844 L 50.738281 45.25 L 47.074219 46.058594 C 45.058594 46.5 42.203125 47.234375 40.730469 47.691406 L 38.054688 48.515625 L 36.417969 49.375 C 35.515625 49.847656 34.777344 50.328125 34.777344 50.4375 L 34.777344 50.636719 L 35.191406 50.453125 C 35.417969 50.355469 36.335938 49.929688 37.226562 49.515625 L 38.847656 48.757812 L 40.765625 48.265625 C 41.5 48.097656 42.222656 47.882812 42.929688 47.625 C 43.078125 47.535156 43.238281 47.46875 43.40625 47.429688 C 43.539062 47.40625 45.558594 47.003906 47.894531 46.535156 L 52.148438 45.683594 L 54.953125 45.683594 L 54.824219 45.816406 C 54.75 45.890625 53.589844 46.09375 52.242188 46.273438 C 49.046875 46.699219 45.34375 47.632812 42.734375 48.671875 L 40.640625 49.507812 L 37.179688 51.535156 C 33.945312 53.421875 31.03125 55.273438 30.757812 55.605469 C 30.496094 55.851562 30.21875 56.082031 29.929688 56.296875 C 28.800781 57.164062 26.390625 59.496094 24.480469 61.570312 L 22.71875 63.484375 L 22.71875 64.324219 L 25.265625 61.804688 C 26.664062 60.417969 28.554688 58.605469 29.460938 57.785156 L 31.113281 56.285156 L 33.746094 54.53125 C 35.195312 53.566406 36.453125 52.777344 36.542969 52.777344 C 36.632812 52.777344 37.414062 52.324219 38.28125 51.765625 C 40.105469 50.597656 42.03125 49.632812 44.058594 48.875 L 45.652344 48.253906 L 52.394531 46.917969 L 56.636719 46.621094 L 56.40625 46.820312 C 56.28125 46.933594 55.484375 47.210938 54.640625 47.441406 C 53.792969 47.671875 52.515625 48.054688 51.800781 48.292969 C 51.085938 48.53125 49.820312 48.902344 48.988281 49.113281 C 47.699219 49.492188 46.4375 49.957031 45.203125 50.5 L 42.929688 51.5 L 41.183594 52.628906 C 39.515625 53.707031 35.257812 57.015625 34.371094 57.921875 C 34.140625 58.160156 33.605469 58.753906 33.179688 59.238281 L 32.414062 60.125 L 32.414062 60.851562 L 34.246094 59.191406 C 36.453125 57.171875 38.800781 55.328125 41.28125 53.65625 C 44.871094 51.242188 45.902344 50.8125 53.703125 48.414062 C 55.203125 47.953125 56.558594 47.578125 56.710938 47.578125 L 56.992188 47.578125 L 57.347656 48.261719 L 57.699219 48.945312 L 58.792969 49.320312 C 59.578125 49.613281 60.332031 49.976562 61.050781 50.40625 C 61.6875 50.800781 62.3125 51.125 62.4375 51.125 C 62.746094 51.125 65.628906 54.019531 66.996094 55.703125 C 68.714844 57.820312 68.546875 57.960938 65.953125 56.589844 C 62.90625 54.976562 61.964844 54.449219 61.070312 53.835938 C 60.53125 53.480469 59.949219 53.203125 59.332031 53.007812 L 58.46875 52.773438 L 57.273438 53.226562 L 55.390625 55.085938 L 53.507812 56.949219 L 52.738281 58.46875 C 52.070312 59.792969 50.847656 63.011719 50.863281 63.402344 C 50.863281 63.476562 51.492188 62.261719 52.257812 60.699219 L 53.652344 57.863281 L 57.949219 53.488281 L 58.421875 53.488281 C 58.683594 53.488281 58.894531 53.535156 58.894531 53.589844 C 58.894531 53.808594 57.347656 56.25 56.636719 57.152344 C 56 58.035156 55.421875 58.953125 54.902344 59.910156 L 53.910156 61.722656 L 52.863281 62.6875 C 52.285156 63.21875 51.675781 63.667969 51.511719 63.683594 C 51.347656 63.699219 51.082031 63.726562 50.925781 63.742188 C 50.769531 63.757812 50.480469 63.988281 50.285156 64.246094 L 49.925781 64.71875 L 49.921875 69.332031 L 49.917969 73.941406 L 51.082031 76.363281 L 52.246094 78.789062 L 52.617188 78.789062 C 52.816406 78.789062 52.984375 78.75 52.984375 78.699219 C 52.984375 78.460938 52.25 76.605469 51.585938 75.164062 L 50.84375 73.550781 L 51.578125 71.261719 C 51.980469 70.003906 52.40625 68.445312 52.523438 67.792969 L 52.734375 66.613281 L 52.359375 63.933594 L 54.210938 62.191406 L 54.558594 61.359375 C 54.980469 60.34375 56.070312 58.636719 56.449219 58.394531 C 56.597656 58.296875 57.214844 57.472656 57.816406 56.5625 C 58.414062 55.652344 58.988281 54.90625 59.089844 54.90625 C 59.332031 54.976562 59.546875 55.09375 59.738281 55.253906 C 59.996094 55.449219 60.285156 55.566406 60.609375 55.609375 L 61.023438 55.617188 L 61.023438 56.089844 L 61.96875 56.089844 L 61.96875 56.285156 C 61.96875 56.394531 62.261719 56.628906 62.621094 56.8125 C 63.527344 57.273438 64.847656 58.246094 65.328125 58.808594 L 65.738281 59.28125 L 65.753906 60.242188 L 65.101562 60.628906 C 64.625 60.929688 64.171875 61.261719 63.742188 61.628906 L 63.035156 62.242188 L 61.78125 62.710938 C 61.09375 62.972656 60.335938 63.183594 60.097656 63.183594 L 59.664062 63.183594 L 59.367188 63.539062 L 59.074219 63.890625 L 59.425781 63.890625 L 59.1875 64.1875 C 58.988281 64.539062 58.855469 64.914062 58.789062 65.3125 C 58.570312 66.414062 57.460938 69.871094 57.25 70.109375 L 57.078125 70.296875 L 57.160156 69.164062 C 57.277344 67.5625 57.730469 65.296875 58.078125 64.601562 C 58.550781 63.65625 60.507812 61.875 62.683594 60.40625 L 64.699219 59.042969 L 64.695312 58.808594 L 64.6875 58.570312 L 64.453125 58.644531 C 62.917969 59.117188 60.535156 60.613281 58.972656 62.078125 L 57.753906 63.222656 L 57.503906 63.855469 C 57.253906 64.679688 57.058594 65.523438 56.914062 66.375 L 56.574219 68.265625 L 56.511719 74.5 L 56.863281 75.34375 C 57.292969 76.371094 57.429688 76.417969 57.289062 75.480469 L 57.1875 74.777344 L 57.597656 73.058594 C 57.820312 72.113281 58.203125 70.703125 58.441406 69.921875 C 58.914062 68.398438 59.015625 67.914062 59.355469 65.582031 C 59.417969 65.046875 59.515625 64.523438 59.648438 64.003906 C 59.902344 63.914062 60.164062 63.855469 60.433594 63.832031 C 60.902344 63.753906 61.363281 63.628906 61.808594 63.457031 C 62.058594 63.34375 62.316406 63.253906 62.578125 63.183594 C 63.066406 62.925781 63.535156 62.636719 63.984375 62.320312 L 65.285156 61.457031 L 66.746094 61.496094 L 68.707031 62.808594 L 70.558594 63.300781 L 72.410156 63.796875 L 70.914062 64.074219 C 70.089844 64.222656 68.53125 64.417969 67.449219 64.5 L 65.480469 64.652344 L 65.355469 64.980469 C 65.285156 65.164062 65.132812 65.308594 65.019531 65.308594 C 64.300781 65.308594 62.890625 67.367188 60.554688 71.8125 L 59.558594 73.703125 L 59.792969 75.445312 L 59.449219 75.578125 L 59.109375 75.707031 L 58.621094 76.8125 L 58.132812 77.914062 L 58.289062 79.59375 C 58.449219 81.285156 58.851562 83.167969 59.015625 83.003906 C 59.0625 82.953125 59.210938 81.90625 59.339844 80.675781 L 59.578125 78.433594 L 59.941406 77.25 L 60.304688 76.070312 L 61.046875 75.285156 C 61.539062 74.734375 61.964844 74.132812 62.324219 73.488281 C 62.886719 72.429688 63.542969 71.410156 64.914062 69.46875 C 65.363281 68.828125 65.683594 68.230469 65.628906 68.136719 L 65.523438 67.96875 L 66.523438 68.082031 L 67.527344 68.195312 L 70.597656 67.683594 C 72.289062 67.398438 73.898438 67.113281 74.175781 67.050781 L 74.679688 66.929688 L 74.863281 67.835938 C 74.964844 68.332031 75.070312 68.84375 75.097656 68.976562 C 75.121094 69.105469 74.957031 69.742188 74.734375 70.394531 L 74.324219 71.578125 L 73.972656 69.796875 L 74.125 68.441406 L 74.277344 67.082031 L 73.589844 67.957031 L 73.285156 69.753906 L 73.988281 72.203125 C 74.371094 73.546875 74.839844 75.335938 75.023438 76.171875 L 75.359375 77.695312 L 75.804688 77.84375 L 75.328125 71.578125 L 75.546875 70.328125 L 75.765625 69.082031 L 76.257812 68.984375 C 76.527344 68.929688 77.304688 68.824219 77.988281 68.746094 L 79.230469 68.605469 L 79.230469 68.753906 C 79.230469 68.835938 78.847656 69.519531 78.382812 70.277344 L 77.539062 71.648438 L 77.625 73.503906 L 77.714844 75.359375 L 78.246094 77.960938 C 78.535156 79.390625 78.824219 80.800781 78.890625 81.09375 C 78.953125 81.386719 79.082031 81.625 79.179688 81.625 L 79.355469 81.625 L 79.265625 79.035156 L 79.179688 76.441406 L 79.441406 74.941406 C 79.582031 74.121094 79.859375 72.90625 80.054688 72.25 L 80.410156 71.054688 L 83.191406 70.898438 C 84.71875 70.8125 86.339844 70.6875 86.796875 70.617188 L 87.625 70.492188 L 86.394531 71.105469 C 85.695312 71.457031 85.050781 71.882812 84.453125 72.386719 C 84.058594 72.75 83.691406 73 83.628906 72.941406 C 83.566406 72.878906 83.277344 73.054688 82.984375 73.328125 C 82.691406 73.597656 82.371094 73.824219 82.269531 73.824219 C 82.167969 73.824219 81.960938 74.273438 81.8125 74.828125 L 81.539062 75.832031 L 81.679688 77.84375 L 81.820312 79.851562 L 82.671875 81.980469 C 83.144531 83.152344 83.625 84.210938 83.742188 84.332031 L 83.960938 84.558594 L 83.960938 84.027344 C 83.910156 83.570312 83.777344 83.140625 83.558594 82.738281 L 83.15625 81.980469 L 83.101562 80.324219 L 83.046875 78.671875 L 83.75 74.945312 L 84.429688 73.914062 L 86.617188 73.351562 C 87.820312 73.046875 89.179688 72.640625 89.632812 72.453125 L 90.460938 72.113281 L 90.007812 72.617188 C 89.570312 73.042969 89.089844 73.417969 88.570312 73.742188 L 87.585938 74.367188 L 87.042969 75.15625 L 86.503906 75.945312 L 86.378906 77.039062 L 86.257812 78.136719 L 86.554688 80.175781 L 86.851562 82.21875 L 87.652344 84.28125 C 88.09375 85.414062 88.453125 86.453125 88.453125 86.585938 C 88.457031 86.65625 88.484375 86.714844 88.535156 86.761719 C 88.585938 86.808594 88.648438 86.832031 88.71875 86.828125 L 88.984375 86.828125 L 88.820312 86.058594 C 88.15625 82.941406 88.09375 80.75 88.613281 78.550781 C 88.992188 76.9375 88.992188 76.898438 88.625 76.898438 L 88.328125 76.898438 L 87.832031 78.476562 L 87.335938 80.058594 L 87.167969 78.929688 L 87 77.804688 L 87.152344 76.882812 L 87.308594 75.964844 L 88.449219 76.714844 L 89.101562 76.601562 C 89.449219 76.542969 89.789062 76.453125 90.117188 76.332031 L 90.484375 76.171875 L 90.773438 77.421875 C 91.148438 79.023438 91.144531 78.917969 90.824219 80.445312 L 90.550781 81.742188 L 90.5625 84.226562 L 90.570312 86.707031 L 91.085938 89.191406 L 91.789062 89.191406 L 91.734375 87.949219 C 91.71875 86.886719 91.761719 85.820312 91.863281 84.761719 L 92.046875 82.8125 L 92.261719 82.941406 C 92.40625 83.074219 92.476562 83.238281 92.472656 83.4375 C 92.523438 83.820312 92.628906 84.191406 92.792969 84.546875 C 92.96875 84.957031 93.347656 85.929688 93.636719 86.710938 C 94.488281 89 94.578125 89.191406 94.8125 89.191406 L 95.035156 89.191406 L 94.582031 87.898438 C 94.332031 87.1875 94.125 86.335938 94.125 86.007812 L 94.125 85.410156 L 93.667969 85.410156 L 93.800781 85.070312 L 93.929688 84.730469 L 93.660156 83.421875 C 93.289062 81.640625 92.972656 78.375 93.117188 77.820312 L 93.234375 77.371094 L 93.742188 77.363281 C 94.246094 77.296875 94.730469 77.148438 95.191406 76.929688 L 96.136719 76.496094 L 100.269531 73.089844 L 100.835938 72.097656 C 101.136719 71.578125 101.375 71.027344 101.550781 70.453125 L 101.703125 69.804688 L 100.789062 69.804688 L 100.703125 69.550781 L 100.621094 69.300781 L 98.613281 70.816406 L 96.609375 72.328125 L 91.289062 77.898438 L 91.292969 76.746094 L 91.292969 75.597656 L 93.226562 74.175781 C 94.582031 73.148438 95.886719 72.050781 97.136719 70.890625 L 99.117188 69.019531 L 98.878906 68.785156 L 98.640625 68.546875 L 96.609375 70.472656 C 95.613281 71.429688 94.5625 72.328125 93.464844 73.160156 C 92.855469 73.578125 91.875 74.289062 91.289062 74.734375 C 90.710938 75.179688 90.089844 75.5625 89.433594 75.882812 L 88.636719 76.214844 L 88.375 75.953125 L 88.671875 75.066406 L 88.964844 74.175781 L 91.679688 72.402344 C 93.175781 71.429688 95.1875 70.117188 96.152344 69.492188 L 97.910156 68.351562 L 97.910156 67.714844 L 97.617188 67.609375 L 97.320312 67.503906 L 97.460938 67.351562 L 97.597656 67.199219 L 98.585938 67.914062 C 99.316406 68.417969 100.078125 68.871094 100.871094 69.265625 L 102.167969 69.902344 L 102.167969 70.449219 C 102.167969 71.246094 102.757812 72.542969 103.621094 73.628906 L 104.371094 74.578125 L 105.878906 75.296875 C 106.703125 75.691406 107.429688 76.09375 107.484375 76.183594 L 107.589844 76.351562 L 102.996094 76.210938 L 101.601562 76.808594 C 100.832031 77.136719 100.054688 77.558594 99.867188 77.742188 C 99.699219 77.921875 99.496094 78.035156 99.253906 78.078125 C 99.101562 78.082031 98.5 78.394531 97.921875 78.78125 L 96.871094 79.476562 L 96.453125 80.257812 L 96.039062 81.035156 L 96.03125 82.671875 L 96.019531 84.304688 L 96.285156 85.84375 L 96.554688 87.378906 L 97.027344 88.175781 C 97.285156 88.617188 97.527344 88.945312 97.5625 88.90625 C 97.601562 88.867188 97.457031 88.175781 97.246094 87.371094 L 96.863281 85.902344 L 97.144531 84.566406 L 97.425781 83.226562 L 98.046875 82.410156 L 98.667969 81.597656 L 99.53125 81.203125 C 100.03125 80.976562 100.515625 80.71875 100.984375 80.433594 C 101.566406 80.097656 102.167969 79.800781 102.789062 79.546875 L 103.996094 79.039062 L 105.980469 78.679688 C 107.070312 78.484375 108.207031 78.253906 108.503906 78.171875 L 109.050781 78.015625 L 108.242188 78.871094 L 107.4375 79.730469 L 106.421875 82.941406 L 106.421875 86.496094 L 106.707031 86.78125 L 106.992188 87.0625 L 105.886719 87.0625 L 105.386719 87.617188 C 105.113281 87.921875 104.6875 88.398438 104.441406 88.675781 L 103.992188 89.183594 L 103.351562 91.074219 C 103 92.117188 102.765625 93.019531 102.832031 93.085938 C 102.898438 93.152344 103.089844 93.09375 103.257812 92.953125 L 103.5625 92.699219 L 103.917969 91.476562 L 104.273438 90.257812 L 105.261719 89.191406 C 105.753906 88.65625 106.285156 88.164062 106.859375 87.722656 L 107.46875 87.320312 L 107.832031 87.632812 C 108.347656 88.082031 109.574219 88.433594 111.578125 88.714844 L 113.308594 88.957031 L 114.023438 89.328125 L 114.742188 89.699219 L 115.007812 89.433594 L 113.730469 88.851562 L 112.449219 88.265625 L 110.324219 88.027344 L 108.195312 87.789062 L 107.664062 87.175781 C 107.125 86.554688 106.984375 86 107.3125 85.796875 C 107.507812 85.679688 108.75 86.222656 109.734375 86.851562 L 110.324219 87.234375 L 112.097656 87.527344 C 114.46875 87.925781 115.917969 88.394531 116.964844 89.101562 L 117.832031 89.691406 L 118.511719 89.433594 L 118.367188 89.195312 C 118.285156 89.066406 117.773438 88.699219 117.226562 88.382812 L 116.234375 87.800781 L 114.460938 87.433594 C 113.621094 87.246094 112.769531 87.125 111.910156 87.0625 L 111.132812 87.0625 L 109.605469 86.1875 L 108.078125 85.308594 L 108.078125 85.039062 C 108.078125 84.023438 109.15625 81.730469 110.359375 80.191406 C 111.453125 78.796875 111.566406 78.542969 111.09375 78.566406 L 110.796875 78.582031 L 109.542969 80.101562 L 108.292969 81.621094 L 108.039062 82.34375 C 107.644531 83.480469 107.585938 83.03125 107.964844 81.769531 C 108.242188 80.941406 108.59375 80.148438 109.019531 79.386719 C 109.289062 78.949219 109.527344 78.492188 109.734375 78.019531 C 109.734375 77.953125 109.5 77.835938 109.210938 77.761719 C 108.925781 77.6875 108.746094 77.566406 108.820312 77.496094 C 108.890625 77.425781 109.257812 77.472656 109.636719 77.605469 L 110.324219 77.839844 L 111.980469 77.265625 L 113.636719 76.6875 L 112.660156 76.675781 L 111.683594 76.660156 L 110.679688 77.015625 L 109.671875 77.371094 L 108.738281 76.527344 L 107.804688 75.679688 L 106.808594 75.253906 L 105.816406 74.828125 L 105.019531 73.925781 C 104.164062 72.90625 103.574219 71.746094 103.253906 70.453125 L 103.105469 69.804688 L 103.554688 69.804688 C 103.804688 69.804688 104.6875 69.59375 105.515625 69.335938 L 107.019531 68.871094 L 108.472656 67.976562 C 111.347656 66.207031 112.648438 64.988281 113.984375 62.828125 C 114.546875 61.917969 115.101562 61.109375 115.214844 61.035156 C 115.484375 60.859375 116.367188 58.542969 116.21875 58.398438 C 116.15625 58.335938 116.078125 57.382812 116.042969 56.277344 L 115.976562 54.265625 L 117.105469 54.765625 L 118.230469 55.261719 L 123.496094 60.863281 L 124.046875 62.082031 C 124.707031 63.539062 126.285156 68.851562 126.285156 69.621094 L 126.285156 70.167969 L 125.675781 71.0625 L 125.070312 71.957031 L 123.441406 72.996094 L 121.816406 74.039062 L 120.089844 74.507812 C 119.140625 74.761719 117.753906 75.09375 117.011719 75.242188 L 115.660156 75.507812 L 114.582031 76.460938 L 115.054688 76.351562 C 115.3125 76.289062 116.003906 76.128906 116.589844 75.992188 C 117.175781 75.859375 118.582031 75.578125 119.710938 75.375 L 121.769531 75 L 122.878906 74.523438 C 123.617188 74.191406 124.320312 73.804688 125 73.367188 L 126.007812 72.683594 L 126.15625 73.277344 C 126.238281 73.605469 126.304688 75.277344 126.300781 76.996094 L 126.292969 80.113281 L 125.839844 82.371094 C 125.363281 84.753906 123.714844 90.117188 123.09375 91.316406 L 122.726562 92.03125 L 122.484375 92.03125 C 122.351562 92.03125 121.527344 91.878906 120.65625 91.691406 C 119.785156 91.507812 118.648438 91.300781 118.128906 91.230469 L 117.179688 91.105469 L 117.773438 91.441406 C 118.097656 91.621094 119.140625 91.949219 120.085938 92.164062 L 121.808594 92.554688 L 122.152344 92.898438 L 122.5 93.242188 L 124.039062 93.09375 L 124.351562 92.148438 C 124.558594 91.449219 124.707031 90.742188 124.789062 90.019531 C 124.953125 88.941406 125.183594 87.875 125.480469 86.828125 C 125.789062 85.722656 126.203125 83.914062 126.398438 82.808594 L 126.753906 80.796875 L 126.910156 77.691406 L 127.066406 74.582031 L 126.667969 73.367188 L 126.269531 72.148438 Z M 51.792969 66.316406 C 51.722656 67.390625 51.589844 68.390625 51.5 68.535156 C 51.347656 68.90625 51.246094 69.292969 51.195312 69.691406 C 51.121094 70.160156 51.015625 70.617188 50.871094 71.070312 L 50.691406 71.5625 L 50.535156 69.675781 L 50.382812 67.792969 L 50.601562 66.324219 C 50.851562 64.621094 50.972656 64.363281 51.523438 64.363281 L 51.921875 64.363281 Z M 65.179688 67.910156 C 65.042969 68.105469 64.546875 68.746094 64.078125 69.332031 C 63.179688 70.445312 61.503906 73.148438 61.488281 73.5 C 61.480469 73.613281 61.148438 74.078125 60.75 74.53125 L 60.019531 75.359375 L 60.167969 74.554688 C 60.265625 74.0625 60.421875 73.589844 60.636719 73.132812 C 61.347656 71.765625 63.023438 68.886719 63.925781 67.476562 L 64.890625 65.980469 L 65.429688 67.558594 Z M 93.609375 76.246094 C 95.179688 74.269531 100.097656 70.019531 100.429688 70.351562 C 100.554688 70.476562 99.519531 72.542969 99.039062 73.121094 C 98.46875 73.808594 95.3125 76.410156 94.613281 76.769531 C 94.238281 76.96875 93.835938 77.089844 93.410156 77.132812 L 92.90625 77.132812 Z M 64.464844 51.546875 L 63.507812 50.671875 L 61.3125 49.601562 C 60.101562 49.011719 58.855469 48.460938 58.542969 48.382812 C 58.246094 48.316406 57.988281 48.179688 57.765625 47.96875 C 57.5625 47.691406 56.761719 45.683594 56.855469 45.683594 C 56.886719 45.683594 57.953125 46.261719 59.230469 46.96875 L 61.550781 48.25 L 61.878906 48.125 C 62.472656 47.898438 62.226562 47.671875 60.417969 46.765625 C 59.4375 46.273438 58.683594 45.820312 58.746094 45.757812 C 58.808594 45.695312 59.691406 46.015625 60.710938 46.472656 C 63.121094 47.558594 65.707031 48.523438 66.203125 48.523438 C 66.417969 48.523438 67.210938 48.839844 67.960938 49.230469 C 69.476562 50.019531 69.535156 50.035156 69.535156 49.714844 C 69.535156 49.59375 69.054688 49.15625 68.460938 48.75 L 67.386719 48.011719 L 65.410156 47.34375 C 63.351562 46.648438 60.316406 45.285156 60.316406 45.054688 C 60.316406 44.984375 60.5 45.003906 60.730469 45.097656 C 60.957031 45.195312 62.609375 45.410156 64.402344 45.578125 L 67.664062 45.882812 L 67.949219 46.121094 C 68.109375 46.253906 68.503906 46.875 68.828125 47.5 C 69.152344 48.128906 69.496094 48.699219 69.589844 48.769531 C 69.839844 48.957031 71.601562 53.730469 71.917969 55.066406 C 72.203125 56.28125 72.570312 57.230469 73.398438 58.890625 L 73.910156 59.917969 L 74.886719 60.898438 C 75.371094 61.394531 75.882812 61.855469 76.425781 62.285156 C 77.125 62.789062 77.125 62.789062 74.957031 62.144531 L 73.164062 61.609375 L 71.871094 60.867188 L 70.574219 60.128906 L 69.820312 59.074219 C 69.402344 58.496094 69.0625 57.90625 69.0625 57.769531 C 69.0625 57.160156 65.855469 52.820312 64.464844 51.546875 Z M 65.835938 58.226562 L 65.589844 58.472656 L 65.285156 58.101562 C 65 57.761719 61.292969 55.484375 59.78125 54.726562 C 59.136719 54.402344 58.90625 53.960938 59.378906 53.960938 C 59.652344 53.960938 60.894531 54.613281 62.324219 55.511719 C 62.84375 55.835938 64.117188 56.527344 65.148438 57.042969 L 67.027344 57.980469 L 66.554688 57.980469 C 66.289062 57.980469 66.050781 58.0625 65.835938 58.226562 Z M 70.835938 62.550781 L 68.710938 61.980469 L 67.828125 61.398438 C 67.34375 61.078125 66.835938 60.816406 66.703125 60.816406 L 66.460938 60.816406 L 66.460938 60.246094 C 66.460938 59.921875 66.414062 59.609375 66.320312 59.300781 L 66.175781 58.925781 L 67.761719 58.925781 L 68.5 59.339844 C 68.90625 59.566406 69.910156 60.210938 70.734375 60.765625 L 72.234375 61.777344 L 73.546875 62.144531 C 74.265625 62.34375 75.121094 62.597656 75.449219 62.707031 L 76.039062 62.910156 L 74.816406 62.925781 C 74.300781 62.925781 73.789062 62.960938 73.28125 63.035156 C 73.105469 63.082031 72.007812 62.867188 70.835938 62.550781 Z M 73.082031 66.394531 C 72.367188 66.476562 70.773438 66.800781 69.542969 67.109375 C 67.339844 67.664062 66.761719 67.730469 65.925781 67.511719 L 65.503906 67.402344 L 65.558594 66.613281 C 65.578125 66.207031 65.679688 65.828125 65.871094 65.46875 L 66.132812 65.113281 L 68.128906 64.96875 C 69.230469 64.886719 71.03125 64.671875 72.136719 64.484375 C 73.242188 64.300781 75.078125 64.074219 76.214844 63.988281 L 78.285156 63.828125 L 78.285156 63.660156 C 78.285156 63.570312 78.003906 63.367188 77.664062 63.210938 C 77.320312 63.054688 77.089844 62.882812 77.144531 62.824219 C 77.203125 62.769531 78.03125 63.132812 78.984375 63.632812 L 80.71875 64.546875 L 80.242188 64.804688 C 79.773438 65.003906 79.289062 65.140625 78.789062 65.214844 L 77.8125 65.371094 L 77.8125 65.769531 L 77.488281 65.644531 L 77.160156 65.519531 L 75.769531 65.878906 C 74.882812 66.101562 73.988281 66.273438 73.082031 66.394531 Z M 78.875 67.667969 L 77.695312 68.324219 L 76.824219 68.457031 L 75.949219 68.585938 L 75.722656 68.308594 C 75.457031 67.921875 75.355469 67.496094 75.421875 67.035156 L 75.449219 66.746094 L 76.335938 66.535156 C 76.824219 66.417969 77.804688 66.183594 78.519531 66.015625 C 79.238281 65.847656 79.925781 65.601562 80.589844 65.277344 L 81.355469 64.847656 L 81.964844 65.078125 C 82.484375 65.238281 83.019531 65.324219 83.5625 65.335938 L 84.550781 65.359375 L 83.84375 65.535156 C 82.851562 65.78125 80.285156 66.882812 78.875 67.667969 Z M 79.550781 71.855469 L 79.003906 72.941406 L 78.847656 74.097656 L 78.695312 75.253906 L 78.492188 75.378906 L 78.285156 75.507812 L 78.285156 72.226562 L 78.644531 71.367188 C 79.003906 70.503906 79.152344 70.40625 79.765625 70.640625 L 80.101562 70.769531 Z M 92.523438 70.78125 C 91.828125 71.136719 87.390625 72.609375 85.96875 72.953125 C 85.710938 73.019531 85.179688 73.132812 84.789062 73.210938 L 84.078125 73.355469 L 84.789062 72.761719 L 85.496094 72.167969 L 87.214844 71.449219 C 88.195312 71.042969 89.199219 70.71875 90.230469 70.472656 C 90.945312 70.328125 91.527344 70.136719 91.527344 70.042969 C 91.527344 69.953125 92.117188 69.746094 92.839844 69.585938 L 94.15625 69.289062 L 95.441406 68.613281 C 96.148438 68.242188 96.730469 68.011719 96.730469 68.105469 C 96.730469 68.285156 93.921875 70.070312 92.523438 70.78125 Z M 96.636719 67.457031 C 96.21875 67.730469 95.777344 67.960938 95.308594 68.144531 C 94.941406 68.277344 94.585938 68.441406 94.246094 68.632812 C 94.117188 68.726562 93.371094 68.933594 92.589844 69.089844 C 91.8125 69.246094 90.691406 69.46875 90.109375 69.589844 C 89.523438 69.707031 88.140625 69.917969 87.035156 70.054688 C 85.929688 70.191406 83.828125 70.363281 82.363281 70.4375 L 79.703125 70.570312 L 79.703125 70.320312 C 79.742188 70.035156 79.816406 69.753906 79.925781 69.488281 L 80.148438 68.902344 L 81.355469 68.644531 C 82.082031 68.496094 82.816406 68.417969 83.558594 68.417969 L 84.550781 68.449219 L 82.894531 68.726562 L 81.242188 69 L 81.789062 69.1875 L 82.335938 69.371094 L 85.96875 68.542969 L 85.378906 68.371094 L 84.789062 68.195312 L 85.144531 68.164062 C 85.335938 68.144531 87.414062 67.96875 89.753906 67.769531 C 92.09375 67.574219 94.625 67.351562 95.378906 67.277344 L 96.75 67.144531 L 96.660156 66.878906 L 96.566406 66.609375 L 95.40625 66.625 C 94.769531 66.632812 93.34375 66.765625 92.242188 66.921875 C 91.066406 67.082031 89.882812 67.175781 88.695312 67.203125 C 87.703125 67.214844 86.714844 67.292969 85.734375 67.433594 C 84.953125 67.558594 83.675781 67.707031 82.894531 67.761719 C 82.183594 67.804688 81.472656 67.894531 80.769531 68.023438 L 80.058594 68.1875 L 80.835938 67.664062 C 81.265625 67.378906 82.796875 66.667969 84.246094 66.085938 L 86.875 65.03125 L 89.140625 64.929688 C 90.386719 64.875 92.234375 64.789062 93.242188 64.738281 L 95.074219 64.644531 L 94.808594 65.074219 L 95.367188 65.289062 L 95.929688 65.5 L 96.535156 66.292969 L 97.140625 67.089844 Z M 99.183594 80.535156 C 98.648438 80.710938 98.160156 80.96875 97.71875 81.3125 C 97.441406 81.589844 97.199219 81.890625 96.988281 82.21875 L 96.703125 82.691406 L 96.84375 81.742188 L 96.988281 80.796875 L 97.390625 80.242188 C 97.78125 79.796875 98.230469 79.425781 98.742188 79.128906 L 99.691406 78.570312 L 100.199219 80.1875 Z M 108.316406 77.355469 C 108.316406 77.511719 106.734375 77.960938 105.394531 78.179688 C 104.339844 78.355469 102.359375 79.058594 101.578125 79.535156 C 100.6875 80.078125 100.578125 80.078125 100.402344 79.519531 L 100.257812 79.066406 L 100.402344 78.480469 L 100.550781 77.894531 L 102.132812 77.398438 L 103.71875 76.898438 L 105.128906 76.898438 C 106.769531 76.902344 108.316406 77.125 108.316406 77.355469 Z M 108.316406 77.355469 " fill-opacity="1" fill-rule="nonzero"/></g><path fill="#dc4a3f" d="M 108.667969 98.488281 L 111.574219 101.464844 L 112.367188 101.8125 L 113.164062 102.160156 L 114.269531 102.179688 L 115.378906 102.195312 L 115.976562 101.96875 L 116.578125 101.742188 L 117.46875 100.757812 C 118.203125 99.890625 118.867188 98.972656 119.46875 98.007812 L 120.574219 96.234375 L 120.894531 93.890625 L 120.621094 93.617188 L 119.925781 94.195312 L 119.65625 95.535156 L 119.382812 96.875 L 118.527344 98.175781 C 118.054688 98.894531 117.203125 100.035156 116.636719 100.71875 L 115.609375 101.960938 L 114.222656 101.960938 L 112.128906 100.976562 L 111.03125 99.804688 C 110.355469 99.097656 109.621094 98.453125 108.832031 97.875 C 108.222656 97.453125 107.339844 96.820312 106.875 96.460938 L 106.023438 95.8125 L 105.160156 95.8125 L 105.71875 96.410156 C 106.257812 96.914062 106.84375 97.359375 107.472656 97.746094 Z M 108.667969 98.488281 " fill-opacity="1" fill-rule="nonzero"/><path fill="#dc4a3f" d="M 106.421875 112.042969 C 106.421875 111.964844 105.324219 110.492188 104.769531 109.832031 C 104.625 109.644531 104.546875 109.429688 104.53125 109.1875 C 104.53125 108.992188 104.203125 108.003906 103.804688 106.996094 L 103.074219 105.164062 L 101.238281 103.171875 L 100.933594 101.960938 L 100.277344 101.960938 L 100.277344 102.300781 C 100.277344 102.976562 100.726562 103.757812 101.734375 104.808594 L 102.757812 105.882812 L 103.0625 107.023438 C 103.457031 108.527344 104.714844 111.117188 105.324219 111.679688 C 105.738281 112.070312 106.421875 112.292969 106.421875 112.042969 Z M 106.421875 112.042969 " fill-opacity="1" fill-rule="nonzero"/><path fill="#dc4a3f" d="M 92.261719 106.234375 L 93.792969 104.890625 L 95.320312 103.546875 L 95.046875 103.273438 L 94.882812 103.53125 C 94.792969 103.671875 94.054688 104.335938 93.242188 105.007812 L 91.765625 106.234375 L 91.253906 107.230469 L 90.746094 108.226562 L 90.519531 111.40625 L 91.300781 112.601562 L 91.609375 112.601562 C 91.785156 112.601562 91.941406 112.550781 92.078125 112.441406 L 92.238281 112.285156 L 91.863281 111.714844 L 91.492188 111.148438 L 91.289062 109.921875 L 91.082031 108.699219 L 91.671875 107.464844 Z M 92.261719 106.234375 " fill-opacity="1" fill-rule="nonzero"/><path fill="#dc4a3f" d="M 59.96875 110.828125 C 59.453125 110.175781 58.96875 109.59375 58.894531 109.527344 C 58.816406 109.460938 58.230469 108.71875 57.585938 107.871094 C 56.945312 107.027344 56.238281 106.121094 56.015625 105.863281 C 55.269531 104.984375 54.761719 104.355469 54.167969 103.574219 C 53.203125 102.308594 51.980469 100.996094 51.871094 101.105469 C 51.761719 101.210938 54.339844 104.8125 54.699219 105.058594 C 55.089844 105.472656 55.449219 105.914062 55.777344 106.386719 C 57.363281 108.539062 59.066406 110.589844 60.890625 112.542969 C 61.675781 113.355469 62.417969 114.019531 62.542969 114.019531 L 62.769531 114.019531 L 62.074219 113.25 C 61.691406 112.828125 61.273438 112.375 61.144531 112.246094 C 61.011719 112.117188 60.484375 111.476562 59.96875 110.828125 Z M 59.96875 110.828125 " fill-opacity="1" fill-rule="nonzero"/><path fill="#dc4a3f" d="M 100.511719 106.960938 L 100.128906 106.578125 C 99.609375 106.054688 99.570312 106.15625 99.816406 107.460938 L 100.027344 108.589844 L 100.929688 109.945312 C 101.429688 110.691406 102.292969 112.070312 102.855469 113.011719 L 103.875 114.726562 L 103.726562 115.320312 L 103.578125 115.910156 L 104.277344 115.910156 L 104.785156 114.964844 L 104.503906 114.433594 C 104.347656 114.140625 103.386719 112.613281 102.367188 111.042969 L 100.511719 108.183594 Z M 100.511719 106.960938 " fill-opacity="1" fill-rule="nonzero"/><path fill="#dc4a3f" d="M 91.289062 117.007812 L 91.289062 116.214844 L 89.671875 114.097656 L 89.148438 112.34375 C 88.863281 111.378906 88.539062 110.492188 88.425781 110.371094 C 87.988281 109.894531 87.988281 110.488281 88.421875 112.347656 L 88.875 114.289062 L 89.625 115.226562 L 90.375 116.160156 L 90.507812 116.980469 L 90.644531 117.804688 L 91.289062 117.804688 Z M 91.289062 117.007812 " fill-opacity="1" fill-rule="nonzero"/><path fill="#dc4a3f" d="M 86.859375 108.34375 L 82.242188 110.710938 L 81.785156 110.710938 C 81.472656 110.726562 81.175781 110.800781 80.894531 110.941406 L 80.464844 111.171875 L 79.941406 112.671875 L 79.941406 114.351562 C 79.941406 115.210938 79.988281 116.066406 80.09375 116.917969 L 80.238281 117.804688 L 80.605469 117.804688 L 80.523438 117.390625 C 80.480469 117.160156 80.386719 116.058594 80.324219 114.933594 L 80.203125 112.890625 L 80.78125 112.101562 L 81.777344 111.878906 L 82.769531 111.65625 L 84.253906 110.753906 C 85.777344 109.828125 86.675781 109.433594 87.800781 109.1875 L 88.453125 109.046875 L 88.453125 108.34375 Z M 86.859375 108.34375 " fill-opacity="1" fill-rule="nonzero"/><path fill="#dc4a3f" d="M 65.007812 110.566406 C 65.636719 111.367188 66.433594 112.328125 66.773438 112.695312 L 67.394531 113.367188 L 67.753906 113.230469 L 68.113281 113.089844 L 67.492188 112.433594 C 67.152344 112.070312 66.445312 111.1875 65.917969 110.472656 C 64.980469 109.199219 64.53125 108.722656 62.902344 107.265625 C 62.453125 106.867188 61.503906 105.867188 60.789062 105.046875 C 60.074219 104.226562 59.371094 103.433594 59.226562 103.285156 C 59.082031 103.132812 58.289062 102.054688 57.464844 100.890625 C 56.636719 99.722656 55.820312 98.625 55.644531 98.445312 C 55.296875 98.09375 53.695312 95.632812 53.695312 95.457031 C 53.589844 95.242188 53.457031 95.046875 53.289062 94.875 C 52.777344 94.136719 52.3125 93.367188 51.898438 92.566406 L 50.914062 90.730469 L 50.222656 90.660156 L 49.535156 90.589844 L 48.777344 91.421875 C 48.359375 91.878906 48.019531 92.347656 48.019531 92.464844 C 48.019531 92.640625 47.214844 93.777344 46.382812 94.78125 C 46.261719 94.925781 46.050781 95.652344 45.914062 96.394531 L 45.664062 97.746094 L 45.054688 98.46875 C 44.261719 99.410156 43.289062 101.335938 43.289062 101.96875 L 43.289062 102.460938 L 43.496094 102.332031 C 43.613281 102.261719 43.828125 101.71875 43.976562 101.125 L 44.25 100.046875 L 47.75 103.664062 C 49.679688 105.652344 51.671875 107.753906 52.179688 108.335938 L 53.101562 109.390625 L 51.683594 108.269531 C 50.902344 107.652344 49.839844 106.757812 49.320312 106.277344 C 48.800781 105.800781 47.976562 105.050781 47.488281 104.605469 L 46.601562 103.796875 L 46.601562 104.539062 L 47.722656 105.761719 C 48.832031 106.972656 51.976562 109.710938 53.8125 111.070312 C 54.183594 111.332031 54.535156 111.613281 54.875 111.914062 C 54.992188 112.023438 55.125 112.101562 55.273438 112.152344 C 55.574219 112.253906 56.449219 112.960938 59.421875 115.496094 C 60.449219 116.375 61.34375 117.09375 61.40625 117.09375 C 61.46875 117.09375 61.238281 116.722656 60.890625 116.265625 C 60.542969 115.8125 60.164062 115.4375 60.050781 115.4375 C 59.898438 115.425781 59.832031 115.339844 59.84375 115.191406 L 59.84375 114.941406 L 62.382812 116.269531 C 63.78125 116.996094 65.023438 117.691406 65.140625 117.808594 L 65.355469 118.019531 L 65.5625 117.894531 L 65.769531 117.765625 L 64.875 117.132812 C 64.324219 116.75 63.75 116.398438 63.152344 116.085938 C 59.328125 114.175781 57.441406 112.582031 49.648438 104.695312 L 44.535156 99.519531 L 45.273438 98.726562 L 46.007812 97.929688 L 47.113281 99.292969 C 47.71875 100.046875 48.8125 101.300781 49.542969 102.078125 C 50.355469 102.957031 51.121094 103.878906 51.832031 104.839844 C 52.675781 106.019531 53.183594 106.480469 53.730469 106.550781 C 53.8125 106.5625 54.65625 107.53125 55.601562 108.699219 C 57.492188 111.039062 59.960938 113.546875 60.371094 113.546875 L 60.632812 113.546875 L 60.148438 113.015625 C 59.882812 112.722656 59.269531 112.058594 58.789062 111.539062 C 58.3125 111.015625 57.421875 109.953125 56.816406 109.171875 C 55.40625 107.367188 55.355469 107.296875 54.117188 105.746094 C 53.546875 105.027344 52.742188 103.945312 52.324219 103.339844 C 51.910156 102.730469 51.433594 102.09375 51.269531 101.917969 C 51.023438 101.621094 50.816406 101.300781 50.640625 100.957031 C 50.453125 100.597656 50.214844 100.304688 50.109375 100.304688 C 50 100.304688 49.910156 100.144531 49.910156 99.953125 C 49.910156 99.757812 49.820312 99.597656 49.710938 99.597656 C 49.601562 99.597656 49.308594 99.199219 49.0625 98.710938 C 48.8125 98.222656 48.210938 97.21875 47.722656 96.476562 C 46.808594 95.085938 46.652344 94.535156 47.09375 94.265625 C 47.363281 94.015625 47.589844 93.730469 47.773438 93.410156 L 48.195312 92.714844 L 49.804688 95.386719 C 54.199219 102.691406 56.503906 105.585938 64.15625 113.40625 L 66.457031 115.757812 L 66.605469 115.613281 L 66.753906 115.464844 L 66.144531 114.800781 C 63.167969 111.5625 62.53125 110.847656 62.34375 110.515625 L 62.125 110.132812 L 63.050781 110.867188 C 63.5625 111.273438 64.589844 112.21875 65.339844 112.96875 L 66.699219 114.328125 L 66.699219 113.78125 L 67.171875 114.074219 L 67.644531 114.371094 L 67.5 115.199219 C 67.402344 115.722656 67.242188 116.230469 67.027344 116.714844 C 66.878906 117.003906 66.769531 117.300781 66.699219 117.617188 L 66.699219 117.832031 L 66.917969 117.695312 C 67.167969 117.542969 67.746094 116.023438 68.117188 114.554688 L 68.371094 113.550781 L 69.011719 113.226562 C 69.792969 112.835938 70.667969 112.652344 73.4375 112.300781 L 75.566406 112.03125 L 79.722656 112.0625 L 79.636719 111.800781 C 79.585938 111.65625 79.292969 111.40625 78.976562 111.246094 L 78.402344 110.953125 L 76.933594 110.949219 C 76.128906 110.949219 74.371094 111.066406 73.035156 111.210938 L 70.601562 111.472656 L 68.789062 112.394531 L 68.394531 113.085938 C 68.175781 113.46875 67.894531 113.777344 67.761719 113.777344 C 67.453125 113.769531 63.863281 110.316406 63.863281 110.023438 C 63.863281 109.902344 63.535156 109.472656 63.132812 109.074219 C 62.734375 108.671875 62.472656 108.34375 62.550781 108.34375 C 62.964844 108.34375 63.988281 109.269531 65.007812 110.566406 Z M 50.148438 91.359375 L 50.503906 91.46875 L 51.136719 92.683594 C 51.484375 93.351562 52.925781 95.527344 54.335938 97.515625 C 55.75 99.503906 57.148438 101.480469 57.445312 101.902344 C 58.175781 102.945312 57.894531 102.878906 57.074219 101.8125 C 56.710938 101.34375 56.003906 100.519531 55.503906 99.980469 C 54.355469 98.746094 52.324219 95.683594 51.332031 93.683594 C 51.003906 92.992188 50.617188 92.328125 50.179688 91.699219 L 49.792969 91.25 Z M 63.148438 109.941406 C 63.167969 110.410156 60.484375 107.972656 58.65625 105.859375 L 57.765625 104.828125 L 57.601562 104.988281 L 57.4375 105.152344 L 57.515625 104.886719 L 57.59375 104.617188 L 56.582031 103.171875 L 55.570312 101.722656 L 55.074219 101.722656 L 55.972656 102.964844 L 56.875 104.207031 L 56.464844 103.878906 C 55.96875 103.484375 54.402344 101.382812 54.402344 101.113281 L 54.402344 100.921875 L 54.6875 101.203125 C 54.832031 101.359375 55.011719 101.449219 55.21875 101.480469 L 55.46875 101.472656 L 54.996094 101.191406 C 54.796875 101.0625 54.582031 100.964844 54.355469 100.902344 C 54.261719 100.898438 52.902344 98.992188 51.335938 96.667969 L 48.480469 92.4375 L 48.613281 92.019531 C 48.730469 91.648438 49.398438 91.199219 49.570312 91.375 C 49.605469 91.410156 50.328125 92.738281 51.175781 94.324219 L 52.714844 97.210938 L 54.015625 98.96875 C 54.730469 99.9375 55.425781 100.796875 55.554688 100.878906 C 55.683594 100.957031 56.703125 102.230469 57.816406 103.703125 C 58.925781 105.179688 60.582031 107.171875 61.492188 108.132812 C 62.402344 109.09375 63.148438 109.910156 63.148438 109.941406 Z M 63.148438 109.941406 " fill-opacity="1" fill-rule="nonzero"/><path fill="#dc4a3f" d="M 61.730469 121.355469 L 62.082031 121.132812 L 61.613281 121.167969 C 61.152344 121.195312 59.417969 120.71875 55.75 119.546875 L 53.90625 118.957031 L 53.101562 119.113281 L 54.402344 119.675781 C 55.605469 120.144531 56.824219 120.550781 58.070312 120.894531 C 60.675781 121.617188 61.210938 121.6875 61.730469 121.355469 Z M 61.730469 121.355469 " fill-opacity="1" fill-rule="nonzero"/><path fill="#dc4a3f" d="M 121.5625 95.890625 C 120.917969 97.503906 119.0625 100.628906 118.09375 101.726562 C 117.25 102.6875 115.976562 103.503906 115.007812 103.71875 L 114.261719 103.882812 L 113.476562 103.484375 C 112.066406 102.765625 108.941406 100.503906 107.324219 99.03125 C 106.453125 98.234375 105.320312 97.238281 104.804688 96.8125 L 103.871094 96.039062 L 103.496094 95.25 C 103.3125 94.847656 103.070312 94.484375 102.765625 94.164062 L 102.410156 93.867188 L 102.261719 94.25 L 102.117188 94.628906 L 101.679688 94.628906 C 101.074219 94.628906 100.023438 95.105469 99.390625 95.664062 L 98.855469 96.132812 L 98.855469 96.523438 C 98.855469 96.738281 98.527344 97.414062 98.121094 98.023438 L 97.386719 99.136719 L 97.503906 99.542969 C 97.566406 99.765625 97.691406 100.121094 97.777344 100.332031 L 97.9375 100.710938 L 97.273438 100.96875 L 96.609375 101.222656 L 94.71875 101.152344 L 93.601562 101.710938 C 92.910156 102.070312 92.257812 102.492188 91.644531 102.96875 L 90.796875 103.667969 L 89.625 105.402344 L 88.453125 107.140625 L 88.453125 107.519531 C 88.453125 107.726562 88.816406 108.984375 89.261719 110.308594 L 90.074219 112.71875 L 90.9375 114.375 C 91.414062 115.285156 91.863281 116.082031 91.933594 116.148438 C 92.214844 116.414062 91.65625 114.964844 90.746094 113.074219 L 89.78125 111.0625 L 88.953125 107.992188 L 90.0625 106.367188 L 91.171875 104.738281 L 92.101562 103.941406 C 92.710938 103.4375 93.363281 103.003906 94.066406 102.640625 L 95.105469 102.140625 L 97.035156 102.398438 L 98.378906 101.054688 L 98.835938 101.449219 L 99.289062 101.84375 L 100.539062 106.28125 L 101.449219 108.082031 C 102.195312 109.46875 103.011719 110.8125 103.90625 112.109375 L 105.449219 114.335938 L 105.101562 115.183594 C 104.769531 115.894531 104.386719 116.578125 103.953125 117.234375 L 103.160156 118.4375 L 101.777344 119.355469 C 100.367188 120.289062 96.449219 122.296875 96.03125 122.296875 C 95.902344 122.296875 95.671875 122.054688 95.519531 121.765625 C 95.269531 121.332031 94.980469 120.921875 94.660156 120.535156 C 94.203125 119.917969 93.820312 119.253906 93.511719 118.550781 L 92.9375 117.257812 L 92.792969 117.40625 L 92.644531 117.550781 L 93.183594 118.996094 L 93.726562 120.4375 L 94.753906 121.761719 C 95.320312 122.492188 95.78125 123.175781 95.78125 123.28125 L 95.78125 123.476562 L 97.089844 123.476562 L 98.710938 122.53125 C 99.269531 122.183594 99.851562 121.871094 100.445312 121.585938 C 100.511719 121.585938 101.183594 121.132812 101.941406 120.582031 L 103.3125 119.578125 L 104.242188 117.921875 C 104.75 117.011719 105.304688 115.921875 105.46875 115.503906 L 105.765625 114.742188 L 106.199219 114.972656 C 106.5 115.113281 106.820312 115.191406 107.15625 115.203125 L 107.679688 115.203125 L 109.003906 114.207031 C 109.730469 113.660156 110.878906 112.695312 111.550781 112.058594 L 112.777344 110.902344 L 113.75 109.414062 L 114.71875 107.925781 L 114.925781 106.65625 L 115.128906 105.390625 L 114.917969 105.210938 C 114.796875 105.113281 114.746094 105.09375 114.800781 105.171875 C 115.148438 105.675781 113.246094 108.949219 111.878906 110.203125 C 110.71875 111.269531 108.625 112.804688 107.644531 113.320312 L 106.65625 113.832031 L 106.078125 113.6875 L 105.496094 113.542969 L 103.980469 111.359375 C 102.132812 108.699219 101.347656 107.214844 100.894531 105.507812 C 100.703125 104.792969 100.320312 103.558594 100.046875 102.765625 L 99.546875 101.320312 L 98.847656 100.652344 C 98.460938 100.28125 98.148438 99.851562 98.148438 99.695312 C 98.148438 99.230469 99.546875 96.710938 99.988281 96.375 C 100.472656 96.082031 100.984375 95.851562 101.523438 95.679688 L 102.652344 95.296875 L 104.199219 96.679688 C 105.050781 97.4375 106.402344 98.65625 107.207031 99.382812 C 109.03125 101 110.96875 102.46875 113.019531 103.792969 L 114.53125 104.796875 L 116.167969 104.796875 L 118.042969 103.3125 L 119.648438 100.921875 C 120.460938 99.726562 121.203125 98.488281 121.875 97.210938 L 122.5 95.886719 L 122.789062 93.566406 L 122.449219 94.039062 C 122.101562 94.632812 121.808594 95.25 121.5625 95.890625 Z M 121.5625 95.890625 " fill-opacity="1" fill-rule="nonzero"/><path fill="#dc4a3f" d="M 73.253906 123.695312 L 71.9375 123.234375 L 70.617188 122.769531 L 69.941406 123.445312 L 70.746094 123.949219 L 71.546875 124.453125 L 73.203125 124.292969 C 74.113281 124.207031 75.378906 124.117188 76.019531 124.101562 L 77.179688 124.070312 L 77.292969 123.738281 L 77.402344 123.402344 L 75.328125 123.550781 Z M 73.253906 123.695312 " fill-opacity="1" fill-rule="nonzero"/><path fill="#dc4a3f" d="M 88.058594 123.605469 L 87.292969 124.25 L 86.523438 124.898438 L 85.539062 124.75 L 84.550781 124.605469 L 84.121094 124.195312 L 83.695312 123.789062 L 83.453125 122.15625 C 82.933594 118.597656 82.136719 115.203125 81.828125 115.203125 C 81.726562 115.203125 81.59375 115.335938 81.53125 115.5 L 81.417969 115.800781 L 81.980469 118.871094 C 82.605469 122.269531 83.132812 124.101562 83.660156 124.707031 L 84.011719 125.105469 L 84.753906 125.199219 C 85.164062 125.253906 85.605469 125.3125 85.734375 125.332031 C 85.863281 125.351562 86.34375 125.136719 86.796875 124.855469 L 87.625 124.347656 L 88.652344 124.402344 L 89.679688 124.460938 L 90.367188 124.179688 C 90.746094 124.023438 91.054688 123.820312 91.054688 123.730469 L 91.054688 123.570312 L 89.554688 123.589844 Z M 88.058594 123.605469 " fill-opacity="1" fill-rule="nonzero"/><g clip-path="url(#1cd05b9795)"><path fill="#dc4a3f" d="M 93.230469 125.015625 L 89.753906 126.375 L 88.257812 126.496094 L 86.765625 126.621094 L 85.421875 126.304688 C 84.707031 126.140625 84.023438 125.894531 83.371094 125.5625 C 82.980469 125.332031 82.429688 125.039062 82.152344 124.914062 C 81.796875 124.730469 81.5 124.472656 81.265625 124.148438 L 80.886719 123.609375 L 80.855469 122.414062 L 80.597656 122.949219 L 80.335938 123.488281 L 80.59375 124.320312 L 80.847656 125.152344 L 76.691406 125.121094 L 72.539062 125.09375 L 72.160156 124.898438 C 71.953125 124.792969 70.433594 124.042969 68.785156 123.234375 L 65.789062 121.765625 L 63.464844 121.960938 C 59.855469 122.265625 59.597656 122.21875 53.644531 120.199219 L 50.164062 119.019531 L 48.394531 118.144531 L 46.628906 117.273438 L 46.082031 116.683594 L 45.535156 116.089844 L 46.949219 116.839844 L 48.359375 117.585938 L 48.839844 117.511719 L 49.320312 117.433594 L 48.019531 116.78125 C 47.304688 116.421875 46.558594 116.042969 46.363281 115.9375 C 46.167969 115.832031 45.691406 115.578125 45.300781 115.375 L 44.589844 115 L 44.441406 113.546875 L 44.636719 113.546875 C 44.742188 113.550781 45.566406 113.929688 46.472656 114.394531 C 47.375 114.855469 48.757812 115.503906 49.542969 115.835938 C 50.332031 116.164062 51.425781 116.636719 51.980469 116.882812 C 52.53125 117.128906 53.4375 117.53125 53.988281 117.773438 C 55.945312 118.636719 60.214844 120.113281 61.582031 120.398438 L 62.964844 120.683594 L 63.226562 120.425781 L 63.484375 120.167969 L 63.046875 120.167969 C 62.375 120.167969 57.820312 118.554688 55.703125 117.566406 C 54.664062 117.078125 53.574219 116.609375 53.28125 116.515625 C 52.988281 116.425781 52.75 116.253906 52.75 116.128906 L 52.75 115.90625 L 53.164062 116.136719 C 53.90625 116.550781 55.789062 117.332031 56.050781 117.332031 C 56.285156 117.363281 56.507812 117.4375 56.710938 117.558594 C 58.144531 118.355469 61.566406 119.4375 63.691406 119.765625 L 64.347656 119.867188 L 64.453125 119.695312 L 64.5625 119.519531 L 62.851562 119.117188 L 61.140625 118.710938 L 58.492188 117.617188 C 57.035156 117.015625 55.875 116.488281 55.914062 116.453125 C 55.949219 116.414062 56.328125 116.503906 56.746094 116.648438 L 57.511719 116.917969 L 57.789062 116.632812 L 58.070312 116.351562 L 57.832031 116.410156 C 57.507812 116.492188 55.277344 115.421875 52.804688 113.996094 L 50.742188 112.8125 L 48.132812 111.765625 C 46.695312 111.191406 45.285156 110.6875 44.996094 110.640625 L 44.472656 110.5625 L 44.125 110.105469 C 43.972656 109.925781 43.855469 109.722656 43.769531 109.503906 C 43.761719 109.367188 45.875 109.703125 48.433594 110.246094 L 49.675781 110.507812 L 49.96875 110.792969 C 50.378906 111.183594 53.660156 113.546875 53.796875 113.546875 C 53.859375 113.546875 55.144531 114.300781 56.65625 115.226562 C 58.164062 116.148438 59.457031 116.851562 59.523438 116.785156 C 59.589844 116.714844 58.492188 115.855469 57.082031 114.867188 C 55.675781 113.882812 54.308594 112.882812 54.050781 112.644531 C 53.789062 112.410156 52.683594 111.492188 51.597656 110.605469 C 49.453125 108.859375 48.601562 107.984375 46.363281 105.246094 C 45.910156 104.6875 45.191406 103.816406 44.769531 103.3125 L 44 102.390625 L 43.863281 102.746094 L 43.730469 103.101562 L 44.136719 103.890625 C 44.59375 104.769531 45.851562 106.511719 47.164062 108.082031 C 47.644531 108.652344 47.996094 109.15625 47.949219 109.203125 C 47.902344 109.25 47.019531 109.140625 45.988281 108.960938 L 44.117188 108.628906 L 43.5625 109.164062 L 43.011719 109.699219 L 43.464844 110.617188 L 43.921875 111.539062 L 43.945312 113.507812 L 43.96875 115.472656 L 44.304688 115.988281 C 44.636719 116.4375 45.003906 116.859375 45.40625 117.246094 L 46.167969 117.992188 L 47.863281 118.832031 C 49.753906 119.769531 51.738281 120.519531 52.984375 120.765625 C 53.597656 120.910156 54.195312 121.109375 54.769531 121.359375 C 55.691406 121.726562 56.632812 122.035156 57.59375 122.28125 L 59.457031 122.769531 L 60.523438 122.769531 C 61.355469 122.738281 62.183594 122.640625 63 122.476562 L 64.414062 122.183594 L 64.511719 122.476562 C 64.582031 122.660156 64.714844 122.757812 64.914062 122.769531 C 65.078125 122.769531 66.222656 123.289062 67.453125 123.925781 C 68.71875 124.578125 70.019531 125.164062 71.347656 125.679688 L 73.003906 126.277344 L 76.765625 126.089844 C 78.835938 125.988281 80.753906 125.828125 81.023438 125.738281 L 81.519531 125.570312 L 82.269531 126.203125 L 83.023438 126.835938 L 84.613281 127.394531 L 86.207031 127.953125 L 87.390625 127.820312 L 88.570312 127.683594 L 90.496094 127.019531 C 91.554688 126.65625 92.628906 126.25 92.882812 126.113281 C 93.523438 125.769531 95.074219 124.015625 95.074219 123.632812 L 95.074219 123.316406 L 94.152344 124.164062 Z M 45 111.121094 C 45.273438 111.304688 45.574219 111.445312 45.890625 111.542969 C 46.441406 111.710938 49.730469 113.308594 53.929688 115.449219 C 56.5625 116.792969 55.3125 116.539062 52.140625 115.089844 C 49.675781 113.960938 49.332031 113.824219 48.609375 113.667969 L 47.902344 113.515625 L 48.492188 114.039062 C 48.816406 114.324219 48.976562 114.519531 48.847656 114.46875 C 48.714844 114.417969 47.742188 114.058594 46.683594 113.671875 L 44.757812 112.96875 L 44.628906 112.019531 C 44.488281 110.957031 44.5625 110.769531 45 111.121094 Z M 45 111.121094 " fill-opacity="1" fill-rule="nonzero"/></g></svg>