<svg xmlns="http://www.w3.org/2000/svg" xmlns:xlink="http://www.w3.org/1999/xlink" width="200" zoomAndPan="magnify" viewBox="0 0 150 157.92" height="200" preserveAspectRatio="xMidYMid meet" version="1.0"><defs><clipPath id="2d9c18cd10"><path d="M 2 34 L 136 34 L 136 129 L 2 129 Z M 2 34 " clip-rule="nonzero"/></clipPath><clipPath id="64f8d77147"><path d="M 1.867188 71.097656 L 119.96875 17.519531 L 147.839844 78.957031 L 29.742188 132.539062 Z M 1.867188 71.097656 " clip-rule="nonzero"/></clipPath><clipPath id="344b1c5426"><path d="M 1.867188 71.097656 L 119.96875 17.519531 L 147.839844 78.957031 L 29.742188 132.539062 Z M 1.867188 71.097656 " clip-rule="nonzero"/></clipPath></defs><g clip-path="url(#2d9c18cd10)"><g clip-path="url(#64f8d77147)"><g clip-path="url(#344b1c5426)"><path fill="#dc4a3f" d="M 36.253906 128.078125 C 35.84375 125.699219 33.363281 125.472656 30.804688 127.585938 C 29.191406 128.921875 29.003906 128.871094 29.289062 127.183594 C 29.660156 124.972656 31.714844 122.390625 34.128906 121.101562 C 35.097656 120.582031 35.679688 120.140625 35.871094 119.777344 C 36.03125 119.472656 36.574219 118.792969 37.078125 118.257812 L 38 117.289062 L 36.609375 117.210938 L 36.992188 116.347656 C 37.207031 115.855469 37.609375 115.371094 37.917969 115.226562 C 39.332031 114.558594 40.550781 113.796875 40.582031 113.5625 C 40.617188 113.277344 41.902344 111.980469 42.34375 111.78125 C 42.496094 111.710938 42.71875 111.394531 42.835938 111.074219 C 43.039062 110.535156 43.253906 110.410156 45.796875 109.363281 C 48.3125 108.328125 49.257812 107.695312 47.785156 108.03125 C 46.847656 108.246094 46.050781 108 46.316406 107.582031 C 46.636719 107.070312 48.113281 106.734375 49.265625 106.914062 C 49.867188 107.007812 50.902344 106.921875 51.722656 106.707031 C 59.015625 104.816406 61.34375 105.953125 58.148438 109.839844 L 55.871094 112.609375 L 55.5 114.597656 C 55.105469 116.722656 54.746094 117.238281 53.136719 117.96875 C 52.011719 118.484375 52 117.976562 53.101562 116.164062 C 53.628906 115.289062 54.035156 114.566406 54 114.558594 C 53.960938 114.550781 53.421875 114.855469 52.800781 115.238281 C 51.628906 115.957031 50.082031 116.625 47.054688 117.714844 C 45.359375 118.328125 45.261719 118.390625 44.40625 119.5 C 43.496094 120.671875 42.160156 121.523438 41.808594 121.144531 C 41.675781 121 41.316406 121.167969 40.398438 121.816406 C 38.890625 122.875 38.691406 122.832031 39.152344 121.539062 L 39.511719 120.539062 L 38.199219 121.132812 C 36.359375 121.96875 36.214844 122.34375 36.449219 125.648438 C 36.613281 127.933594 36.488281 129.453125 36.25 128.078125 Z M 35.871094 123.34375 C 35.832031 123.253906 35.964844 122.773438 36.171875 122.277344 L 36.542969 121.375 L 39.097656 120.367188 C 40.503906 119.8125 42.117188 119.183594 42.683594 118.96875 C 43.25 118.753906 44.953125 118.089844 46.472656 117.488281 C 47.988281 116.890625 49.535156 116.3125 49.90625 116.210938 C 51.039062 115.890625 54.09375 113.984375 54.949219 113.0625 L 55.757812 112.1875 L 55.457031 110.585938 C 55.289062 109.703125 54.957031 108.527344 54.714844 107.976562 L 54.28125 106.96875 L 55.136719 108.144531 C 55.609375 108.792969 56.152344 109.660156 56.347656 110.066406 C 56.539062 110.476562 56.78125 110.773438 56.882812 110.730469 C 57.335938 110.523438 60.042969 107.023438 59.933594 106.785156 C 59.558594 105.957031 53.355469 106.535156 50.570312 107.660156 L 48.53125 108.480469 L 49.523438 108.457031 C 50.070312 108.445312 50.59375 108.460938 50.683594 108.496094 C 50.773438 108.527344 49.527344 109.394531 47.914062 110.417969 C 45.488281 111.960938 44.46875 112.761719 42.003906 115.074219 C 39.015625 117.875 38.335938 118.433594 38.996094 117.546875 C 40 116.191406 38.355469 117.34375 37.074219 118.890625 C 36.316406 119.808594 35.394531 120.703125 35.027344 120.875 C 32.765625 121.9375 30.21875 124.917969 29.660156 127.15625 L 29.398438 128.214844 L 30.203125 127.511719 C 30.683594 127.089844 31.21875 126.296875 31.542969 125.511719 C 32.097656 124.167969 32.664062 123.277344 32.90625 123.371094 C 32.984375 123.398438 32.773438 123.878906 32.4375 124.4375 C 31.75 125.578125 31.660156 126.269531 32.226562 126.011719 C 32.421875 125.921875 32.695312 125.515625 32.835938 125.109375 C 33.132812 124.230469 33.882812 123.210938 34.015625 123.507812 C 34.066406 123.621094 34.027344 123.75 33.925781 123.796875 C 33.605469 123.941406 32.96875 125.46875 33.175781 125.605469 C 33.28125 125.675781 33.535156 125.660156 33.742188 125.566406 C 34.207031 125.355469 35.34375 125.925781 35.84375 126.625 C 36.1875 127.097656 36.210938 124.09375 35.871094 123.34375 Z M 40.125 118.375 C 40.242188 118.199219 41.167969 117.609375 42.179688 117.0625 C 45.992188 115.011719 49.789062 112.710938 51.066406 111.675781 C 53.261719 109.898438 53.300781 109.867188 53.074219 110.261719 C 52.410156 111.410156 49.039062 113.78125 44.851562 116.046875 C 40.648438 118.320312 39.917969 118.679688 40.125 118.375 Z M 56.699219 109.925781 C 56.277344 109.769531 56.15625 108.984375 56.472656 108.429688 C 57.058594 107.394531 57.679688 107.890625 57.371094 109.148438 C 57.191406 109.878906 57.039062 110.054688 56.699219 109.925781 Z M 57.035156 108.382812 C 56.980469 108.269531 56.878906 108.410156 56.816406 108.695312 C 56.75 108.980469 56.746094 109.3125 56.800781 109.425781 C 56.855469 109.539062 56.957031 109.398438 57.019531 109.113281 C 57.085938 108.828125 57.09375 108.496094 57.035156 108.382812 Z M 54.265625 116.71875 C 54.550781 116.445312 54.886719 115.777344 55.011719 115.234375 L 55.234375 114.246094 L 54.722656 115.230469 C 54.207031 116.214844 53.550781 117.15625 53.488281 117.011719 C 53.410156 116.84375 55.070312 113.84375 55.25 113.824219 C 55.355469 113.8125 55.335938 113.734375 55.207031 113.648438 C 55.046875 113.539062 54.90625 113.621094 54.738281 113.914062 C 54.609375 114.148438 54.132812 114.96875 53.675781 115.738281 C 52.492188 117.738281 52.746094 118.164062 54.265625 116.71875 Z M 40.417969 121.3125 C 40.671875 121.054688 41.285156 120.628906 41.777344 120.367188 C 42.273438 120.105469 42.75 119.785156 42.839844 119.648438 C 42.929688 119.515625 43.046875 119.503906 43.101562 119.625 C 43.15625 119.746094 43.035156 120.015625 42.832031 120.226562 L 42.464844 120.613281 L 42.929688 120.417969 C 43.359375 120.238281 44.65625 118.804688 44.570312 118.609375 C 44.546875 118.558594 43.589844 118.953125 42.441406 119.476562 C 41.296875 120.003906 40.253906 120.421875 40.128906 120.40625 C 40.003906 120.390625 39.765625 120.761719 39.601562 121.226562 C 39.273438 122.160156 39.554688 122.1875 40.417969 121.3125 Z M 56.171875 110.75 C 55.914062 110.210938 55.863281 110.183594 55.871094 110.582031 C 55.886719 111.242188 56.042969 111.589844 56.28125 111.484375 C 56.390625 111.433594 56.339844 111.101562 56.171875 110.75 Z M 42 114.542969 C 44.425781 112.230469 44.699219 112.015625 47.328125 110.347656 C 49.859375 108.742188 49.871094 108.730469 48.46875 109.035156 C 46.304688 109.507812 42.992188 110.882812 43.15625 111.246094 C 43.285156 111.53125 42 112.902344 41.3125 113.210938 C 41.203125 113.261719 41.03125 113.496094 40.925781 113.734375 C 40.816406 113.988281 40.125 114.503906 39.222656 115 C 37.773438 115.792969 37.054688 116.402344 37.207031 116.710938 C 37.320312 116.949219 39.539062 116.875 39.8125 116.625 C 39.953125 116.496094 40.9375 115.558594 42.003906 114.542969 Z M 49.804688 107.300781 C 49.714844 107.101562 47.71875 107.183594 47.21875 107.40625 C 46.523438 107.710938 46.976562 107.808594 48.347656 107.648438 C 49.722656 107.484375 49.871094 107.449219 49.804688 107.300781 Z M 88.648438 88.414062 C 87.707031 88.292969 87.535156 87.660156 88.21875 86.820312 C 88.546875 86.414062 88.625 86.183594 88.425781 86.210938 C 86.929688 86.433594 85.007812 87.027344 83.738281 87.660156 C 82.863281 88.097656 82.175781 88.339844 82.128906 88.230469 C 82.082031 88.125 81.441406 88.269531 80.707031 88.546875 C 78.941406 89.214844 78.519531 89.054688 79.339844 88.027344 C 79.683594 87.59375 80.046875 87.296875 80.148438 87.363281 C 80.246094 87.433594 80.136719 87.710938 79.898438 87.984375 L 79.46875 88.484375 L 80.058594 88.449219 C 80.378906 88.429688 80.972656 88.199219 81.371094 87.9375 C 81.824219 87.640625 82.1875 87.519531 82.335938 87.617188 C 82.46875 87.707031 82.84375 87.621094 83.175781 87.429688 C 83.890625 87.011719 77.328125 86.988281 76.410156 87.40625 C 75.433594 87.847656 76.0625 89.441406 77.382812 89.871094 C 78.402344 90.203125 78.238281 90.457031 77.167969 90.195312 C 76.789062 90.101562 76.402344 90.058594 76.308594 90.101562 C 75.5625 90.433594 73.0625 87.828125 71.371094 84.953125 C 71.179688 84.621094 70.785156 84.09375 70.503906 83.78125 C 69.632812 82.820312 68.328125 79.984375 68.683594 79.824219 C 68.800781 79.773438 69.027344 80.085938 69.203125 80.546875 C 69.609375 81.597656 72.257812 83.765625 73.832031 84.339844 C 75.25 84.851562 76.230469 84.574219 78.136719 83.125 L 79.546875 82.054688 L 78.839844 81.640625 C 78.449219 81.417969 77.882812 80.851562 77.578125 80.382812 C 77.273438 79.917969 76.867188 79.363281 76.675781 79.152344 C 76.199219 78.617188 76.792969 78.375 78.046875 78.589844 C 79.0625 78.765625 79.695312 78.621094 79.527344 78.253906 C 79.46875 78.125 79.636719 77.992188 79.929688 77.9375 C 80.203125 77.886719 81.203125 77.511719 82.152344 77.105469 C 85.691406 75.597656 86.742188 75.410156 91.609375 75.398438 C 96.777344 75.386719 100.414062 75.671875 100.578125 76.097656 C 101.371094 78.183594 100.417969 79.734375 96.855469 82.136719 C 94.152344 83.957031 91.726562 82.289062 92.363281 79.046875 C 92.550781 78.078125 92.539062 78.011719 92.1875 78.128906 C 88.890625 79.253906 88.605469 79.402344 86.757812 80.914062 C 84.304688 82.921875 82.875 83.535156 78.125 84.628906 C 74.632812 85.429688 73.46875 85.609375 74.351562 85.207031 C 74.597656 85.09375 74.25 84.878906 73.183594 84.472656 C 72.347656 84.152344 71.328125 83.613281 70.917969 83.269531 L 70.167969 82.644531 L 70.617188 83.285156 C 70.863281 83.636719 71.40625 84.238281 71.824219 84.613281 C 72.40625 85.140625 72.59375 85.449219 72.625 85.914062 C 72.664062 86.589844 73.621094 87.8125 73.84375 87.476562 C 73.914062 87.375 74.140625 87.511719 74.347656 87.789062 C 74.554688 88.066406 74.957031 88.554688 75.242188 88.878906 L 75.761719 89.464844 L 75.652344 88.453125 C 75.59375 87.894531 75.578125 87.347656 75.613281 87.242188 C 75.761719 86.828125 78.574219 86.351562 79.894531 86.519531 C 83.871094 87.023438 86.398438 86.613281 90.289062 84.835938 C 93.292969 83.460938 94.28125 83.179688 92.925781 84.082031 C 92.578125 84.3125 91.949219 85.140625 91.53125 85.921875 C 90.414062 87.988281 89.757812 88.558594 88.648438 88.414062 Z M 90.414062 87.074219 C 90.773438 86.640625 91.148438 86.019531 91.246094 85.6875 C 91.382812 85.226562 91.191406 85.398438 90.425781 86.429688 C 89.875 87.167969 89.335938 87.714844 89.230469 87.644531 C 88.980469 87.476562 89.207031 87.035156 90.0625 86.03125 C 90.738281 85.234375 90.742188 85.226562 90.121094 85.664062 C 88.660156 86.695312 88.054688 87.878906 88.9375 87.96875 C 89.554688 88.03125 89.675781 87.960938 90.414062 87.074219 Z M 94.511719 82.148438 C 93.746094 81.550781 92.980469 79.832031 93.207031 79.226562 C 93.277344 79.042969 93.425781 79.28125 93.625 79.898438 C 94.753906 83.34375 101.042969 80.867188 100.433594 77.21875 C 100.054688 74.964844 91.578125 75.246094 86.875 77.664062 C 83.78125 79.257812 76.875 84.191406 77.605469 84.285156 C 79.542969 84.53125 84.484375 82.445312 86.773438 80.410156 C 88.355469 79.003906 90.800781 77.84375 92.15625 77.851562 L 92.796875 77.855469 L 92.792969 79.207031 C 92.785156 80.773438 93.300781 82.082031 94.125 82.605469 C 95.066406 83.203125 95.382812 82.828125 94.511719 82.148438 Z M 96.855469 79.230469 C 96.21875 78.921875 96.125 78.101562 96.695312 77.839844 C 97.066406 77.671875 97.269531 77.726562 97.472656 78.046875 C 97.738281 78.464844 97.683594 79.203125 97.375 79.339844 C 97.292969 79.378906 97.058594 79.328125 96.855469 79.230469 Z M 72.214844 85.324219 C 72.074219 85.183594 71.933594 85.128906 71.90625 85.207031 C 71.875 85.28125 71.957031 85.414062 72.082031 85.496094 C 72.421875 85.726562 72.511719 85.613281 72.214844 85.324219 Z M 80.917969 80.78125 C 81.101562 80.496094 81.085938 80.472656 80.792969 80.601562 C 80.339844 80.800781 78.601562 79.925781 78.347656 79.371094 C 78.179688 78.996094 77.464844 78.734375 77.082031 78.90625 C 77.027344 78.933594 77.621094 79.417969 78.402344 79.988281 C 80.183594 81.285156 80.441406 81.914062 78.707031 80.734375 C 78.238281 80.414062 78.089844 80.386719 78.203125 80.636719 C 78.605469 81.527344 80.378906 81.621094 80.917969 80.78125 Z M 81.433594 79.925781 C 81.058594 79.902344 80.710938 79.792969 80.660156 79.683594 C 80.539062 79.414062 80.6875 79.378906 81.480469 79.5 C 82.0625 79.589844 82.496094 79.445312 84.140625 78.605469 C 85.21875 78.054688 87.007812 77.203125 88.113281 76.714844 C 89.59375 76.058594 89.964844 75.835938 89.53125 75.859375 C 88.152344 75.945312 85.480469 76.550781 83.851562 77.152344 C 82.886719 77.511719 81.621094 77.917969 81.035156 78.054688 C 80.328125 78.226562 79.925781 78.414062 79.820312 78.628906 C 79.714844 78.847656 79.464844 78.964844 79.050781 78.988281 C 78.710938 79.011719 78.460938 79.082031 78.492188 79.148438 C 78.667969 79.539062 80.054688 80.207031 80.730469 80.230469 C 81.730469 80.261719 82.359375 79.992188 81.433594 79.925781 Z M 122.582031 63.191406 C 122.183594 63 122.179688 61.757812 122.574219 61.160156 C 122.761719 60.875 122.390625 61.003906 121.058594 61.675781 C 119.265625 62.582031 117.644531 63.007812 116.578125 62.855469 C 116.269531 62.808594 115.753906 62.917969 115.4375 63.09375 C 113.519531 64.152344 113.125 64.316406 112.949219 64.128906 C 112.824219 63.992188 112.210938 64.171875 111.101562 64.675781 C 109.035156 65.613281 108.519531 65.503906 109.074219 64.246094 C 109.597656 63.066406 108.972656 62.675781 106.222656 62.476562 C 106.074219 62.464844 105.65625 62.980469 105.292969 63.617188 C 103.875 66.101562 102.039062 67.566406 99.832031 67.964844 L 99.1875 68.082031 L 99.652344 67.035156 C 100.929688 64.167969 101.417969 62.8125 101.1875 62.785156 C 100.386719 62.679688 97.074219 60.078125 96.703125 59.257812 C 96.578125 58.980469 96.609375 58.964844 97 59.109375 C 97.238281 59.203125 99.011719 59.34375 100.9375 59.425781 C 102.863281 59.507812 104.839844 59.667969 105.324219 59.777344 C 106.066406 59.945312 106.265625 59.910156 106.589844 59.539062 C 106.800781 59.296875 107.703125 58.636719 108.59375 58.074219 C 110.058594 57.144531 110.15625 57.042969 109.628906 57.011719 C 108.90625 56.96875 107.730469 56.175781 107.9375 55.871094 C 108.019531 55.75 108.132812 55.757812 108.191406 55.890625 C 108.269531 56.0625 108.34375 56.035156 108.460938 55.789062 C 108.578125 55.546875 108.871094 55.410156 109.476562 55.316406 C 110.339844 55.179688 111.03125 54.804688 112.929688 53.453125 C 114.34375 52.445312 115.980469 51.898438 116.625 52.222656 C 117 52.410156 117.601562 52.335938 118.984375 51.929688 C 120.007812 51.632812 121.261719 51.40625 121.773438 51.433594 C 122.285156 51.457031 123.59375 51.292969 124.683594 51.070312 C 125.777344 50.847656 127.441406 50.503906 128.382812 50.3125 C 131.300781 49.710938 135.390625 50.800781 134.605469 51.972656 C 134.503906 52.125 134.582031 52.257812 134.84375 52.386719 C 135.285156 52.601562 134.875 53.691406 134.058594 54.457031 C 131.488281 56.886719 129.433594 58.34375 127.457031 59.140625 C 126.40625 59.566406 126.246094 59.710938 125.757812 60.671875 C 125.121094 61.9375 123.171875 63.480469 122.582031 63.191406 Z M 125.21875 60.214844 C 125.328125 60.167969 125.113281 60.53125 124.738281 61.019531 C 124.367188 61.511719 124.179688 61.859375 124.324219 61.800781 C 125.027344 61.511719 126.136719 59.425781 125.574219 59.460938 C 125.375 59.472656 125.09375 59.625 124.953125 59.800781 C 124.808594 59.976562 124.351562 60.296875 123.933594 60.511719 C 123.023438 60.984375 122.628906 61.457031 122.585938 62.128906 C 122.527344 63.023438 122.882812 62.878906 123.957031 61.578125 C 124.539062 60.875 125.105469 60.261719 125.21875 60.214844 Z M 129.257812 57.667969 C 129.5 57.421875 129.527344 57.304688 129.335938 57.382812 C 128.160156 57.859375 126.28125 54.394531 126.863281 52.824219 C 126.933594 52.632812 126.996094 52.730469 127.042969 53.105469 C 127.410156 55.949219 128.699219 57.632812 129.867188 56.792969 C 130.144531 56.59375 130.410156 56.515625 130.457031 56.625 C 130.507812 56.730469 130.398438 56.886719 130.214844 56.96875 C 130.03125 57.054688 129.941406 57.144531 130.015625 57.171875 C 130.269531 57.269531 131.960938 55.980469 133.128906 54.804688 C 134.246094 53.683594 134.859375 52.746094 134.554688 52.632812 C 134.476562 52.601562 134.308594 52.8125 134.1875 53.097656 C 134.0625 53.382812 133.871094 53.554688 133.761719 53.480469 C 133.652344 53.40625 133.757812 52.898438 133.992188 52.351562 L 134.417969 51.359375 L 133.332031 51.039062 C 131.644531 50.539062 129.757812 50.441406 128.238281 50.769531 C 125.226562 51.421875 122.695312 51.921875 122.511719 51.898438 C 122.40625 51.882812 122.328125 51.976562 122.34375 52.105469 C 122.359375 52.261719 122.105469 52.375 121.578125 52.453125 C 121.144531 52.515625 119.976562 52.9375 118.988281 53.386719 C 118 53.835938 116.445312 54.414062 115.53125 54.671875 C 113.816406 55.15625 113.609375 55.273438 109.035156 58.28125 C 108.066406 58.921875 107.097656 59.632812 106.882812 59.863281 C 106.558594 60.214844 106.273438 60.253906 105.183594 60.105469 C 104.089844 59.957031 99.507812 59.6875 98.722656 59.726562 C 98.59375 59.730469 99.140625 59.996094 99.945312 60.308594 C 100.746094 60.625 101.300781 60.929688 101.175781 60.984375 C 100.96875 61.082031 99.441406 60.527344 97.929688 59.808594 L 97.277344 59.5 L 97.957031 60.152344 C 98.785156 60.953125 100.460938 62.050781 101.21875 62.296875 C 102.128906 62.585938 101.757812 62.269531 100.226562 61.441406 C 98.199219 60.347656 98.332031 60.242188 100.578125 61.160156 C 102.757812 62.054688 102.664062 61.996094 102.203125 62.214844 C 101.886719 62.363281 101.902344 62.390625 102.371094 62.496094 C 102.65625 62.5625 102.859375 62.699219 102.820312 62.804688 C 102.78125 62.90625 102.5625 62.941406 102.335938 62.878906 C 102.003906 62.789062 100.210938 65.921875 100.378906 66.296875 C 100.46875 66.492188 103.25 64.808594 103.683594 64.292969 C 103.992188 63.925781 104.328125 63.65625 104.425781 63.695312 C 104.902344 63.875 103.144531 65.386719 101.683594 66.054688 C 100.085938 66.785156 99.082031 67.921875 100.570312 67.316406 C 100.921875 67.175781 101.324219 67.023438 101.46875 66.976562 C 102.660156 66.613281 104.109375 65.09375 105.144531 63.125 C 106.007812 61.484375 105.980469 61.503906 107.136719 61.910156 C 109.957031 62.894531 116.75 62.75 119.71875 61.640625 C 120.878906 61.207031 121.152344 61.046875 120.824219 61 C 119.851562 60.859375 120.476562 59.636719 122.03125 58.628906 C 122.632812 58.238281 122.945312 58.128906 123.015625 58.28125 C 123.070312 58.402344 123.042969 58.523438 122.953125 58.546875 C 122.070312 58.792969 121.300781 59.40625 121.015625 60.089844 C 120.839844 60.515625 120.785156 60.710938 120.902344 60.519531 C 121.269531 59.902344 122.78125 58.808594 123.101562 58.929688 C 123.300781 59.003906 123.046875 59.253906 122.324219 59.699219 C 121.667969 60.097656 121.355469 60.394531 121.515625 60.457031 C 121.863281 60.585938 123.09375 60.085938 124.53125 59.230469 C 125.15625 58.855469 125.566406 58.667969 125.445312 58.804688 C 124.71875 59.632812 128.4375 58.523438 129.257812 57.667969 Z M 129.984375 53.957031 C 128.878906 53.539062 129.007812 52.699219 130.167969 52.742188 C 130.546875 52.753906 130.832031 52.933594 130.976562 53.253906 C 131.269531 53.894531 130.765625 54.25 129.984375 53.953125 Z M 108.671875 60.292969 C 106.367188 60.824219 106.785156 60.382812 109.21875 59.714844 C 111.066406 59.210938 111.359375 59.066406 114.394531 57.15625 C 119.121094 54.183594 122.917969 52.640625 125.136719 52.785156 C 126.140625 52.851562 125.488281 53.097656 123.34375 53.472656 C 120.59375 53.949219 119.386719 54.492188 115.257812 57.125 C 111.515625 59.507812 111.003906 59.753906 108.671875 60.292969 Z M 114.492188 63.136719 C 114.785156 62.90625 114.882812 62.765625 114.710938 62.824219 C 114.542969 62.886719 113.320312 62.9375 112 62.941406 C 109.394531 62.949219 109.375 62.949219 109.652344 63.136719 C 109.757812 63.207031 109.769531 63.566406 109.675781 63.9375 C 109.453125 64.851562 109.632812 64.859375 111.433594 64.042969 C 112.863281 63.398438 113.679688 63.289062 113.175781 63.816406 C 112.855469 64.152344 113.898438 63.613281 114.492188 63.136719 Z M 121.871094 51.835938 C 121.710938 51.773438 120.558594 51.972656 119.3125 52.277344 C 117.59375 52.695312 116.9375 52.761719 116.589844 52.550781 C 116.046875 52.21875 115.515625 52.429688 112.957031 53.996094 L 111.15625 55.09375 L 111.980469 55.132812 C 112.960938 55.171875 114.273438 54.769531 118.457031 53.128906 C 120.175781 52.453125 121.667969 51.933594 121.769531 51.972656 C 121.871094 52.011719 122 52.019531 122.058594 51.992188 C 122.117188 51.964844 122.035156 51.894531 121.871094 51.832031 Z M 112.011719 55.804688 C 112.167969 55.71875 111.878906 55.742188 111.367188 55.863281 C 110.855469 55.984375 110.074219 56.015625 109.632812 55.925781 C 108.847656 55.773438 108.492188 55.9375 108.945312 56.242188 C 109.363281 56.523438 111 56.523438 111.363281 56.242188 C 111.5625 56.089844 111.851562 55.894531 112.011719 55.804688 Z M 110.855469 55.386719 C 110.644531 55.355469 110.332031 55.390625 110.167969 55.464844 C 109.902344 55.585938 109.910156 55.609375 110.257812 55.660156 C 110.46875 55.691406 110.78125 55.65625 110.945312 55.582031 C 111.210938 55.460938 111.199219 55.4375 110.855469 55.386719 Z M 56.050781 68.527344 C 55.992188 68.441406 55.929688 68.308594 55.90625 68.230469 C 55.882812 68.15625 55.5 68.183594 55.058594 68.292969 C 54.617188 68.402344 53.476562 68.535156 52.53125 68.589844 C 51.582031 68.644531 50.632812 68.8125 50.417969 68.960938 C 49.5625 69.570312 46.949219 70.554688 46.566406 70.414062 C 46.488281 70.382812 46.578125 70.027344 46.765625 69.621094 L 47.105469 68.882812 L 46.515625 69.152344 C 46.191406 69.300781 45.414062 69.976562 44.789062 70.660156 C 43.140625 72.457031 42.769531 72.449219 43.296875 70.621094 C 43.695312 69.25 42.695312 68.25 40.410156 67.722656 C 39.101562 67.421875 39.132812 67.261719 40.582031 66.800781 C 41.996094 66.351562 43.390625 66.421875 45.210938 67.046875 C 45.871094 67.269531 46.421875 67.417969 46.441406 67.371094 C 46.460938 67.324219 46.855469 67.046875 47.316406 66.753906 C 49.207031 65.5625 49.25 65.511719 48.652344 65.253906 C 47.625 64.808594 50.378906 63.394531 54.050781 62.488281 C 54.578125 62.359375 54.574219 62.355469 53.953125 62.386719 C 53.597656 62.402344 53.261719 62.324219 53.210938 62.210938 C 53.160156 62.101562 53.285156 61.996094 53.488281 61.984375 C 53.695312 61.972656 53.9375 61.929688 54.03125 61.886719 C 54.121094 61.84375 54.734375 61.933594 55.390625 62.085938 C 56.269531 62.289062 57.171875 62.253906 58.828125 61.953125 C 63.210938 61.15625 64.410156 61.570312 63.03125 63.402344 C 61.847656 64.972656 61.019531 65.621094 56.851562 68.246094 C 56.464844 68.488281 56.105469 68.617188 56.050781 68.527344 Z M 56.730469 67.988281 C 56.632812 67.953125 56.457031 68.023438 56.339844 68.144531 C 56.210938 68.28125 56.277344 68.308594 56.515625 68.210938 C 56.730469 68.125 56.828125 68.023438 56.730469 67.988281 Z M 58.128906 66.535156 C 58.785156 65.675781 59.113281 65.46875 58.746094 66.144531 C 58.441406 66.703125 58.714844 66.621094 59.964844 65.789062 C 60.628906 65.34375 60.636719 65.316406 60.128906 65.21875 C 59.535156 65.109375 58.78125 63.765625 58.910156 63.046875 C 58.960938 62.753906 59.046875 62.859375 59.234375 63.453125 C 59.882812 65.488281 60.738281 65.507812 62.410156 63.523438 C 63.851562 61.816406 63.761719 61.730469 60.878906 62.058594 C 56.539062 62.550781 52.445312 63.980469 48.4375 66.40625 L 46.320312 67.6875 L 45.117188 67.320312 C 43.769531 66.910156 41.855469 66.808594 40.75 67.089844 L 40.015625 67.277344 L 41.285156 67.738281 C 42.828125 68.300781 44.699219 69.253906 44.464844 69.359375 C 44.371094 69.402344 44.136719 69.378906 43.945312 69.304688 C 43.671875 69.203125 43.628906 69.246094 43.742188 69.5 C 43.824219 69.679688 43.785156 70.207031 43.652344 70.675781 C 43.351562 71.742188 43.542969 71.652344 44.859375 70.113281 C 46.210938 68.53125 47.164062 68.203125 50.359375 68.21875 C 52.527344 68.230469 54.152344 68.101562 55.53125 67.808594 C 55.878906 67.734375 56.328125 67.398438 56.695312 66.941406 C 57.320312 66.152344 58.25 65.585938 58.195312 66.023438 C 58.175781 66.164062 58.011719 66.351562 57.828125 66.441406 C 57.175781 66.757812 56.453125 67.734375 57.054688 67.484375 C 57.335938 67.367188 57.816406 66.941406 58.128906 66.535156 Z M 60.894531 63.914062 C 60.492188 63.765625 60.472656 63.300781 60.859375 63.128906 C 61.125 63.007812 61.320312 63.078125 61.4375 63.347656 C 61.613281 63.730469 61.292969 64.066406 60.894531 63.914062 Z M 50.300781 66.953125 C 47.066406 67.554688 47.585938 67.265625 51.226562 66.441406 C 53.296875 65.972656 54.347656 65.628906 55.355469 65.078125 C 56.101562 64.675781 56.964844 64.3125 57.28125 64.273438 C 59.125 64.046875 52.726562 66.503906 50.300781 66.953125 Z M 45.617188 68.058594 C 45.34375 68.039062 44.632812 67.871094 44.039062 67.683594 C 43.441406 67.5 42.589844 67.359375 42.148438 67.371094 C 41.707031 67.382812 41.320312 67.351562 41.296875 67.296875 C 41.1875 67.058594 42.992188 67.175781 44.25 67.488281 C 45.003906 67.671875 45.757812 67.816406 45.917969 67.800781 C 46.082031 67.789062 46.191406 67.847656 46.164062 67.933594 C 46.136719 68.023438 45.890625 68.078125 45.617188 68.058594 Z M 49.140625 69.175781 C 49.089844 69.066406 48.941406 69.09375 48.804688 69.230469 C 48.667969 69.371094 48.574219 69.519531 48.59375 69.5625 C 48.613281 69.605469 48.761719 69.578125 48.929688 69.503906 C 49.09375 69.429688 49.1875 69.28125 49.140625 69.175781 Z M 49.953125 68.511719 C 48.628906 68.398438 47.472656 68.746094 47.253906 69.324219 C 46.96875 70.082031 47.503906 70.0625 48.347656 69.285156 C 48.972656 68.707031 49.691406 68.503906 49.640625 68.917969 C 49.625 69.042969 49.777344 69.015625 49.984375 68.847656 C 50.304688 68.585938 50.300781 68.539062 49.953125 68.511719 Z M 55.667969 62.46875 C 55.640625 62.472656 55.386719 62.421875 55.101562 62.359375 C 54.773438 62.285156 54.675781 62.308594 54.84375 62.421875 C 55.15625 62.640625 54.757812 62.84375 53.496094 63.105469 C 51.355469 63.550781 48.449219 64.804688 48.996094 65.042969 C 49.449219 65.242188 49.832031 65.117188 52.605469 63.867188 C 54.3125 63.09375 55.691406 62.464844 55.667969 62.46875 Z M 97.636719 46.96875 C 96.605469 47.253906 96.101562 46.4375 96.585938 45.265625 L 96.910156 44.480469 L 96.296875 44.707031 C 95.960938 44.828125 94.675781 44.953125 93.445312 44.976562 C 90.113281 45.046875 88.242188 45.421875 88.1875 46.03125 C 88.070312 47.308594 86.863281 48.925781 86.804688 47.890625 C 86.789062 47.632812 86.652344 47.667969 86.128906 48.070312 C 84.6875 49.175781 84.125 48.90625 85.328125 47.6875 C 86.722656 46.273438 86.660156 46.078125 85.09375 46.945312 C 82.230469 48.523438 82.015625 48.703125 81.453125 50.046875 C 80.625 52.019531 76.824219 55.285156 76.414062 54.382812 C 76.367188 54.273438 76.519531 54.09375 76.761719 53.984375 C 77.496094 53.652344 78.078125 52.398438 78.117188 51.070312 L 78.15625 49.8125 L 77.429688 49.734375 C 77.03125 49.691406 76.398438 49.480469 76.027344 49.261719 C 75.042969 48.691406 72.699219 48.519531 72.003906 48.964844 C 71.5 49.292969 71.460938 49.28125 71.617188 48.871094 C 72.222656 47.257812 77.0625 45.960938 79.773438 46.683594 L 80.890625 46.980469 L 82.429688 45.320312 C 83.273438 44.410156 84.316406 43.335938 84.75 42.933594 L 85.535156 42.210938 L 84.746094 41.988281 C 83.652344 41.679688 83.601562 40.792969 84.679688 40.835938 C 86.128906 40.894531 87.273438 40.332031 86.988281 39.703125 C 86.621094 38.894531 90.597656 37.285156 93.863281 36.921875 C 95.613281 36.726562 98.320312 35.597656 97.867188 35.253906 C 96.957031 34.554688 97.429688 34.132812 98.671875 34.535156 L 99.464844 34.792969 L 98.65625 34.769531 C 97.871094 34.75 97.859375 34.757812 98.222656 35.039062 C 98.507812 35.253906 98.90625 35.222656 99.808594 34.910156 C 100.472656 34.679688 101.664062 34.488281 102.457031 34.484375 C 103.253906 34.480469 104.078125 34.4375 104.292969 34.390625 C 104.503906 34.34375 105.546875 34.621094 106.601562 35.007812 C 107.660156 35.398438 108.601562 35.683594 108.691406 35.640625 C 108.882812 35.554688 109.191406 36.171875 109.226562 36.714844 C 109.292969 37.859375 106.269531 40.367188 102.769531 42.078125 L 100.203125 43.328125 L 99.90625 44.269531 C 99.394531 45.898438 98.753906 46.65625 97.636719 46.96875 Z M 99.136719 45.035156 C 99.441406 44.5 99.664062 43.992188 99.628906 43.90625 C 99.523438 43.648438 100.167969 41.863281 100.34375 41.929688 C 100.4375 41.964844 100.457031 42.179688 100.394531 42.410156 C 100.296875 42.769531 100.367188 42.796875 100.867188 42.59375 C 101.1875 42.464844 101.804688 42.226562 102.234375 42.0625 C 102.890625 41.816406 102.972656 41.726562 102.722656 41.511719 C 101.992188 40.878906 101.699219 39.398438 101.890625 37.328125 C 102.039062 35.738281 102.226562 36.09375 102.203125 37.925781 C 102.175781 40.164062 102.664062 41.324219 103.539062 41.113281 C 105.203125 40.707031 107.714844 38.574219 108.273438 37.085938 L 108.664062 36.046875 L 107.582031 35.730469 C 103.800781 34.632812 102.160156 34.628906 98.945312 35.703125 C 96.589844 36.492188 96.246094 36.734375 98.007812 36.367188 C 98.675781 36.230469 99.257812 36.199219 99.304688 36.300781 C 99.410156 36.535156 99.46875 36.515625 97.820312 36.847656 C 94.609375 37.5 91.109375 39.207031 88.832031 41.242188 C 87.957031 42.019531 87.777344 42.109375 87.425781 41.964844 C 86.839844 41.722656 85.53125 42.582031 84.074219 44.171875 C 82.179688 46.234375 80.277344 48.023438 80.191406 47.824219 C 80.144531 47.726562 80.21875 47.589844 80.355469 47.523438 C 81.945312 46.738281 76.617188 46.683594 74.484375 47.464844 C 73.628906 47.777344 73.132812 47.996094 73.378906 47.953125 C 73.816406 47.878906 79.644531 47.628906 79.863281 47.679688 C 80.605469 47.847656 79.28125 48.054688 76.945312 48.132812 C 73.539062 48.246094 73.148438 48.328125 75.527344 48.4375 C 77.28125 48.515625 79.648438 49.011719 79.546875 49.28125 C 79.519531 49.363281 78.921875 49.3125 78.21875 49.171875 C 76.53125 48.828125 76.300781 48.816406 76.414062 49.0625 C 76.464844 49.175781 77.257812 49.375 78.179688 49.503906 C 80.148438 49.773438 80.019531 49.625 79.609375 51.167969 L 79.28125 52.40625 L 79.917969 51.71875 C 80.273438 51.339844 80.769531 50.488281 81.03125 49.824219 C 81.289062 49.15625 81.648438 48.519531 81.832031 48.40625 C 87.386719 44.960938 88.699219 44.523438 93.464844 44.53125 C 95.785156 44.539062 96.9375 44.207031 98.3125 43.140625 C 99.078125 42.542969 98.964844 42.972656 98.132812 43.804688 C 97.273438 44.667969 96.660156 45.878906 96.863281 46.324219 C 97.15625 46.96875 98.453125 46.234375 99.136719 45.035156 Z M 97.070312 46.25 C 96.953125 45.992188 99.105469 42.882812 99.535156 42.6875 C 99.90625 42.519531 99.328125 44.1875 98.710938 45.066406 C 98.195312 45.800781 97.957031 45.585938 98.394531 44.785156 C 98.734375 44.160156 98.242188 44.800781 97.523438 45.917969 C 97.3125 46.246094 97.128906 46.378906 97.070312 46.25 Z M 103.96875 38.546875 C 103.378906 38.203125 103.308594 38.097656 103.460938 37.78125 C 103.855469 36.972656 105.195312 37.296875 105.078125 38.171875 C 104.980469 38.871094 104.695312 38.96875 103.96875 38.546875 Z M 92.699219 43.257812 C 91.867188 43.464844 90.582031 43.730469 89.847656 43.851562 C 88.996094 43.992188 87.628906 44.464844 86.097656 45.152344 C 84.5625 45.835938 83.800781 46.101562 84.003906 45.875 C 84.734375 45.078125 88.238281 43.691406 90.34375 43.371094 C 93.386719 42.910156 95.90625 41.898438 97.066406 40.675781 C 98.296875 39.382812 98.503906 39.546875 97.324219 40.882812 C 96.257812 42.089844 95.152344 42.65625 92.699219 43.257812 Z M 79.335938 50.988281 L 79.65625 50.050781 L 79.070312 50.050781 C 78.75 50.050781 78.476562 50.085938 78.464844 50.128906 C 78.449219 50.171875 78.433594 50.777344 78.421875 51.46875 C 78.398438 52.9375 78.726562 52.765625 79.335938 50.988281 Z M 87.675781 46.816406 C 88.121094 45.492188 87.277344 45.605469 86.378906 46.992188 C 85.886719 47.75 85.832031 47.929688 86.175781 47.660156 C 86.441406 47.449219 86.742188 47.359375 86.875 47.449219 C 87.222656 47.679688 87.445312 47.507812 87.675781 46.816406 Z M 88.628906 40.910156 C 89.136719 40.425781 90.398438 39.515625 91.4375 38.882812 C 93.976562 37.332031 94.058594 37.132812 91.96875 37.585938 C 89.617188 38.09375 87.003906 39.492188 87.429688 40.011719 C 87.777344 40.445312 86.019531 41.300781 84.90625 41.246094 C 84.503906 41.222656 84.214844 41.289062 84.257812 41.390625 C 84.382812 41.660156 85.71875 41.820312 86.105469 41.609375 C 86.292969 41.507812 86.484375 41.507812 86.53125 41.613281 C 86.578125 41.714844 86.796875 41.71875 87.015625 41.617188 C 87.234375 41.519531 87.457031 41.527344 87.507812 41.636719 C 87.621094 41.890625 87.554688 41.933594 88.628906 40.910156 Z M 16.082031 73.582031 C 15.765625 73.367188 15.820312 72.742188 16.183594 72.414062 C 16.671875 71.976562 16.492188 71.984375 15.074219 72.457031 C 14.386719 72.683594 13.105469 72.96875 12.230469 73.082031 C 11.207031 73.21875 10.234375 73.5 9.511719 73.867188 C 8.796875 74.234375 8.351562 74.363281 8.289062 74.226562 C 8.234375 74.105469 8.363281 73.929688 8.574219 73.832031 C 8.785156 73.738281 9.085938 73.527344 9.242188 73.367188 C 9.441406 73.167969 9.519531 73.171875 9.492188 73.375 C 9.46875 73.554688 9.582031 73.617188 9.777344 73.527344 C 10.273438 73.304688 9.78125 73.09375 8.636719 73.039062 C 8.070312 73.011719 7.699219 72.902344 7.8125 72.796875 C 7.925781 72.691406 8.671875 72.667969 9.476562 72.75 C 12.207031 73.015625 14.234375 72.566406 17.390625 70.992188 L 19.03125 70.171875 L 18.714844 69.308594 C 18.539062 68.832031 18.414062 68.257812 18.433594 68.027344 C 18.457031 67.75 18.605469 67.996094 18.882812 68.773438 C 19.230469 69.742188 19.347656 69.910156 19.621094 69.785156 C 19.984375 69.621094 19.914062 69.28125 19.507812 69.226562 C 19.324219 69.203125 19.273438 69.066406 19.34375 68.800781 C 19.425781 68.503906 19.542969 68.433594 19.832031 68.511719 C 20.117188 68.589844 20.1875 68.707031 20.109375 68.992188 C 20.050781 69.199219 20.066406 69.339844 20.144531 69.308594 C 20.464844 69.160156 21.863281 67.484375 21.789062 67.328125 C 21.554688 66.804688 17.929688 67.121094 17.859375 67.671875 C 17.835938 67.859375 17.589844 67.972656 17.042969 68.046875 C 16.132812 68.164062 12.582031 69.722656 10.359375 70.980469 C 9.289062 71.585938 8.84375 71.761719 8.867188 71.566406 C 8.890625 71.371094 8.753906 71.433594 8.394531 71.777344 C 7.941406 72.210938 7.75 72.234375 6.625 72.015625 C 4.527344 71.601562 3.226562 71.816406 4.796875 72.316406 C 5.886719 72.660156 6.203125 73.171875 5.84375 74.019531 L 5.523438 74.769531 L 6.257812 74.308594 C 6.660156 74.054688 7.011719 73.699219 7.03125 73.523438 C 7.054688 73.347656 7.171875 73.238281 7.289062 73.28125 C 7.714844 73.441406 7.230469 74.035156 5.9375 74.945312 C 4.527344 75.9375 4.152344 76.054688 4.730469 75.324219 C 5.929688 73.808594 5.882812 73.226562 4.503906 72.519531 C 3.285156 71.894531 3.050781 71.636719 3.652344 71.582031 C 3.992188 71.550781 3.972656 71.523438 3.535156 71.417969 C 3.246094 71.351562 2.890625 71.347656 2.746094 71.414062 C 2.605469 71.480469 2.445312 71.441406 2.394531 71.332031 C 2.214844 70.933594 2.738281 70.949219 5.757812 71.429688 C 7.78125 71.753906 7.933594 71.746094 8.445312 71.253906 C 8.746094 70.964844 10.117188 70.152344 11.492188 69.449219 C 14.289062 68.011719 14.414062 67.707031 11.824219 68.644531 C 10.453125 69.140625 10.152344 69.308594 10.367188 69.457031 C 10.511719 69.5625 10.359375 69.5625 10.023438 69.460938 C 9.691406 69.359375 9.398438 69.238281 9.378906 69.195312 C 9.265625 68.945312 13.261719 67.714844 14.03125 67.761719 C 14.507812 67.789062 15.40625 67.679688 16.023438 67.519531 L 17.144531 67.222656 L 16.527344 66.902344 C 14.882812 66.050781 15.78125 65.582031 17.761719 66.257812 C 18.578125 66.53125 19.601562 66.71875 20.042969 66.667969 C 21.363281 66.519531 22.523438 66.910156 22.320312 67.429688 C 22.054688 68.097656 20.035156 70.078125 19.261719 70.429688 C 18.75 70.664062 18.390625 71.082031 17.914062 72.003906 C 17.300781 73.199219 16.515625 73.871094 16.082031 73.582031 Z M 17.445312 72.097656 C 17.714844 71.613281 17.769531 71.347656 17.582031 71.433594 C 17.097656 71.652344 16.082031 72.8125 16.183594 73.035156 C 16.347656 73.394531 16.988281 72.917969 17.445312 72.097656 Z M 10.273438 70.492188 C 10.113281 70.5 9.84375 70.617188 9.671875 70.757812 C 9.5 70.894531 9.632812 70.890625 9.964844 70.746094 C 10.292969 70.597656 10.433594 70.484375 10.273438 70.492188 Z M 17.683594 66.546875 C 17.207031 66.351562 16.613281 66.179688 16.363281 66.164062 C 15.539062 66.105469 16.648438 66.761719 17.5625 66.875 C 18.671875 67.011719 18.695312 66.953125 17.683594 66.546875 Z M 12.324219 71.304688 C 10.863281 71.667969 9.570312 71.929688 9.453125 71.882812 C 9.335938 71.839844 9.574219 71.710938 9.988281 71.601562 C 15 70.269531 16.878906 69.585938 17.09375 69.015625 C 17.234375 68.648438 17.5 68.5 17.605469 68.730469 C 17.929688 69.445312 16.003906 70.382812 12.324219 71.304688 Z M 12.324219 71.304688 " fill-opacity="1" fill-rule="nonzero"/></g></g></g></svg>