<svg xmlns="http://www.w3.org/2000/svg" xmlns:xlink="http://www.w3.org/1999/xlink" width="200" zoomAndPan="magnify" viewBox="0 0 150 157.92" height="200" preserveAspectRatio="xMidYMid meet" version="1.0"><defs><clipPath id="dbdf57cffa"><path d="M 31 26.019531 L 121.777344 26.019531 L 121.777344 123 L 31 123 Z M 31 26.019531 " clip-rule="nonzero"/></clipPath></defs><g clip-path="url(#dbdf57cffa)"><path fill="#dc4a3f" d="M 70.433594 102.277344 C 69.953125 101.941406 69.496094 101.585938 69.035156 101.230469 L 68.960938 101.296875 L 68.976562 101.179688 C 68.902344 101.125 68.835938 101.070312 68.765625 101.015625 C 66.996094 100.683594 64.703125 99.898438 62.246094 98.617188 C 60.929688 97.925781 59.8125 96.777344 58.796875 95.574219 C 57.925781 94.550781 57.089844 93.472656 56.078125 92.605469 C 56.0625 92.632812 56.046875 92.660156 56.035156 92.679688 L 55.675781 93.246094 L 55.21875 93.058594 C 52.664062 91.972656 50.554688 90.386719 48.882812 88.746094 C 47.207031 87.09375 45.949219 85.367188 45.136719 83.789062 C 44.320312 82.207031 43.914062 80.824219 43.804688 79.816406 C 43.671875 78.84375 43.746094 78.3125 43.8125 78.304688 C 44.035156 78.269531 44.09375 80.472656 45.882812 83.371094 C 46.742188 84.816406 48.015625 86.402344 49.652344 87.9375 C 51.171875 89.347656 53.035156 90.710938 55.175781 91.691406 C 55.203125 91.632812 55.234375 91.589844 55.253906 91.550781 L 55.359375 91.390625 L 55.734375 90.78125 L 56.265625 91.167969 C 57.734375 92.242188 58.730469 93.632812 59.707031 94.8125 C 60.675781 95.992188 61.652344 97.023438 62.777344 97.671875 C 64.429688 98.59375 65.972656 99.285156 67.316406 99.789062 C 63.257812 96.136719 60.101562 91.640625 57.570312 86.605469 C 55.707031 82.886719 53.765625 79.148438 52.082031 75.34375 C 51.945312 75.023438 51.808594 74.703125 51.664062 74.375 C 49.257812 76.910156 44.050781 74.339844 40.941406 72.660156 C 39.335938 82.175781 46.707031 89.960938 53.902344 95.191406 C 57.402344 97.738281 65.785156 105.632812 70.433594 102.277344 Z M 93.285156 102.515625 C 99.003906 98.625 99.484375 91.539062 98.367188 85.238281 C 97.359375 79.46875 95.867188 73.707031 91.605469 69.441406 C 87.46875 65.320312 82.546875 62.21875 77.816406 58.839844 C 77.59375 58.675781 77.453125 58.472656 77.390625 58.242188 C 69.566406 59.011719 51.542969 53.101562 51.667969 65.304688 C 51.742188 71.996094 55.972656 78.574219 58.90625 84.414062 C 62.195312 90.964844 66.246094 97.210938 72.609375 101.179688 C 78.820312 105.054688 86.765625 106.957031 93.285156 102.515625 Z M 94.0625 118.203125 C 107.042969 110.183594 107.464844 90.359375 103.324219 77.410156 C 103.28125 77.253906 103.265625 77.113281 103.273438 76.980469 C 103.164062 76.886719 103.046875 76.796875 102.9375 76.703125 C 100.695312 74.882812 98.382812 73.160156 96.046875 71.453125 C 99.351562 76.574219 100.929688 83.734375 101.003906 89.761719 C 101.074219 95.933594 99.207031 102.035156 93.351562 105.011719 C 86.917969 108.296875 79.679688 107.800781 73.4375 104.222656 C 73.058594 104.003906 72.6875 103.777344 72.324219 103.550781 C 66.378906 109.125 57.09375 99.972656 52.316406 96.734375 C 43.957031 91.074219 36.398438 81.339844 39.117188 70.699219 C 39.300781 70.003906 40.113281 69.726562 40.722656 70.054688 C 42.59375 71.066406 49.195312 75.167969 50.503906 72.144531 C 50.550781 72.050781 50.597656 71.96875 50.660156 71.894531 C 49.871094 69.753906 49.308594 67.515625 49.484375 65.304688 C 50.621094 51.292969 65.316406 56.683594 75.046875 56.308594 C 72.933594 54.796875 70.832031 53.246094 68.789062 51.644531 C 68.707031 51.65625 68.632812 51.660156 68.546875 51.65625 C 62.203125 51.230469 55.398438 50.492188 49.171875 52.175781 C 41.371094 54.296875 36.898438 60.144531 35.050781 67.878906 C 31.195312 83.992188 37.640625 101.003906 51.59375 110.074219 C 57.988281 114.222656 65.128906 116.996094 72.519531 118.792969 C 79.339844 120.445312 87.660156 122.152344 94.0625 118.203125 Z M 118.996094 82.488281 C 119.011719 82.042969 119.011719 81.59375 119.003906 81.148438 C 113.667969 79.183594 110.621094 76.980469 108.746094 75.699219 C 106.910156 74.273438 106.285156 73.664062 106.378906 73.539062 C 106.476562 73.421875 107.265625 73.824219 109.171875 75.058594 C 111.074219 76.128906 114.019531 78.101562 118.945312 79.957031 C 118.917969 79.519531 118.878906 79.082031 118.835938 78.648438 C 116.640625 77.710938 114.972656 76.617188 113.648438 75.691406 C 112.269531 74.71875 111.242188 73.902344 110.453125 73.277344 C 108.902344 72.019531 108.351562 71.484375 108.4375 71.359375 C 108.519531 71.238281 109.238281 71.550781 110.914062 72.652344 C 111.742188 73.203125 112.828125 73.933594 114.21875 74.855469 C 115.425781 75.652344 116.886719 76.574219 118.714844 77.402344 C 118.683594 77.160156 118.660156 76.914062 118.632812 76.671875 C 118.539062 75.808594 118.40625 74.960938 118.253906 74.113281 C 116.90625 73.910156 115.75 73.417969 114.734375 72.933594 C 113.378906 72.265625 112.230469 71.5625 111.230469 70.882812 C 109.234375 69.535156 107.769531 68.386719 106.640625 67.527344 C 104.402344 65.792969 103.511719 65.203125 103.59375 65.054688 C 103.652344 64.925781 104.714844 65.308594 107.085938 66.894531 C 108.277344 67.675781 109.792969 68.765625 111.785156 70.039062 C 112.78125 70.679688 113.902344 71.347656 115.191406 71.96875 C 116.046875 72.367188 117.011719 72.753906 118.027344 72.960938 C 117.898438 72.332031 117.757812 71.710938 117.605469 71.09375 C 115.628906 70.242188 114.121094 69.253906 112.898438 68.421875 C 111.539062 67.488281 110.519531 66.714844 109.742188 66.132812 C 108.199219 64.945312 107.628906 64.46875 107.710938 64.328125 C 107.785156 64.203125 108.511719 64.46875 110.175781 65.492188 C 111.023438 66 112.082031 66.707031 113.460938 67.585938 C 114.515625 68.25 115.75 69.027344 117.265625 69.738281 C 116.984375 68.714844 116.675781 67.695312 116.347656 66.675781 C 114.847656 66.105469 113.742188 65.382812 112.863281 64.769531 C 111.9375 64.101562 111.253906 63.542969 110.753906 63.089844 C 109.75 62.195312 109.441406 61.773438 109.53125 61.65625 C 109.625 61.535156 110.113281 61.746094 111.226562 62.480469 C 111.78125 62.84375 112.5 63.324219 113.421875 63.9375 C 114.113281 64.371094 114.929688 64.875 115.914062 65.320312 C 115.65625 64.550781 115.394531 63.789062 115.132812 63.023438 C 114.769531 62.914062 114.421875 62.816406 114.09375 62.699219 C 113.414062 62.414062 112.796875 62.160156 112.242188 61.925781 C 111.167969 61.410156 110.347656 60.964844 109.734375 60.601562 C 108.535156 59.851562 108.128906 59.488281 108.199219 59.351562 C 108.273438 59.21875 108.808594 59.351562 110.089844 59.917969 C 110.730469 60.1875 111.566406 60.542969 112.644531 61.003906 C 113.179688 61.207031 113.785156 61.433594 114.453125 61.6875 C 114.53125 61.71875 114.613281 61.738281 114.695312 61.761719 C 114.359375 60.800781 114.027344 59.839844 113.691406 58.855469 C 111.394531 52.054688 108.511719 44.925781 103.539062 39.59375 C 97.800781 33.421875 90.351562 31.050781 82.1875 29.8125 C 77.867188 29.15625 73.507812 28.839844 69.15625 28.800781 C 69.195312 28.839844 69.238281 28.875 69.277344 28.910156 C 69.601562 29.289062 69.859375 29.589844 69.996094 29.863281 C 70.257812 30.414062 70.257812 30.664062 70.125 30.738281 C 69.996094 30.808594 69.75 30.699219 69.386719 30.335938 C 69.195312 30.15625 68.910156 29.941406 68.589844 29.652344 C 68.414062 29.515625 68.222656 29.359375 68.003906 29.1875 C 67.84375 29.070312 67.65625 28.933594 67.480469 28.792969 C 66.824219 28.800781 66.160156 28.816406 65.503906 28.839844 C 65.679688 28.976562 65.855469 29.113281 66 29.246094 C 66.445312 29.660156 66.761719 30.007812 66.996094 30.285156 C 67.464844 30.835938 67.5625 31.117188 67.453125 31.226562 C 67.34375 31.324219 67.054688 31.246094 66.476562 30.851562 C 66.175781 30.664062 65.816406 30.378906 65.367188 30.023438 C 64.933594 29.726562 64.40625 29.347656 63.808594 28.898438 C 63.191406 28.925781 62.574219 28.964844 61.964844 28.996094 C 62.363281 29.308594 62.726562 29.601562 63.054688 29.863281 C 63.742188 30.402344 64.292969 30.824219 64.683594 31.164062 C 65.484375 31.847656 65.722656 32.191406 65.636719 32.3125 C 65.550781 32.433594 65.140625 32.3125 64.234375 31.796875 C 63.78125 31.539062 63.191406 31.183594 62.464844 30.6875 C 61.859375 30.253906 61.148438 29.734375 60.328125 29.105469 C 59.464844 29.171875 58.609375 29.246094 57.75 29.332031 C 58.457031 30.277344 59.261719 31.007812 59.925781 31.625 C 60.804688 32.441406 61.503906 33.082031 61.996094 33.625 C 62.238281 33.902344 62.453125 34.125 62.609375 34.332031 C 62.753906 34.546875 62.875 34.722656 62.953125 34.871094 C 63.121094 35.152344 63.148438 35.300781 63.089844 35.34375 C 63.035156 35.394531 62.886719 35.332031 62.632812 35.144531 C 62.5 35.050781 62.347656 34.921875 62.167969 34.761719 C 61.96875 34.601562 61.738281 34.410156 61.46875 34.183594 C 60.910156 33.734375 60.1875 33.144531 59.257812 32.378906 C 58.789062 31.988281 58.28125 31.539062 57.742188 30.992188 C 57.46875 30.730469 57.21875 30.394531 56.933594 30.074219 C 56.792969 29.890625 56.648438 29.6875 56.523438 29.480469 C 55.878906 29.542969 55.25 29.625 54.605469 29.703125 C 55.832031 31.894531 57.152344 33.574219 58.351562 34.894531 C 59.730469 36.382812 60.886719 37.472656 61.789062 38.28125 C 62.683594 39.105469 63.316406 39.664062 63.703125 40.042969 C 64.085938 40.421875 64.226562 40.617188 64.183594 40.679688 C 64.136719 40.742188 63.914062 40.652344 63.441406 40.378906 C 62.972656 40.097656 62.261719 39.636719 61.289062 38.878906 C 60.3125 38.128906 59.074219 37.074219 57.621094 35.574219 C 56.28125 34.183594 54.789062 32.335938 53.457031 29.863281 C 52.992188 29.941406 52.53125 30.015625 52.070312 30.089844 C 59.597656 44.117188 74.449219 52.703125 86.828125 61.949219 C 90.839844 64.945312 94.832031 67.980469 98.886719 70.925781 C 102.441406 73.511719 105.761719 76.789062 109.523438 79.039062 C 111.445312 80.195312 113.414062 80.910156 115.5625 81.492188 C 116.652344 81.785156 117.757812 82.042969 118.820312 82.429688 C 118.820312 82.460938 118.820312 82.476562 118.820312 82.503906 C 118.878906 82.492188 118.9375 82.492188 118.996094 82.488281 Z M 120.964844 78.136719 C 121.121094 79.863281 121.78125 82.722656 120.835938 84.335938 C 119.789062 86.132812 115.292969 83.71875 113.925781 83.304688 C 110.941406 82.398438 108.492188 80.933594 106.121094 79.183594 C 108.039062 86.402344 108.425781 94.214844 106.824219 101.5 C 105.214844 108.839844 101.527344 117.117188 94.332031 120.539062 C 87.203125 123.921875 79.339844 122.773438 71.9375 120.894531 C 63.773438 118.820312 55.511719 115.824219 48.714844 110.714844 C 35.261719 100.589844 28.152344 82.765625 33.234375 66.234375 C 35.414062 59.132812 39.4375 52.890625 46.855469 50.578125 C 53.015625 48.65625 59.480469 48.886719 65.855469 49.296875 C 59.167969 43.746094 53.238281 37.503906 49.464844 29.796875 C 49.195312 29.230469 49.375 28.304688 50.121094 28.191406 C 51.195312 28.03125 52.273438 27.871094 53.339844 27.679688 C 63.496094 26.296875 73.9375 26.042969 84.058594 27.921875 C 92.394531 29.46875 100.179688 32.039062 105.746094 38.796875 C 110.804688 44.941406 113.554688 52.066406 116.203125 59.460938 C 118.472656 65.796875 120.363281 71.453125 120.964844 78.136719 " fill-opacity="1" fill-rule="nonzero"/></g><path fill="#dc4a3f" d="M 96.480469 63.941406 C 99.46875 66.226562 101.265625 67.703125 101.164062 67.84375 C 101.070312 67.980469 99.082031 66.742188 95.960938 64.640625 C 94.398438 63.601562 92.570312 62.304688 90.539062 60.871094 C 89.53125 60.144531 88.46875 59.378906 87.359375 58.59375 C 86.277344 57.792969 85.152344 56.972656 84 56.128906 C 79.328125 52.835938 75.035156 49.878906 72.011719 47.628906 C 69.027344 45.339844 67.238281 43.847656 67.332031 43.710938 C 67.4375 43.574219 69.402344 44.816406 72.519531 46.925781 C 75.660156 48.980469 80.007812 51.808594 84.714844 55.128906 C 87.019531 56.84375 89.210938 58.472656 91.210938 59.957031 C 93.191406 61.460938 94.980469 62.804688 96.480469 63.941406 " fill-opacity="1" fill-rule="nonzero"/><path fill="#dc4a3f" d="M 100.683594 105.308594 C 100.757812 105.332031 100.707031 105.84375 100.441406 106.738281 C 100.195312 107.632812 99.613281 108.878906 98.675781 110.25 C 98.195312 110.921875 97.644531 111.648438 97.046875 112.390625 C 96.753906 112.769531 96.40625 113.136719 96.046875 113.53125 C 95.867188 113.726562 95.683594 113.933594 95.503906 114.128906 C 95.300781 114.3125 95.089844 114.484375 94.875 114.667969 C 93.191406 116.136719 90.941406 117.300781 88.460938 117.933594 C 85.976562 118.582031 83.527344 118.703125 81.34375 118.59375 C 79.15625 118.480469 77.210938 118.152344 75.613281 117.777344 C 72.394531 116.996094 70.5625 116.113281 70.605469 115.984375 C 70.664062 115.796875 72.609375 116.382812 75.78125 116.921875 C 77.375 117.183594 79.269531 117.410156 81.386719 117.460938 C 83.492188 117.507812 85.828125 117.359375 88.15625 116.75 C 90.484375 116.152344 92.558594 115.109375 94.152344 113.800781 C 95.722656 112.507812 96.953125 110.953125 97.976562 109.734375 C 99.984375 107.242188 100.464844 105.238281 100.683594 105.308594 " fill-opacity="1" fill-rule="nonzero"/><path fill="#dc4a3f" d="M 85.652344 51.386719 C 92.328125 56.042969 97.589844 60.042969 97.410156 60.328125 C 97.21875 60.601562 91.632812 57.046875 84.921875 52.375 C 78.355469 47.53125 73.195312 43.382812 73.398438 43.105469 C 73.597656 42.828125 79.082031 46.539062 85.652344 51.386719 " fill-opacity="1" fill-rule="nonzero"/><path fill="#dc4a3f" d="M 96.566406 84.769531 C 97.527344 88.746094 97.367188 93.203125 95.789062 97.648438 C 95.5625 98.210938 95.300781 98.765625 94.9375 99.285156 C 94.585938 99.796875 94.128906 100.296875 93.503906 100.621094 C 92.882812 100.953125 92.121094 101.027344 91.480469 100.875 C 91.050781 100.777344 90.664062 100.609375 90.308594 100.414062 C 89.84375 101.054688 89.3125 101.636719 88.695312 102.117188 C 87.929688 102.730469 87.035156 103.144531 86.125 103.359375 C 84.296875 103.8125 82.515625 103.5625 80.964844 103.152344 C 77.847656 102.25 75.421875 100.71875 73.507812 99.375 C 71.597656 98.011719 70.214844 96.738281 69.320312 95.824219 C 68.414062 94.898438 68.007812 94.324219 68.058594 94.273438 C 68.183594 94.160156 70.089844 96.21875 73.945312 98.734375 C 75.875 99.957031 78.296875 101.359375 81.226562 102.132812 C 82.691406 102.488281 84.296875 102.664062 85.839844 102.257812 C 87.390625 101.882812 88.710938 100.769531 89.617188 99.292969 L 89.945312 98.769531 L 90.46875 99.113281 C 91.28125 99.660156 92.207031 99.957031 92.933594 99.542969 C 93.691406 99.148438 94.25 98.183594 94.652344 97.195312 C 95.425781 95.195312 95.757812 93.015625 95.929688 90.949219 L 96.070312 90.5625 C 96.078125 90.507812 96.195312 90.324219 96.195312 90.207031 C 96.195312 89.9375 96.195312 89.675781 96.195312 89.421875 C 96.195312 88.890625 96.085938 88.371094 96.019531 87.898438 C 95.953125 87.414062 95.898438 86.933594 95.792969 86.460938 C 95.699219 85.980469 95.585938 85.507812 95.496094 85.039062 C 95.035156 83.195312 94.34375 81.492188 93.667969 79.90625 C 92.972656 78.320312 92.3125 76.847656 91.699219 75.503906 C 89.441406 70.03125 86.636719 67.550781 86.859375 67.355469 C 86.917969 67.296875 87.574219 67.9375 88.722656 69.15625 C 89.027344 69.441406 89.261719 69.847656 89.574219 70.25 C 89.871094 70.667969 90.191406 71.117188 90.539062 71.605469 C 91.121094 72.628906 91.835938 73.800781 92.46875 75.132812 C 93.136719 76.449219 93.84375 77.914062 94.585938 79.488281 C 95.316406 81.082031 96.046875 82.828125 96.566406 84.769531 " fill-opacity="1" fill-rule="nonzero"/><path fill="#dc4a3f" d="M 92.121094 41.824219 C 93.589844 42.777344 94.484375 43.972656 94.25 44.195312 C 94.003906 44.453125 92.847656 43.761719 91.445312 42.847656 C 90.011719 41.9375 88.976562 40.964844 89.160156 40.679688 C 89.339844 40.398438 90.664062 40.894531 92.121094 41.824219 " fill-opacity="1" fill-rule="nonzero"/><path fill="#dc4a3f" d="M 93.109375 47.476562 C 93.800781 48.015625 94.214844 48.410156 94.136719 48.5625 C 94.058594 48.707031 93.492188 48.585938 92.664062 48.21875 C 91.835938 47.855469 90.769531 47.230469 89.640625 46.496094 C 88.535156 45.773438 87.53125 45.128906 86.800781 44.65625 C 86.058594 44.195312 85.570312 43.875 85.644531 43.710938 C 85.710938 43.5625 86.269531 43.585938 87.136719 43.855469 C 88.035156 44.15625 89.160156 44.726562 90.308594 45.460938 C 91.449219 46.214844 92.417969 46.933594 93.109375 47.476562 " fill-opacity="1" fill-rule="nonzero"/><path fill="#dc4a3f" d="M 91.683594 50.851562 C 92.71875 51.777344 93.269531 52.441406 93.164062 52.566406 C 93.050781 52.691406 92.300781 52.273438 91.164062 51.546875 C 90.011719 50.832031 88.425781 49.84375 86.683594 48.683594 C 84.9375 47.53125 83.425781 46.351562 82.414062 45.375 C 81.433594 44.40625 80.929688 43.710938 81.039062 43.589844 C 81.15625 43.453125 81.875 43.933594 82.980469 44.71875 C 84.109375 45.476562 85.652344 46.515625 87.359375 47.667969 C 89.101562 48.808594 90.644531 49.9375 91.683594 50.851562 " fill-opacity="1" fill-rule="nonzero"/><path fill="#dc4a3f" d="M 86.667969 70.207031 C 86.707031 70.632812 86.808594 71.109375 86.792969 71.53125 C 86.777344 71.953125 86.765625 72.375 86.75 72.8125 C 86.652344 74.695312 86.007812 76.347656 85.164062 77.683594 C 84.296875 79.015625 83.242188 80.015625 82.226562 80.632812 C 81.207031 81.257812 80.289062 81.558594 79.625 81.664062 C 78.988281 81.769531 78.632812 81.738281 78.609375 81.664062 C 78.558594 81.453125 80.007812 81.234375 81.730469 79.917969 C 82.59375 79.269531 83.476562 78.320312 84.199219 77.097656 C 84.546875 76.476562 84.859375 75.800781 85.097656 75.074219 C 85.324219 74.355469 85.484375 73.539062 85.527344 72.773438 C 85.542969 72.339844 85.558594 71.917969 85.570312 71.496094 C 85.585938 71.074219 85.5 70.722656 85.476562 70.34375 C 85.457031 70.15625 85.441406 69.972656 85.410156 69.792969 C 85.367188 69.609375 85.316406 69.425781 85.265625 69.253906 C 85.222656 69.078125 85.171875 68.90625 85.128906 68.730469 L 85.0625 68.464844 L 84.953125 68.230469 C 84.808594 67.90625 84.671875 67.597656 84.53125 67.289062 C 84.371094 67 84.175781 66.734375 84.007812 66.46875 C 83.917969 66.328125 83.839844 66.199219 83.757812 66.066406 C 83.664062 65.945312 83.5625 65.835938 83.46875 65.714844 C 83.28125 65.484375 83.097656 65.265625 82.925781 65.054688 C 82.171875 64.25 81.527344 63.605469 81.0625 63.179688 C 80.609375 62.734375 80.386719 62.449219 80.425781 62.386719 C 80.476562 62.320312 80.804688 62.464844 81.359375 62.800781 C 81.917969 63.117188 82.667969 63.671875 83.542969 64.445312 C 83.746094 64.65625 83.964844 64.875 84.191406 65.101562 C 84.296875 65.214844 84.421875 65.332031 84.53125 65.457031 C 84.625 65.59375 84.726562 65.730469 84.835938 65.871094 C 85.042969 66.152344 85.265625 66.4375 85.472656 66.757812 C 85.636719 67.09375 85.8125 67.433594 85.992188 67.789062 L 86.132812 68.058594 L 86.21875 68.351562 C 86.277344 68.546875 86.335938 68.746094 86.402344 68.949219 C 86.460938 69.144531 86.515625 69.347656 86.582031 69.550781 C 86.621094 69.761719 86.640625 69.988281 86.667969 70.207031 " fill-opacity="1" fill-rule="nonzero"/><path fill="#dc4a3f" d="M 59.605469 75.953125 C 65.484375 89.035156 74.710938 96.542969 74.246094 96.941406 C 74.183594 97.003906 73.617188 96.550781 72.640625 95.671875 C 71.675781 94.789062 70.28125 93.5 68.664062 91.785156 C 67.054688 90.085938 65.1875 87.933594 63.484375 85.308594 C 61.792969 82.683594 60.070312 79.738281 58.5 76.484375 C 58.066406 75.503906 57.589844 74.566406 57.226562 73.582031 C 57.039062 73.105469 56.847656 72.621094 56.660156 72.148438 C 56.492188 71.65625 56.332031 71.171875 56.171875 70.695312 C 56.003906 70.210938 55.867188 69.738281 55.75 69.277344 C 55.628906 68.8125 55.511719 68.351562 55.386719 67.898438 C 55.183594 66.867188 55.128906 65.90625 55.304688 64.941406 C 55.480469 63.980469 55.941406 63.0625 56.636719 62.429688 C 57.324219 61.78125 58.191406 61.433594 59.015625 61.34375 C 60.515625 61.183594 61.808594 61.613281 62.820312 62.140625 C 63.164062 61.535156 63.570312 61.027344 64.015625 60.660156 C 64.269531 60.429688 64.558594 60.289062 64.824219 60.160156 C 65.09375 60.054688 65.363281 60 65.585938 59.957031 C 65.832031 59.957031 66.042969 59.957031 66.21875 59.957031 C 66.394531 59.984375 66.523438 60.027344 66.640625 60.054688 C 66.851562 60.125 66.96875 60.164062 66.96875 60.203125 C 66.96875 60.242188 66.84375 60.253906 66.613281 60.253906 C 66.492188 60.261719 66.351562 60.246094 66.191406 60.253906 C 66.03125 60.285156 65.855469 60.3125 65.660156 60.347656 C 64.84375 60.515625 63.890625 61.34375 63.300781 62.777344 L 63.164062 63.128906 L 62.796875 62.953125 C 61.789062 62.457031 60.492188 62.074219 59.152344 62.269531 C 58.484375 62.371094 57.835938 62.667969 57.34375 63.164062 C 56.839844 63.65625 56.507812 64.359375 56.382812 65.136719 C 56.25 65.902344 56.324219 66.785156 56.5 67.597656 C 56.621094 68.046875 56.753906 68.503906 56.886719 68.96875 C 57.011719 69.441406 57.144531 69.902344 57.3125 70.351562 C 57.472656 70.804688 57.632812 71.261719 57.792969 71.726562 C 57.976562 72.191406 58.164062 72.660156 58.351562 73.125 C 58.710938 74.070312 59.183594 75.003906 59.605469 75.953125 " fill-opacity="1" fill-rule="nonzero"/><path fill="#dc4a3f" d="M 70.917969 79.28125 C 72.246094 80.085938 73.195312 80.378906 73.152344 80.574219 C 73.140625 80.714844 72.070312 80.71875 70.519531 80.050781 C 69.734375 79.738281 68.898438 79.175781 68.015625 78.5 C 67.171875 77.78125 66.320312 76.898438 65.554688 75.882812 C 64.800781 74.855469 64.21875 73.796875 63.757812 72.789062 C 63.332031 71.777344 63.003906 70.847656 62.84375 70.03125 C 62.480469 68.382812 62.582031 67.382812 62.726562 67.355469 C 62.910156 67.324219 63.132812 68.328125 63.671875 69.785156 C 63.933594 70.523438 64.328125 71.375 64.78125 72.300781 C 65.265625 73.21875 65.839844 74.191406 66.546875 75.152344 C 67.25 76.105469 68.015625 76.9375 68.757812 77.644531 C 69.527344 78.3125 70.25 78.902344 70.917969 79.28125 " fill-opacity="1" fill-rule="nonzero"/><path fill="#dc4a3f" d="M 68.960938 101.296875 L 68.960938 101.308594 L 68.953125 101.308594 Z M 68.960938 101.296875 " fill-opacity="1" fill-rule="nonzero"/><path fill="#dc4a3f" d="M 51.085938 52.960938 C 51.785156 52.933594 52.167969 52.960938 52.175781 53.050781 C 52.175781 53.132812 51.8125 53.269531 51.164062 53.4375 C 50.832031 53.515625 50.429688 53.605469 49.980469 53.773438 C 49.535156 53.9375 49.007812 54.046875 48.46875 54.3125 C 47.914062 54.542969 47.308594 54.785156 46.707031 55.140625 C 46.082031 55.445312 45.46875 55.867188 44.824219 56.304688 C 43.554688 57.226562 42.277344 58.390625 41.125 59.789062 C 39.992188 61.199219 39.117188 62.699219 38.417969 64.109375 C 38.09375 64.820312 37.769531 65.507812 37.546875 66.175781 C 37.285156 66.824219 37.105469 67.457031 36.933594 68.03125 C 36.285156 70.316406 36.128906 71.875 35.929688 71.84375 C 35.792969 71.828125 35.632812 70.316406 36.09375 67.835938 C 36.214844 67.214844 36.347656 66.546875 36.585938 65.847656 C 36.773438 65.136719 37.074219 64.40625 37.386719 63.636719 C 38.0625 62.125 38.964844 60.515625 40.171875 59.015625 C 41.398438 57.523438 42.792969 56.304688 44.179688 55.371094 C 44.894531 54.925781 45.5625 54.515625 46.257812 54.230469 C 46.917969 53.886719 47.578125 53.683594 48.175781 53.488281 C 48.765625 53.269531 49.339844 53.210938 49.824219 53.101562 C 50.308594 52.992188 50.738281 52.976562 51.085938 52.960938 " fill-opacity="1" fill-rule="nonzero"/></svg>