<svg xmlns="http://www.w3.org/2000/svg" xmlns:xlink="http://www.w3.org/1999/xlink" width="300" zoomAndPan="magnify" viewBox="0 0 224.87999 112.499997" height="150" preserveAspectRatio="xMidYMid meet" version="1.0"><defs><g/><clipPath id="de16f0a07c"><rect x="0" width="214" y="0" height="91"/></clipPath></defs><g transform="matrix(1, 0, 0, 1, 6, 10)"><g clip-path="url(#de16f0a07c)"><g fill="#393f4a" fill-opacity="1"><g transform="translate(0.535875, 71.362609)"><g><path d="M 17.609375 -56.203125 L 25.921875 -56.203125 L 25.921875 -47.4375 L 21.125 -47.4375 C 19.976562 -47.4375 19.203125 -47.085938 18.796875 -46.390625 C 18.398438 -45.691406 18.203125 -44.539062 18.203125 -42.9375 L 18.203125 -33.046875 L 25.921875 -33.046875 L 25.921875 -24.359375 L 18.203125 -24.359375 L 18.203125 0 L 6.96875 0 L 6.96875 -24.359375 L 2.25 -24.359375 L 2.25 -33.046875 L 6.96875 -33.046875 L 6.96875 -44.28125 C 6.96875 -48.382812 7.988281 -51.394531 10.03125 -53.3125 C 12.082031 -55.238281 14.609375 -56.203125 17.609375 -56.203125 Z M 17.609375 -56.203125 "/></g></g></g><g fill="#393f4a" fill-opacity="1"><g transform="translate(27.730246, 71.362609)"><g><path d="M 3.890625 -44.359375 C 3.890625 -46.210938 4.523438 -47.773438 5.796875 -49.046875 C 7.078125 -50.316406 8.640625 -50.953125 10.484375 -50.953125 C 12.285156 -50.953125 13.832031 -50.316406 15.125 -49.046875 C 16.425781 -47.773438 17.078125 -46.210938 17.078125 -44.359375 C 17.078125 -42.566406 16.425781 -41.019531 15.125 -39.71875 C 13.832031 -38.414062 12.285156 -37.765625 10.484375 -37.765625 C 8.640625 -37.765625 7.078125 -38.414062 5.796875 -39.71875 C 4.523438 -41.019531 3.890625 -42.566406 3.890625 -44.359375 Z M 16.109375 0 L 4.875 0 L 4.875 -33.046875 L 16.109375 -33.046875 Z M 16.109375 0 "/></g></g></g><g fill="#393f4a" fill-opacity="1"><g transform="translate(48.706623, 71.362609)"><g><path d="M 35.078125 -23 L 24.0625 -23 C 23.851562 -24.5 23.1875 -25.507812 22.0625 -26.03125 C 20.945312 -26.5625 19.835938 -26.828125 18.734375 -26.828125 C 17.628906 -26.828125 16.601562 -26.5625 15.65625 -26.03125 C 14.707031 -25.507812 14.234375 -24.75 14.234375 -23.75 C 14.234375 -23 14.742188 -22.4375 15.765625 -22.0625 C 16.796875 -21.6875 18.125 -21.382812 19.75 -21.15625 C 21.375 -20.9375 23.097656 -20.648438 24.921875 -20.296875 C 26.742188 -19.953125 28.460938 -19.40625 30.078125 -18.65625 C 31.703125 -17.90625 33.023438 -16.84375 34.046875 -15.46875 C 35.078125 -14.09375 35.59375 -12.234375 35.59375 -9.890625 C 35.59375 -7.296875 34.90625 -5.222656 33.53125 -3.671875 C 32.15625 -2.117188 30.242188 -0.992188 27.796875 -0.296875 C 25.347656 0.398438 22.523438 0.75 19.328125 0.75 C 16.085938 0.75 13.15625 0.3125 10.53125 -0.5625 C 7.90625 -1.4375 5.789062 -2.832031 4.1875 -4.75 C 2.59375 -6.675781 1.695312 -9.191406 1.5 -12.296875 L 12.671875 -12.296875 C 12.671875 -10.640625 13.066406 -9.445312 13.859375 -8.71875 C 14.660156 -8 15.609375 -7.539062 16.703125 -7.34375 C 17.804688 -7.144531 18.757812 -7.046875 19.5625 -7.046875 C 20.851562 -7.046875 21.960938 -7.28125 22.890625 -7.75 C 23.816406 -8.226562 24.28125 -8.914062 24.28125 -9.8125 C 24.28125 -10.96875 23.765625 -11.84375 22.734375 -12.4375 C 21.710938 -13.039062 20.390625 -13.488281 18.765625 -13.78125 C 17.148438 -14.082031 15.425781 -14.382812 13.59375 -14.6875 C 11.769531 -14.988281 10.046875 -15.425781 8.421875 -16 C 6.804688 -16.570312 5.484375 -17.429688 4.453125 -18.578125 C 3.429688 -19.734375 2.921875 -21.3125 2.921875 -23.3125 C 2.921875 -26.707031 4.242188 -29.300781 6.890625 -31.09375 C 9.535156 -32.894531 13.582031 -33.796875 19.03125 -33.796875 C 23.375 -33.796875 27.007812 -32.945312 29.9375 -31.25 C 32.863281 -29.550781 34.578125 -26.800781 35.078125 -23 Z M 35.078125 -23 "/></g></g></g><g fill="#393f4a" fill-opacity="1"><g transform="translate(86.539023, 71.362609)"><g><path d="M 38.296875 -18.734375 L 38.296875 0 L 27.046875 0 L 27.046875 -18.734375 C 27.046875 -20.679688 26.644531 -22.164062 25.84375 -23.1875 C 25.050781 -24.21875 23.78125 -24.734375 22.03125 -24.734375 C 20.28125 -24.734375 18.789062 -23.921875 17.5625 -22.296875 C 16.34375 -20.671875 15.734375 -18.734375 15.734375 -16.484375 L 15.734375 0 L 4.5 0 L 4.5 -56.203125 L 15.734375 -56.203125 L 15.734375 -29 C 16.878906 -30.445312 18.3125 -31.609375 20.03125 -32.484375 C 21.757812 -33.359375 23.703125 -33.796875 25.859375 -33.796875 C 30.296875 -33.796875 33.476562 -32.410156 35.40625 -29.640625 C 37.332031 -26.867188 38.296875 -23.234375 38.296875 -18.734375 Z M 38.296875 -18.734375 "/></g></g></g><g fill="#d7574c" fill-opacity="1"><g transform="translate(128.195405, 71.362609)"><g><path d="M 15.734375 0 L 4.5 0 L 4.5 -56.203125 L 15.734375 -56.203125 Z M 15.734375 0 "/></g></g></g><g fill="#d7574c" fill-opacity="1"><g transform="translate(148.422635, 71.362609)"><g><path d="M 21.5 -7.796875 C 23.5 -7.796875 25.046875 -8.21875 26.140625 -9.0625 C 27.242188 -9.914062 28.019531 -11.003906 28.46875 -12.328125 C 28.925781 -13.648438 29.15625 -15.007812 29.15625 -16.40625 C 29.15625 -17.8125 28.914062 -19.160156 28.4375 -20.453125 C 27.96875 -21.753906 27.179688 -22.828125 26.078125 -23.671875 C 24.972656 -24.523438 23.445312 -24.953125 21.5 -24.953125 C 19.550781 -24.953125 18.015625 -24.523438 16.890625 -23.671875 C 15.773438 -22.828125 14.976562 -21.753906 14.5 -20.453125 C 14.019531 -19.160156 13.78125 -17.8125 13.78125 -16.40625 C 13.78125 -15.007812 14.003906 -13.648438 14.453125 -12.328125 C 14.910156 -11.003906 15.703125 -9.914062 16.828125 -9.0625 C 17.953125 -8.21875 19.507812 -7.796875 21.5 -7.796875 Z M 21.5 -33.71875 C 24.945312 -33.71875 28.09375 -32.992188 30.9375 -31.546875 C 33.789062 -30.097656 36.066406 -28.085938 37.765625 -25.515625 C 39.460938 -22.941406 40.3125 -19.929688 40.3125 -16.484375 C 40.3125 -12.984375 39.472656 -9.945312 37.796875 -7.375 C 36.128906 -4.800781 33.867188 -2.816406 31.015625 -1.421875 C 28.171875 -0.0234375 25 0.671875 21.5 0.671875 C 18.007812 0.671875 14.828125 -0.0234375 11.953125 -1.421875 C 9.078125 -2.816406 6.800781 -4.800781 5.125 -7.375 C 3.457031 -9.945312 2.625 -12.984375 2.625 -16.484375 C 2.625 -19.929688 3.472656 -22.941406 5.171875 -25.515625 C 6.867188 -28.085938 9.15625 -30.097656 12.03125 -31.546875 C 14.90625 -32.992188 18.0625 -33.71875 21.5 -33.71875 Z M 21.5 -33.71875 "/></g></g></g><g fill="#d7574c" fill-opacity="1"><g transform="translate(191.349298, 71.362609)"><g><path d="M 3.890625 -5.765625 C 3.890625 -7.617188 4.523438 -9.179688 5.796875 -10.453125 C 7.078125 -11.722656 8.640625 -12.359375 10.484375 -12.359375 C 12.285156 -12.359375 13.832031 -11.722656 15.125 -10.453125 C 16.425781 -9.179688 17.078125 -7.617188 17.078125 -5.765625 C 17.078125 -3.972656 16.425781 -2.4375 15.125 -1.15625 C 13.832031 0.113281 12.285156 0.75 10.484375 0.75 C 8.640625 0.75 7.078125 0.113281 5.796875 -1.15625 C 4.523438 -2.4375 3.890625 -3.972656 3.890625 -5.765625 Z M 3.890625 -5.765625 "/></g></g></g></g></g></svg>